<?xml version="1.0" encoding="utf-8"?>
<!DOCTYPE svg PUBLIC "-//W3C//DTD SVG 1.1//EN" "http://www.w3.org/Graphics/SVG/1.1/DTD/svg11.dtd">
<svg id="Layer_1" data-name="Layer 1" xmlns="http://www.w3.org/2000/svg" viewBox="0 0 481.35 166.23"><defs><style>.cls-1{fill:#005a96;}.cls-2{fill:#a0ab57;}</style></defs><title>GT_NAV_1Artboard 5</title><path class="cls-1" d="M203.12,44.18V20.82H220V44.18h13.86V57.77H220V97.7c0,3.8,1.9,4.89,6.12,4.89a36.94,36.94,0,0,0,7.74-1.36v13.85a109.14,109.14,0,0,1-13.31,1.09c-12.5,0-17.39-6.24-17.39-16.3V57.77h-9.78V44.18Z"/><path class="cls-1" d="M239.66,126.23a31.84,31.84,0,0,0,7.06.54c5.84,0,9.1-1.62,11.14-5.57,1.63-3.39,2.71-5.44,2.71-8.28,0-2.58-1.35-5.57-2.17-8.42L239.52,44.18h17l11.69,43.46h.27l12.09-43.46h16.84L275.11,115c-7.48,20.24-13.45,25.67-27.31,25.67a52.5,52.5,0,0,1-8.14-.54Z"/><rect class="cls-1" x="304.52" y="16.75" width="16.84" height="98.07"/><path class="cls-1" d="M375,70.81c-.27-9.78-5.43-15.49-13.58-15.49S348.15,61,347.89,70.81ZM347.89,82.21c.27,14.66,6.79,20.37,14.66,20.37s11.54-3.53,15.76-8.42l12.22,7.61c-6.52,10.05-16,14.4-29.61,14.4-18.34,0-29.88-14.26-29.88-36.68s11.54-36.67,30.7-36.67c18.47-.14,28.79,15.48,28.79,32.46v6.92Z"/><path class="cls-1" d="M400.38,114.81V44.18h15.48V56.27h.27c4.08-8.42,9.78-13.17,21.72-13.68V60.38c-2.7.1-3.66.1-4.88.1-8.42,0-15.76,9.64-15.76,11.41v42.92Z"/><path class="cls-1" d="M13,44.28a13,13,0,1,1-13,13,13,13,0,0,1,13-13"/><path class="cls-1" d="M35.15,66.42a13,13,0,1,1-13,13,13,13,0,0,1,13-13"/><path class="cls-1" d="M57.29,88.56a13,13,0,1,1-13,13,13,13,0,0,1,13-13"/><path class="cls-1" d="M57.29,132.85a13,13,0,1,1-13,13,13,13,0,0,1,13-13"/><path class="cls-1" d="M79.43,110.71a13,13,0,1,1-13,13,13,13,0,0,1,13-13"/><path class="cls-1" d="M101.57,88.56a13,13,0,1,1-13,13,13,13,0,0,1,13-13"/><path class="cls-2" d="M57.29,44.28a13,13,0,1,1-13,13,13,13,0,0,1,13-13"/><path class="cls-2" d="M79.43,22.14a13,13,0,1,1-13,13,13,13,0,0,1,13-13"/><path class="cls-2" d="M101.57,44.28a13,13,0,1,1-13,13,13,13,0,0,1,13-13"/><path class="cls-2" d="M123.71,66.42a13,13,0,1,1-13,13,13,13,0,0,1,13-13"/><path class="cls-2" d="M145.85,88.56a13,13,0,1,1-13,13,13,13,0,0,1,13-13"/><path class="cls-2" d="M101.57,0a13,13,0,1,1-13,13,13,13,0,0,1,13-13"/><path class="cls-2" d="M281,138V131.2h2.85V138h4.77v2.46h-4.77v14.67c0,1,.67,1.43,2.34,1.43a16.11,16.11,0,0,0,2.54-.2v2.34a13,13,0,0,1-3.33.32c-3.1,0-4.4-.79-4.4-3.41V140.44h-3.37V138Z"/><path class="cls-2" d="M304.77,146.39c0-3.81-1.83-6.35-4.92-6.35-3.45,0-5.32,2.54-5.55,6.35Zm3.49,7.82c-1.35,2.34-3.25,4.8-7.93,4.8s-9-3.17-9-10.71c0-6.66,3.33-10.71,8.41-10.71,4.29,0,7.86,2.78,7.86,9.36v1.91H294.21c0,4.52,2.7,7.7,6.11,7.7a6.37,6.37,0,0,0,5.71-3.5Z"/><path class="cls-2" d="M324.52,144.13c-.79-2.5-2.42-4.09-4.88-4.09-3.53,0-5.59,3-5.59,8.25s2.06,8.25,5.59,8.25c2.61,0,4.08-.87,5.67-3.81l2.31,1c-2.07,3.49-3.89,5.24-8,5.24-5.16,0-8.45-4-8.45-10.71s3.29-10.71,8.45-10.71c4.24,0,6.23,2.38,7.54,5.6Z"/><path class="cls-2" d="M334.08,130v10.79h.08a8.46,8.46,0,0,1,6.11-3.17c3.05,0,5.95,1.59,5.95,6v15h-2.86V143.69c0-2.74-1.31-3.65-3.37-3.65s-4.6,1.75-5.91,3.13v15.43h-2.86V130Z"/><path class="cls-2" d="M354.15,138v2.78h.08a8.46,8.46,0,0,1,6.11-3.17c3.05,0,5.95,1.59,5.95,6v15h-2.86V143.69c0-2.73-1.31-3.65-3.37-3.65s-4.6,1.75-5.91,3.13v15.43h-2.85V138Z"/><path class="cls-2" d="M378.54,140c-3.41,0-5.59,2.94-5.59,8.25s2.18,8.25,5.59,8.25,5.59-2.94,5.59-8.25S382,140,378.54,140m0,19c-5.63,0-8.45-4.76-8.45-10.71s2.82-10.71,8.45-10.71,8.45,4.76,8.45,10.71S384.18,159,378.54,159"/><rect class="cls-2" x="390.96" y="129.97" width="2.85" height="28.64"/><path class="cls-2" d="M406.23,140c-3.41,0-5.59,2.94-5.59,8.25s2.18,8.25,5.59,8.25,5.6-2.94,5.6-8.25-2.19-8.25-5.6-8.25m0,19c-5.63,0-8.45-4.76-8.45-10.71s2.82-10.71,8.45-10.71,8.45,4.76,8.45,10.71S411.86,159,406.23,159"/><path class="cls-2" d="M425.75,140c-3.26,0-5,2.06-5,4.76s2.14,4.76,5.31,4.76S431,147.42,431,145c0-3-1.75-4.92-5.23-4.92m-.12,17.69c-4.48,0-5.75,2-5.75,3.45s1,2.58,6.66,2.58c3.41,0,6.19-1,6.23-3s-2.1-3.05-7.14-3.05m9.8-17.69a8,8,0,0,0-3.17.55,7,7,0,0,1,1.43,4.21,7.32,7.32,0,0,1-7.53,7.22,11.38,11.38,0,0,1-3.65-.55,1.92,1.92,0,0,0-1.62,1.9c0,1,.67,1.51,1.7,1.51,9.76,0,12.9,1.75,12.9,5.79,0,3-3,5.56-9.4,5.56-5.79,0-8.88-1.59-8.88-5,0-2.06,1.26-3.05,3.49-4.2a3.31,3.31,0,0,1-2.58-2.94c0-1.78,1.19-2.54,2.78-3.53a6.91,6.91,0,0,1-2.82-5.75c0-4.36,3.41-7.22,7.81-7.22A8.32,8.32,0,0,1,431,139a9.93,9.93,0,0,1,4.44-1.83Z"/><path class="cls-2" d="M439.51,138h2.86v20.63h-2.86Zm2.86-5h-2.86v-3.41h2.86Z"/><path class="cls-2" d="M459.7,146.39c0-3.81-1.83-6.35-4.92-6.35-3.45,0-5.32,2.54-5.56,6.35Zm3.49,7.82c-1.35,2.34-3.26,4.8-7.94,4.8s-9-3.17-9-10.71c0-6.66,3.33-10.71,8.41-10.71,4.29,0,7.86,2.78,7.86,9.36v1.91H449.15c0,4.52,2.7,7.7,6.11,7.7a6.37,6.37,0,0,0,5.71-3.5Z"/><path class="cls-2" d="M468.14,153.37a7,7,0,0,0,5.91,3.18c3.1,0,4.44-1.67,4.44-3.41,0-5.23-12.22-2.46-12-10,.12-3.57,2.86-5.59,6.83-5.55a9.06,9.06,0,0,1,7.06,3.61l-2,1.75c-1.58-1.95-3.09-2.9-5.31-2.9-2.43,0-3.73,1.23-3.73,3.05,0,4.48,12,2.18,12,9.88,0,4-3.49,6-7.22,6a10.29,10.29,0,0,1-8.25-3.93Z"/><path class="cls-2" d="M129.15,116.09a5.2,5.2,0,1,1-5.2-5.19A5.2,5.2,0,0,1,129.15,116.09Zm-.85,0a4.36,4.36,0,1,0-4.35,4.49A4.35,4.35,0,0,0,128.3,116.09Zm-5.45,3.09H122V113h2.37c1.38,0,2,.6,2,1.71a1.65,1.65,0,0,1-1.43,1.72l1.72,2.75h-1L124,116.44h-1.19Zm1-3.45c.81,0,1.72,0,1.72-1,0-.87-.7-1-1.34-1h-1.35v2Z"/></svg>
