<?xml version="1.0" encoding="utf-8"?>
<!-- Generator: Adobe Illustrator 16.0.0, SVG Export Plug-In . SVG Version: 6.00 Build 0)  -->
<!DOCTYPE svg PUBLIC "-//W3C//DTD SVG 1.1//EN" "http://www.w3.org/Graphics/SVG/1.1/DTD/svg11.dtd">
<svg version="1.1" xmlns="http://www.w3.org/2000/svg" xmlns:xlink="http://www.w3.org/1999/xlink" x="0px" y="0px" width="1440px"
	 height="900px" viewBox="0 0 1440 900" enable-background="new 0 0 1440 900" xml:space="preserve">
<g id="Layer_1">
</g>
<g id="Layer_17">
	<rect fill="#B1E2F6" width="1440" height="900"/>
</g>
<g id="Layer_25">
	<path fill="#6D6D6B" d="M142.103,622.6c187.487-68.096,344-177.694,344-177.694S567.995,696.381,720,796.573
		c114.571,75.519-548.882,0-548.882,0"/>
	<path fill="#6D6D6B" d="M720,848.84c276.133-213.078,478.898-483.773,478.898-483.773s268.539,401.746,574.162,502.428
		c230.356,75.887-913.268,273.027-913.268,273.027"/>
	<g>
		<path fill="#F9F9FA" d="M1178.54,495.2c13.04-0.29,25.35,3.31,38.03,5.75c14.29,2.74,28.569,0.87,42.81-1.51
			c12.282-2.049,24.487-4.607,36.788-6.538c-61.02-73.605-97.27-127.836-97.27-127.836s-41.91,55.948-113.563,136.991
			c4.081,2.292,8.678,3.647,13.425,4.143c18.26,1.89,36.44-3.26,54.141-7.05C1161.25,497.36,1169.99,495.39,1178.54,495.2z"/>
	</g>
	<g>
		<path fill="#F9F9FA" d="M486.103,444.905c0,0-48.151,33.718-123.032,75.37c2.296,3.526,5.367,6.7,9.369,9.364
			c5.9,3.92,12.13,6.45,18.92,8.391c5.93,1.7,12.53,3.33,17.77,6.739c9.79,6.37,16.36,15.7,24.6,23.75
			c8.2,8.011,19.02,13.48,30.68,13.23c10.73-0.22,21.17-3.23,31.83-4.27c11.75-1.141,22.77,1.779,33.45,6.52
			c7.293,3.228,14.45,7.109,21.999,9.778C508.527,513.767,486.103,444.905,486.103,444.905z"/>
	</g>
	<path fill="#ECEA5A" d="M237.434,348.761c0,0-19.768-10.165-24.434-23.629c0,0,22.868,20.427,24.434,11.815"/>
	<path fill="#ECEA5A" d="M233.609,343.735c0,0-29.275-29.058-28.609-63.946c0,0,22.031,48.334,35.333,37.611"/>
	<path fill="#ECEA5A" d="M221.901,311.763c0,0-14.419-36.268-8.919-77.768c0,0,4.718,55,20.609,53.5"/>
</g>
<g id="Layer_23">
	<g id="XMLID_5_" opacity="0.5">
		<g>
			<path fill="#FFFFFF" d="M294.737-1.486c1.59,9.67-1.04,18.7-5.9,27.09c-4.17,7.2-28.43,35.68-9.41,38.79
				c8.98,1.47,15.42,5.73,15.43,15.78c0,8.98-5.49,15.93-12.43,21.05c-7.2,5.31-15.45,8.79-23.59,12.38
				c-9.76,4.3-17.8,10.97-26.29,17.34c-10.69,8.01-22.25,15.57-35.7,17.6c-15.17,2.29-30.49-1.1-45.63,0.89
				c-12.59,1.65-24.32,8.71-35.58,14.18c-10.67,5.18-21.8,10.23-33.65,11.9c-13.01,1.84-25.15,0.9-36.88-5.39
				c-8.61-4.62-17.04-12.2-26.86-14.03c-10.41-1.93-25.5,1.17-37.09,2.12c-13.81,1.13-29.94,2.8-43.16-2.42
				c-13.6-5.36-18.04-17.09-14.63-30.93c0.22-0.88,0.6-1.58,1.09-2.13c-5.77-9.34-11.38-19.22-13.01-30.21
				c-1.7-11.44,1.66-22.68,6.79-32.84c5.85-11.58,13.83-22.31,22.07-32.3c8.55-10.37,17.9-20.17,28.29-28.74
				c20.52-16.91,44.9-30.16,71.88-32.17c13.55-1.01,26.9,0.99,40.19,3.52c7.14,1.36,14.28,3.05,21.56,3.47
				c2.98,0.17,6.83,0.65,9.64-0.74c3.19-1.58,5.89-3.94,8.76-6.02c4.67-3.39,9.49-6.46,14.78-8.79c12.01-5.27,25.57-8.17,38.71-7.82
				c11.51,0.3,23.85,2.42,33.24,9.53c8.32,6.3,15.17,15.58,24.51,20.39c15.66,8.08,31.35-9.73,47.09-3.89
				C288.137-20.466,293.197-10.776,294.737-1.486z M262.667,52.234c3.43-17.34,23.24-29.57,22.68-47.92
				c-0.21-7.04-3.64-19.28-12.52-19.09c-7.92,0.16-15.35,4.18-23.01,5.82c-9.15,1.95-18.15,1.29-26.01-4.24
				c-8.77-6.17-15.45-15.21-24.68-20.71c-10.54-6.29-24.35-6.92-36.26-5.43c-13.21,1.66-25.51,6.2-36.3,14.02
				c-5.99,4.35-11.1,8.59-18.85,8.87c-12.75,0.46-25.36-3.32-37.83-5.39c-14-2.31-28.26-3.05-42.15,0.4
				c-12.96,3.22-25.05,8.36-36.28,15.61c-22.47,14.5-41.49,34.61-56.32,56.77c-6.9,10.3-14.39,22.37-14.2,35.24
				c0.19,12.21,6.81,22.92,13.07,32.99c1.47,2.37,0.69,4.65-0.94,6.04c0.15,0.7,0.15,1.47-0.06,2.31c-1.21,4.91-1.8,11.09,1.8,14.8
				c3.5,3.61,8.76,5.09,13.73,5.9c13.99,2.3,28.71,0.4,42.71-0.93c12.13-1.16,24.86-3.43,36.41,1.48
				c10.18,4.33,18.67,12.23,29.24,15.67c11.85,3.86,24.98,1.96,36.56-2.1c11.38-3.99,21.84-9.99,32.8-14.94
				c5.82-2.63,12.03-5.71,18.34-6.94c6.96-1.35,13.99-1.7,21.07-1.49c15.48,0.45,30.87,2.02,45-5.59
				c11.52-6.21,21.19-14.99,31.94-22.33c7.01-4.77,14.94-7.47,22.51-11.21c6.51-3.21,16.67-7.87,19.07-15.49
				c0.73-2.31,1.73-8.07-1.47-9.08c-3.34-1.06-6.89-1.14-10.21-2.3C264.107,70.024,261.067,60.384,262.667,52.234z"/>
			<path fill="#FFFFFF" d="M285.347,4.314c0.56,18.35-19.25,30.58-22.68,47.92c-1.6,8.15,1.44,17.79,9.84,20.74
				c3.32,1.16,6.87,1.24,10.21,2.3c3.2,1.01,2.2,6.77,1.47,9.08c-2.4,7.62-12.56,12.28-19.07,15.49
				c-7.57,3.74-15.5,6.44-22.51,11.21c-10.75,7.34-20.42,16.12-31.94,22.33c-14.13,7.61-29.52,6.04-45,5.59
				c-7.08-0.21-14.11,0.14-21.07,1.49c-6.31,1.23-12.52,4.31-18.34,6.94c-10.96,4.95-21.42,10.95-32.8,14.94
				c-11.58,4.06-24.71,5.96-36.56,2.1c-10.57-3.44-19.06-11.34-29.24-15.67c-11.55-4.91-24.28-2.64-36.41-1.48
				c-14,1.33-28.72,3.23-42.71,0.93c-4.97-0.81-10.23-2.29-13.73-5.9c-3.6-3.71-3.01-9.89-1.8-14.8c0.21-0.84,0.21-1.61,0.06-2.31
				c1.63-1.39,2.41-3.67,0.94-6.04c-6.26-10.07-12.88-20.78-13.07-32.99c-0.19-12.87,7.3-24.94,14.2-35.24
				c14.83-22.16,33.85-42.27,56.32-56.77c11.23-7.25,23.32-12.39,36.28-15.61c13.89-3.45,28.15-2.71,42.15-0.4
				c12.47,2.07,25.08,5.85,37.83,5.39c7.75-0.28,12.86-4.52,18.85-8.87c10.79-7.82,23.09-12.36,36.3-14.02
				c11.91-1.49,25.72-0.86,36.26,5.43c9.23,5.5,15.91,14.54,24.68,20.71c7.86,5.53,16.86,6.19,26.01,4.24
				c7.66-1.64,15.09-5.66,23.01-5.82C281.707-14.966,285.137-2.726,285.347,4.314z"/>
		</g>
		<g>
		</g>
	</g>
	<g id="XMLID_6_" opacity="0.5">
		<g>
			<path fill="#FFFFFF" d="M1276.6,146.49c7.687,8.644,4.302,20.546,0.006,29.988c-2.769,6.091-7.441,10.752-12.575,14.911
				c-5.054,4.097-11.065,8.165-14.278,13.988c-2.376,4.313,0.097,8.667-0.752,13.321c-0.872,4.769-3.197,8.912-7.157,11.772
				c-7.691,5.55-18.552,5.538-27.611,5.094c-10.318-0.507-20.563-2.313-30.894-2.558c-5.293-0.125-10.308,0.934-15.538,1.646
				c-7.737,1.054-15.595,1.863-23.384,0.872c-4.205-0.536-8.364-1.333-12.398-2.644c-3.703-1.208-7.265-2.98-10.831-4.53
				c-6.729-2.917-13.578-5.704-20.86-6.9c-6.684-1.1-13.492-1.163-20.182-2.342c-5.23-0.923-10.381-2.222-15.293-4.268
				c-8.433-3.504-15.743-9.321-19.452-17.851c-1.578-3.624-2.462-7.424-2.849-11.293c-0.086,0.005-0.171,0.005-0.257,0.005
				c-1.077-9.954-2.917-20.688,0.45-30.209c3.117-8.837,16.057-10.456,25.008-13.048c16.865-4.889,34.654-6.678,52.141-4.928
				c17.39,1.738,33.879,6.592,50.004,13.173c6.826,2.792,14.473,6.165,22.028,5.213c7.008-0.883,12.375-5.834,16.461-11.23
				c3.817-5.042,8.501-7.783,14.843-8.609c7.932-1.037,15.931,0.017,23.828,0.872C1256.886,138,1269.472,138.467,1276.6,146.49z
				 M1270.583,175.845c4.183-7.886,8.935-21.281-0.462-27.463c-4.159-2.735-9.094-3.983-13.965-4.741
				c-7.071-1.1-14.404-1.812-21.549-2.177c-6.456-0.331-15.151-0.872-19.92,4.427c-1.772,1.966-3.146,4.256-4.957,6.194
				c-2.268,2.433-5.088,4.774-8.006,6.387c-14.535,8.045-29.395-1.351-43.24-6.205c-16.871-5.915-34.318-9.812-52.277-9.698
				c-16.103,0.097-32.575,3.008-47.742,8.518c-5.009,1.818-11.704,5.146-12.519,11.117c1.852-0.678,4.519,0.832,3.943,3.401
				c-2.068,9.288-3.226,19.646,0.513,28.694c2.963,7.168,9.128,12.102,16.113,15.105c9.51,4.091,19.686,4.746,29.834,5.812
				c6.495,0.684,12.763,2.165,18.854,4.53c6.125,2.37,12.057,5.703,18.33,7.635c7.795,2.405,15.743,3.282,23.88,2.707
				c6.957-0.49,13.777-2.143,20.706-2.672c9.595-0.741,19.378,1.146,28.916,1.955c9.105,0.775,20.563,2.176,29.07-2.097
				c3.88-1.954,6.467-4.979,7.265-9.338c0.849-4.678-1.51-8.837,0.49-13.464C1249.262,191.981,1264.315,187.651,1270.583,175.845z"
				/>
			<path fill="#FFFFFF" d="M1270.121,148.382c9.396,6.182,4.645,19.578,0.462,27.463c-6.268,11.806-21.321,16.136-26.723,28.626
				c-2,4.626,0.358,8.786-0.49,13.464c-0.798,4.359-3.385,7.384-7.265,9.338c-8.507,4.273-19.965,2.872-29.07,2.097
				c-9.538-0.809-19.321-2.695-28.916-1.955c-6.929,0.53-13.749,2.182-20.706,2.672c-8.137,0.576-16.085-0.302-23.88-2.707
				c-6.273-1.932-12.205-5.265-18.33-7.635c-6.091-2.365-12.358-3.846-18.854-4.53c-10.148-1.066-20.324-1.721-29.834-5.812
				c-6.985-3.003-13.15-7.937-16.113-15.105c-3.738-9.048-2.581-19.407-0.513-28.694c0.575-2.569-2.092-4.08-3.943-3.401
				c0.814-5.971,7.51-9.299,12.519-11.117c15.167-5.51,31.64-8.421,47.742-8.518c17.959-0.114,35.406,3.783,52.277,9.698
				c13.846,4.854,28.705,14.25,43.24,6.205c2.918-1.613,5.738-3.955,8.006-6.387c1.812-1.938,3.185-4.228,4.957-6.194
				c4.769-5.299,13.464-4.758,19.92-4.427c7.145,0.365,14.478,1.077,21.549,2.177
				C1261.027,144.399,1265.962,145.646,1270.121,148.382z"/>
		</g>
		<g>
		</g>
	</g>
</g>
<g id="Layer_21">
	<g id="XMLID_1_">
		<g>
			<path fill="#352B29" d="M616.695,849.703c5.96,2.28,3.38,11.95-2.66,9.641c-8.13-3.101-16.18-6.42-24.15-9.94
				c-49.93-0.5-99.83-2.649-149.66-5.85c-130.44-8.391-260.3-23.721-390.64-33.28c-65.65-4.82-131.53-5.46-197.2-10.1
				c-31.16-2.2-62.68-4.2-93.05-11.82c-28.12-7.04-56.64-16.23-85.97-14.83c-6.45,0.31-6.42-9.69,0-10c2.01-0.1,4.02-0.13,6.02-0.13
				c11.73-21.57,28.78-39.32,44.92-57.58c16.95-19.18,31.16-39.98,43.09-62.63c13.43-25.48,25.17-52.04,41.52-75.86
				c13.32-19.399,29.14-36.89,47.22-51.97c18.33-15.29,38.26-28.45,58.57-40.94c19.8-12.17,39.72-24.22,59.78-35.97
				c21-12.3,42.56-24,65.43-32.48c21.54-8,45.12-13.69,68.24-11.17c51.13,5.57,83.35,50.26,119.78,81.53
				c10.54,9.04,21.68,17.38,33.7,24.36c10.88,6.32,22.32,11.609,33.49,17.39c18.96,9.811,36.61,21.3,49.25,38.88
				c7.29,10.13,12.47,21.431,18.11,32.511c5.52,10.819,11.1,21.6,16.85,32.3c10.86,20.21,22.19,40.189,34.57,59.51
				c23.18,36.18,50.05,70.11,82.67,98.27c28.63,24.711,60.97,44.431,95.35,59.87c6.48,0.07,12.96,0.11,19.44,0.11
				c5.32,0,6.25,6.8,2.79,9.18C615.005,849.033,615.845,849.373,616.695,849.703z M567.995,839.063
				c-19.25-9.75-37.76-20.92-55.13-33.79c-72.6-53.77-118.72-131.55-159.01-210.76c-5.62-11.05-10.71-22.51-18.11-32.521
				c-6.26-8.47-13.95-15.899-22.63-21.87c-19.68-13.51-42.4-21.63-62.49-34.439c-22.22-14.17-40.97-32.32-59.89-50.49
				c-9.21-8.84-18.56-17.61-28.63-25.49c-9.74-7.62-19.99-15.25-31.69-19.58c-45.56-16.85-94.92,5.66-134.57,27.64
				c-19.89,11.02-39.23,23.02-58.71,34.729c-21.12,12.7-42.29,25.511-61.95,40.4c-18.53,14.03-35.77,30.14-49.85,48.7
				c-16.91,22.27-29.29,47.3-41.86,72.16c-12.88,25.489-27.1,50.09-45.75,71.85c-16.26,18.96-34.27,36.66-47.07,58.22
				c19.58,1.48,38.91,6.53,57.84,11.44c12.08,3.12,24.43,6.96,36.84,8.51c13.78,1.72,27.58,3.18,41.41,4.38
				c65.61,5.72,131.49,6.48,197.21,10.42c65.32,3.91,130.52,10.391,195.67,16.48C335.525,825.873,451.575,836.754,567.995,839.063z"
				/>
			<path fill="#352B29" d="M512.865,805.273c17.37,12.87,35.88,24.04,55.13,33.79c-116.42-2.31-232.47-13.19-348.37-24.01
				c-65.15-6.09-130.35-12.57-195.67-16.48c-65.72-3.939-131.6-4.7-197.21-10.42c-13.83-1.2-27.63-2.66-41.41-4.38
				c-12.41-1.55-24.76-5.39-36.84-8.51c-18.93-4.91-38.26-9.96-57.84-11.44c12.8-21.56,30.81-39.26,47.07-58.22
				c18.65-21.76,32.87-46.36,45.75-71.85c12.57-24.86,24.95-49.891,41.86-72.16c14.08-18.561,31.32-34.67,49.85-48.7
				c19.66-14.89,40.83-27.7,61.95-40.4c19.48-11.71,38.82-23.71,58.71-34.729c39.65-21.98,89.01-44.49,134.57-27.64
				c11.7,4.33,21.95,11.96,31.69,19.58c10.07,7.88,19.42,16.65,28.63,25.49c18.92,18.17,37.67,36.32,59.89,50.49
				c20.09,12.81,42.81,20.93,62.49,34.439c8.68,5.971,16.37,13.4,22.63,21.87c7.4,10.011,12.49,21.471,18.11,32.521
				C394.145,673.724,440.265,751.504,512.865,805.273z"/>
		</g>
		<g>
		</g>
	</g>
	<path fill="#443835" d="M1241,852c-6.449,0-6.449,10,0,10S1247.449,852,1241,852z"/>
	<g id="XMLID_2_">
		<g>
			<path fill="#352B29" d="M1484,849.29c3.91,3.41,8.98,8.03,10.05,12.69c-0.01,0,0,0.409-0.2,1.149
				c-0.119,0.42-0.47,1.15-1.06,2.09c-0.92,1.46-3.06,3.36-4.86,4.63c-12.56,8.881-29.29,12.37-44.02,15.631
				c-16.83,3.729-33.92,6.289-51.03,8.359c-50.33,6.09-100.27-0.399-150.11-8.03c-64.029-9.81-128.34-16.909-192.689-24.3
				c-32.38-3.72-64.88-6.899-97.15-11.51c-32.3-4.63-64.56-9.52-96.87-14.07c-40.229-5.649-80.579-10.75-121.079-14.1
				c23.649-30.271,51.039-57.95,83.93-77.521c23.55-14.01,50.47-21.109,76.649-28.52c28.23-8,56.431-16.03,82.761-29.24
				c24.31-12.2,44.85-30.189,67.68-44.74c11.19-7.119,23.01-13.22,35.8-16.859c11.04-3.141,22.62-2.78,33.87-0.98
				c25.42,4.061,49.72,14.65,72.84,25.59c10.641,5.021,21.431,10.03,31.75,15.69c10.07,5.52,18.99,12.81,27.44,20.54
				c16.109,14.72,30.81,31.24,50.37,41.56c10.93,5.761,22.489,7.851,34.319,10.881c9.891,2.529,19.311,6.319,27.86,11.939
				c15.92,10.45,27.5,26.98,40.71,40.42c6.01,6.12,12.08,12.12,19.3,16.8c6.26,4.061,12.73,7.82,19.12,11.681
				C1454.69,828.29,1470.49,837.5,1484,849.29z"/>
			<path fill="#352B29" d="M1494.05,861.98c-1.069-4.66-6.14-9.28-10.05-12.69c-13.51-11.79-29.31-21-44.62-30.22
				c-6.39-3.86-12.86-7.62-19.12-11.681c-7.22-4.68-13.29-10.68-19.3-16.8c-13.21-13.439-24.79-29.97-40.71-40.42
				c-8.55-5.62-17.97-9.41-27.86-11.939c-11.83-3.03-23.39-5.12-34.319-10.881c-19.561-10.319-34.261-26.84-50.37-41.56
				c-8.45-7.73-17.37-15.021-27.44-20.54c-10.319-5.66-21.109-10.67-31.75-15.69c-23.12-10.939-47.42-21.529-72.84-25.59
				c-11.25-1.8-22.83-2.16-33.87,0.98c-12.79,3.64-24.609,9.74-35.8,16.859c-22.83,14.551-43.37,32.54-67.68,44.74
				c-26.33,13.21-54.53,21.24-82.761,29.24c-26.18,7.41-53.1,14.51-76.649,28.52c-32.891,19.57-60.28,47.25-83.93,77.521
				c40.5,3.35,80.85,8.45,121.079,14.1c32.311,4.551,64.57,9.44,96.87,14.07c32.271,4.61,64.771,7.79,97.15,11.51
				c64.35,7.391,128.66,14.49,192.689,24.3c49.841,7.631,99.78,14.12,150.11,8.03c17.11-2.07,34.2-4.63,51.03-8.359
				c14.729-3.261,31.46-6.75,44.02-15.631c1.801-1.27,3.94-3.17,4.86-4.63c0.59-0.939,0.94-1.67,1.06-2.09
				C1494.05,862.39,1494.04,861.98,1494.05,861.98z M1500.15,851.95c7.649,10.77,1.699,20.97-8.36,27.34
				c-13.42,8.49-29.89,12.49-45.22,15.83c-17.15,3.75-34.53,6.38-51.95,8.51c-17.67,2.15-35.14,3.38-53,2.86
				c-31.49-0.91-62.771-5.16-93.89-9.88c-31.931-4.841-63.811-9.58-95.9-13.33c-32.6-3.811-65.2-7.57-97.8-11.32
				c-32.65-3.75-65.45-6.86-97.98-11.5c-32.28-4.59-64.52-9.49-96.81-14.06c-43.66-6.181-87.471-11.73-131.44-15.131
				c-6.43,8.631-12.58,17.421-18.48,26.25c-3.57,5.341-12.23,0.33-8.64-5.039c4.99-7.471,10.15-14.82,15.46-22.061
				c-17.69-1.21-35.4-2.05-53.14-2.42c-6.44-0.13-6.45-10.13,0-10c20.13,0.42,40.22,1.44,60.27,2.92c1.53-1.99,3.051-3.99,4.61-5.96
				c31.74-40.08,71.62-79.6,121.51-95.47c27.761-8.83,56.051-16.07,83.69-25.24c14.33-4.75,28.45-10.2,41.84-17.18
				c12.13-6.32,23.39-13.84,34.47-21.84c21.17-15.271,42.73-32.23,68.25-39.5c23.19-6.601,47.66-1.41,69.98,6.159
				c23.76,8.051,46.35,19.021,68.75,30.21c10.51,5.261,20.21,11.141,29.29,18.66c8.55,7.08,16.399,14.9,24.43,22.55
				c7.84,7.48,15.87,14.921,25.04,20.761c10.16,6.46,20.7,10.239,32.42,12.76c19.931,4.28,37.74,12.29,52.37,26.689
				c6.84,6.721,13.07,14.021,19.58,21.051c6.75,7.29,15.17,16.83,22.24,21.79c12.72,8.92,26.609,16.22,39.72,24.55
				C1474.91,829.47,1490.74,838.69,1500.15,851.95z"/>
		</g>
		<g>
		</g>
	</g>
</g>
<g id="Layer_16">
	<polyline fill="#443835" points="-36.892,732.567 1547.302,817.567 1582,989.567 -64,904.567 	"/>
</g>
<g id="Layer_15">
	<path fill="#EFAC8B" d="M235.72,400.651c-13.866-4.57-28.105,8.101-34.03,40.421c-5.924,32.319-5.989,97.679,7.875,102.248
		c13.864,4.57,36.404-53.381,42.33-85.7C257.818,425.3,249.583,405.22,235.72,400.651z"/>
	<path fill="#EFAC8B" d="M216.646,474.665c-10.618,0.287-18.906,16.258-18.273,47.323c0.418,20.471,5.668,57.854,11.96,73.396
		c3.256,8.042,6.676,7.187,10.297,7.09c3.343-0.092,6.491,1.359,8.911-5.789c5.265-15.558,7.72-54.45,7.286-75.735
		C236.195,489.885,227.266,474.377,216.646,474.665z"/>
	<path fill="#EFAC8B" d="M229.573,603.186c0.956-2.589,0.879-7.257-1.711-8.215l-1.246,1.791c-2.59-0.957-4.219-1.425-5.175,1.165
		c0,0-4.753,16.852-6.919,21.501c-1.815,3.891-5.859,11.691-8.497,15.139c-1.118,1.461-5.127,5.278-5.127,5.278
		c-0.958,2.592-0.729,4.572,1.86,5.53l0,0c2.59,0.958,3.451-0.131,6.423-2.956c1.576-1.499,5.63-6.638,5.63-6.638
		s4.742-6.412,5.954-8.767C223.67,621.366,229.573,603.186,229.573,603.186z"/>
	<path fill="#EFAC8B" d="M221.104,603.057c0.441-0.762-0.473-2.116-2.045-3.026l0,0c-1.568-0.907-3.198-1.025-3.641-0.263
		l-8.903,15.384c-0.44,0.765-1.26,3.779,0.309,4.688l0,0c1.569,0.909,4.256-0.226,5.377-1.396
		C215.204,615.307,221.104,603.057,221.104,603.057z"/>
	<path fill="#565965" d="M209.856,590.218c-3.54,0.248-6.278,4.027-6.113,8.437l0,0c0.165,4.411,3.171,7.785,6.71,7.537
		l20.578-1.444c3.541-0.249,6.276-4.026,6.112-8.438l0,0c-0.165-4.409-3.169-7.784-6.71-7.535L209.856,590.218z"/>
	<path fill="#E09D80" d="M298.37,405.422c0,0-20.177,33.407-27.747,46.206c-11.208,18.949-40.352-87.129-40.352-87.129
		s34.325,12.347,56.417-7.235"/>
	<polygon fill="#E09D80" points="195.566,535.324 190.756,463.761 223.964,426.828 233.876,377.017 255.834,391.383 
		268.556,439.578 269.422,491.458 235.546,529.136 	"/>
	<path fill="#782570" d="M161.918,467.471c-0.419,17.612-0.308,63.75-0.308,63.75c18.562,19.246,53.804,13.008,53.804,13.008
		c25.201-8.084,49.24-33.226,58.029-50.293c6.099-11.843,15.238-51.058,15.238-51.058s-20.426,7.667-20.065,10.982
		c1.056,9.69,0.59,18.124,0.59,18.124s0.485,9.734-7.275,16.331c-10.506,8.931-31.531,21.835-31.531,21.835
		s-2.683-30.541,3.208-46.6c5.609-9.777,5.269-10.945,8.801-20.573c3.536-9.632,1.254-65.96-3.009-82.127
		C213,377.017,195.252,373.432,187,386.5C175.057,411.34,162.452,445.035,161.918,467.471z"/>
	<path fill="#782570" d="M-68.152,274.112"/>
	<g>
		
			<rect x="244.856" y="712.079" transform="matrix(-0.9747 0.2235 -0.2235 -0.9747 680.3715 1400.4836)" fill="#EFAC8B" width="32.139" height="53.336"/>
		<path fill="#70256B" d="M161.967,559.835c0,0-10.943,17.435,17.645,48.416c0,0,37.55,36.034,42.289,52.033
			c2.34,7.9-1.483,24.361-2.513,32.427c-1.165,9.124-1.603,27.254,2.579,36.698c2.41,5.446,14.702,18.796,14.702,18.796
			s40.432,0.944,50.737-9.082c0,0-3.192-100.18-18.617-117.797c-5.58-6.373-41.485-74.231-62.312-84.043"/>
		<path fill="#945423" d="M246.5,758.103c11.072-3.542,29.956-5.992,39.582-5.139c1.567,2.458-4.15,3.976-2.673,6.477
			c9.343,7.714,14.608,6.268,31.286,19.565c-29.022,13.514-69.635,8.688-69.635,8.688s-4.781-13.595,4.11-22.619
			C250.694,762.594,245.183,760.659,246.5,758.103z"/>
	</g>
	<g>
		
			<rect x="56.908" y="678.607" transform="matrix(-0.8178 -0.5755 0.5755 -0.8178 -273.1983 1324.0646)" fill="#EFAC8B" width="32.14" height="53.335"/>
		<path fill="#782570" d="M166.339,531.118c0,0-16.468,0.893-23.087,44.697c0,0-22.642,54.021-31.514,58.788
			c-7.254,3.898-17.488,10.468-23.091,14.299c-8.637,5.906-25.958,18.449-31.967,27.016c-3.427,4.885-9.063,21.017-9.063,21.017
			s32.336,24.283,46.835,28.051c0,0,70.583-47.422,77.43-69.823c2.477-8.104,47.99-40.189,49.984-106.077"/>
		<path fill="#945423" d="M47.754,706.314c10.156,5.655,24.86,17.755,30.822,25.361c-0.721,2.824-4.771-0.057-5.584,2.73
			c0.763,12.091,7.376,16.002,9.083,37.263c-29.709-11.928-56.891-46.164-56.891-46.164s7.497-12.258,20.16-11.944
			C48.196,712.975,44.988,707.104,47.754,706.314z"/>
	</g>
	<path fill="#911A1D" d="M155.215,529.566c-1.123,4.341,1.486,8.771,5.827,9.894l55.656,14.396c4.341,1.123,8.77-1.485,9.893-5.827
		l0,0c1.123-4.34-1.486-8.77-5.827-9.893l-55.656-14.396C160.767,522.617,156.338,525.226,155.215,529.566L155.215,529.566z"/>
	<path fill="#ECEA5A" d="M267.972,315.555c0,0-25.615,18.164-23.78,31.034c0,0-4.585-10.224,13.277-44.338"/>
	<path fill="#ECEA5A" d="M244.249,293.805c0,0-2.886-53.591,6.464-71.102c0,0,2.412,53.235,16.496,54.694"/>
	<g>
		<path fill="#EFAC8B" d="M333.428,230.652c22.638,10.719,48.068,33.644,31.507,95.103c-7.487,15.178-16.695,44,4.282,67.566
			c-8.324,2.58-11.533-1.157-30.352,23.693c0,0-38.008,31.718-88.813-33.604c0,0-19.775-37.422-15.952-74.015
			C239.174,260.838,276.766,203.822,333.428,230.652z"/>
		<path fill="#FFFFFF" d="M321.662,339.56c-1.377,4.935,4.536,13.32,13.139,15.723c8.603,2.402,16.635-2.09,18.012-7.025"/>
		<path fill="#ECEA5A" d="M357.4,348.751c0,0-31.293-21.247-50.867-20.169l-11.244,9.419c0,0,21.708-3.629,61.656,14.936"/>
		<path fill="#ECEA5A" d="M267.481,268.71c-32.055-30.576-33.573-67.551-33.573-67.551c-40.66,62.989,3.525,147.602,3.525,147.602
			s67.289-114.364,131.358-41c0,0,8.406-31.922-8.065-54.242c0,0-15.935-29.363-55.641-29.734c0,0-28.439-3.308-52.448,29.942"/>
		<path fill="#ECEA5A" d="M231.97,256.221c0,0,1.297-82.972,33.067-113.906c0,0-15.727,114.491,32.658,130.007"/>
		<path fill="#ECEA5A" d="M251.623,233.745c0.732-74.039,45.9-129.427,45.9-129.427s-25.873,98.94,0,160.84"/>
		<path fill="#ECEA5A" d="M352.943,266.835c0,0,39.549,22.562,22.512,83.986c0,0-9.813-75.788-55.776-73.689"/>
		<path fill="#ECEA5A" d="M368.079,293.314c0,0,32.108-50.859,5.369-110.238c0,0,7.602,67.586-49.185,76.608"/>
		<path fill="#ECEA5A" d="M268.591,179.074c0,0,21.215,24.5,53.718-53.548c0,0,7.557,71.328-49.008,146.034"/>
		<path fill="#ECEA5A" d="M301.539,203.422c26.677-21.799,31.831-113.048,31.831-113.048s11.33,114.896-0.378,177.695
			c-1.924,10.318-34.404,0.822-34.404,0.822"/>
		<path fill="#ECEA5A" d="M318.951,246.641c0,0-9.418-37.368,28.97-106.305c0,0-2.325,70.159,26.931,101.469"/>
		<path fill="#ECEA5A" d="M320.458,211.002c0,0,41.05-39.232,41.604-57.918c0,0,17.378,89.383,1.47,105.381"/>
		<path fill="#ECEA5A" d="M258.654,320.23c0,0,17.846-32.625,60.837-19.087c0,0-18.975-30.556-61.319-23.542"/>
		<path fill="#ECEA5A" d="M322.01,276.013c2.016,0.63,23.772,11.114,33.271,31.894c0,0,5.949-23.149-17.224-40.601"/>
		<path fill="#ECEA5A" d="M304.263,286.445c0,0,35.113,2.951,40.169,27.722c0,0,6.185-20.028-11.518-61.857"/>
		<path fill="#ECEA5A" d="M247.636,307.611c0,0,0.276,32.503,12.28,42.969c0,0-12.28-29.331,13.334-48.33"/>
		<path fill="#ECEA5A" d="M282.136,172.75c0,0,23.448-61.995,41.654-68.432c0,0-39.936,86.219-19.724,140.132"/>
	</g>
	<g>
		<path fill="#EFAC8B" d="M197.395,413.638c-4.951,13.733,7.324,28.317,39.468,35.131c32.143,6.813,97.475,8.68,102.426-5.053
			c4.949-13.732-52.356-37.863-84.501-44.677C222.644,392.227,202.344,399.906,197.395,413.638z"/>
		<path fill="#EFAC8B" d="M270.819,435.458c-0.135,13.236,15.433,20.916,46.519,20.818c20.486-0.066,58.146-2.779,73.936-10.273
			c8.17-3.878,7.451-8.158,7.498-12.672c0.042-4.167,1.618-8.058-5.434-11.229c-15.347-6.904-54.137-10.828-75.437-10.76
			C286.815,411.439,270.954,422.221,270.819,435.458z"/>
		<path fill="#EFAC8B" d="M394.295,433.917c-1.153,2.509-1.436,7.168,1.074,8.322l1.38-1.69c2.509,1.154,4.099,1.745,5.251-0.764
			c0,0,6.033-16.437,8.552-20.904c2.108-3.739,6.74-11.207,9.635-14.441c1.227-1.37,5.518-4.868,5.518-4.868
			c1.154-2.51,1.08-4.502-1.43-5.656l0,0c-2.509-1.154-3.45-0.136-6.631,2.453c-1.688,1.373-6.124,6.184-6.124,6.184
			s-5.221,6.028-6.61,8.284C401.578,416.244,394.295,433.917,394.295,433.917z"/>
		<path fill="#EFAC8B" d="M401.771,433.254c-0.75-0.461-4.666,2.751-5.619,4.296l0,0c-0.951,1.544-1.114,3.169-0.363,3.632
			l15.133,9.324c0.752,0.462,3.743,1.365,4.694-0.179l0,0c0.952-1.545-0.109-4.26-1.249-5.414
			C411.317,441.826,401.771,433.254,401.771,433.254z"/>
		<path fill="#EFAC8B" d="M392.072,435.285c-1.527,2.3-2.529,6.859-0.229,8.387l1.625-1.456c2.301,1.529,3.779,2.359,5.307,0.061
			c0,0,8.506-15.305,11.686-19.328c2.663-3.369,8.394-10.029,11.755-12.776c1.424-1.164,6.205-3.955,6.205-3.955
			c1.528-2.301,1.764-4.281-0.537-5.81l0,0c-2.3-1.528-3.388-0.667-6.931,1.397c-1.88,1.096-7.007,5.161-7.007,5.161
			s-6.091,5.147-7.813,7.16C402.004,418.952,392.072,435.285,392.072,435.285z"/>
		<path fill="#565965" d="M387.064,445.458c0.108,4.417,2.728,5.935,7.145,5.828l0,0c4.417-0.107,5.911-3.727,5.803-8.144
			l0.471-21.695c-0.108-4.417-2.728-5.935-7.144-5.827l0,0c-4.417,0.107-6.96,1.752-6.852,6.169L387.064,445.458z"/>
	</g>
	<path fill="#7F2979" d="M219.698,444.49c0,0-34.285-29.453,12.963-47.972c0,0-20.423-3.977-35.966,2.671
		c-12.641,5.406-23.549,25.811-4.744,37.81C198.22,441,207.79,441.072,219.698,444.49z"/>
</g>
<g id="Layer_26">
	<g opacity="0.3">
		<path fill="#ECEA5A" d="M379.12,830.137C487.763,771.669,531,503.342,531,503.342s-33.381,42.749-46.016,55.641
			c-9.329,9.519-40.391,34.796-40.391,34.796l75.469-213.264c0,0-38.478,62.965-52.674,83.035
			c-7.905,11.176-33.83,43.054-33.83,43.054l83.223-270.294c0,0-30.818,66.41-42.299,87.935
			c-5.572,10.446-24.005,40.823-24.005,40.823l39.723-147.071c0,0-22.571,43.445-31.49,57.089
			c-5.656,8.653-25.153,32.822-25.153,32.822l20.879-149.522c0,0-15.725,36.087-22.342,47.392
			c-3.371,5.758-15.476,21.745-15.476,21.745s8.984-45.556,9.804-60.974C427.362,148.91,422.67,96,422.67,96
			s-4.888,22.466-7.794,29.526c-1.844,4.479-9.674,16.789-9.674,16.789l-5-69.315c0,0-11.317,13.901-16.118,17.374
			c-4.682,3.387-21.013,9.626-21.013,9.626l18.828-93c0,0-16.446,30.627-23.068,40.111c-6.01,8.607-26.964,32.193-26.964,32.193
			s-12.387-21.1-16.937-29.003C308.728,39.527,294.416,5,294.416,5s-4.68,38.231-7.058,50.841
			C285.255,66.996,276.798,100,276.798,100s-16.749-25.443-20.978-34.643C250.725,54.274,240.594,19,240.594,19
			s-32.762,137.849-31.293,134.084c0.647-1.659-4.344-23.998-10.132-48.474C191.82,73.528,189.187,36,189.187,36l-7.388,171.319
			c0,0-19.7-26.178-41.356-55.246C113.227,115.542,82.921,58.443,84.749,59c3.281,1,64.364,212.56,64.364,212.56
			s-27.713-39.521-36.184-53.192c-13.903-22.44-51.733-92.053-51.733-92.053l58.503,210.631c0,0-17.163-21.096-35.115-43.14
			c-19.953-24.5-40.88-66.172-40.304-65.356c1.094,1.55,41.562,193.215,41.562,193.215s-24.833-37.282-32.212-50.252
			c-10.127-17.802-36.694-73.246-36.694-73.246L62.984,515c0,0-16.916-20.271-34.004-40.34
			c-17.971-21.105-36.133-57.985-35.012-54.825c2.188,6.165,4.91,168.926,4.91,168.926l-17.382-25.105l-22.528-48.537L2.448,706.314
			"/>
	</g>
</g>
<g id="Layer_20" display="none">
	<g display="inline">
		<linearGradient id="SVGID_1_" gradientUnits="userSpaceOnUse" x1="103.1011" y1="448.2661" x2="411.4009" y2="448.2661">
			<stop  offset="0.5561" style="stop-color:#84D5F7;stop-opacity:0"/>
			<stop  offset="1" style="stop-color:#A2DEF9"/>
		</linearGradient>
		<path fill="url(#SVGID_1_)" d="M409.761,418.073c-0.843-0.59-1.525-0.844-2.236-0.829c0.045-0.036,0.077-0.06,0.077-0.06
			c1.215-2.48,1.189-4.475-1.291-5.689s-3.446-0.22-6.689,2.291c-1.721,1.332-6.272,6.032-6.272,6.032s-5.366,5.899-6.811,8.12
			c-1.238,1.904-3.021,5.366-4.799,9.026c-0.537-3.301-3.001-4.527-6.887-4.527c-3.631,0-6.019,1.073-6.755,3.907
			c-17.838-5.834-49.881-9.627-68.556-10.023c-7.389-0.157-13.921,0.317-19.609,1.299c-0.531-0.237-1.064-0.473-1.599-0.707
			c1.249-4.219,2.517-8.491,3.695-12.456c22.891,6.671,37.668-5.062,37.668-5.062c19.407-24.394,22.526-20.581,30.909-22.962
			c-11.222-13.23-13.273-27.826-11.549-40.783c0.082,0.041,0.162,0.077,0.244,0.118l0.556-4.174c0,0-0.045-0.032-0.116-0.083
			c1.761-8.929,5.132-16.869,8.198-22.728c0.77-2.607,1.456-5.142,2.073-7.614c6.178,17.107,7.845,32.925,7.845,32.925
			c8.933-29.453,4.459-50.162-2.556-63.706c7.802-15.037,24.65-56.41,4.556-104.039c0,0,1.51,17.118-4.224,35.118
			c-0.466-30.155-6.443-65.373-6.443-65.373c-0.349,6.507-5.678,15.393-12.471,24.208c-2.307-20.711-1.362-37.291-1.362-37.291
			c-4.029,6.845-7.559,13.377-10.662,19.598c-0.369-38.713-2.692-69.893-2.692-69.893s-4.119,51.175-17.63,85.721
			c7.408-30.323,5.733-50.843,5.733-50.843c-6.623,14.891-12.732,25.969-18.285,34.173c8.278-30.98,20.272-55.339,20.272-55.339
			c-14.056,4.595-31.964,41.69-39.58,58.812c2.905-39.221,10.184-71.146,10.184-71.146s-19.083,29.068-32.654,70.247
			c1.024-12.766,2.407-21.33,2.407-21.33c-16.998,15.777-25.999,45.979-30.722,71.206c-1.713-8.016-1.804-13.123-1.804-13.123
			c-12.157,17.881-17.293,37.727-18.459,56.92c-3.634-9.124-5.942-16.625-5.942-16.625c-4.667,19.294,11.548,70.456,11.548,70.456
			l0.001-0.001c3.618,14.447,8.043,25.866,10.645,31.978c-0.821,14.954,2.519,19.138,2.519,19.138
			c-1.292-3.102-0.89-7.007,0.406-11.09c3.646,15.223,8.791,26.938,10.492,30.595c-3.618,0.705-7.001,1.088-9.924,1.285
			c-1.265-3.614-2.04-5.784-2.04-5.784s-44.728,19.481-52.306,32.951c-2.506,23.178-1.108,67.823,3.994,89.678
			c2.996,12.833,10.275,41.04,13.754,54.443c-2.769,1.293-4.692,4.094-4.692,7.352c0,2.895,1.519,5.428,3.798,6.865
			c-3.328,6.785-6.062,19.028-3.798,40.906c0,0-8.392,57.97-15.787,64.808c-6.047,5.591-14.31,14.514-18.774,19.626
			c-6.883,7.881-20.511,24.361-24.183,34.16c-2.094,5.587-3.511,22.616-3.511,22.616s3.519,1.449,8.818,3.457l-2.525,6.708
			c-1.323-0.422-2.606-0.805-3.81-1.118c-2.481,1.457,2.095,6.337-0.52,7.618c-12.338,2.868-16.526,16.613-16.526,16.613
			s34.89,26.338,66.639,30.445c-6.977-20.156-14.358-22.286-18.125-33.801c0.089-2.902,4.732-1.127,4.723-4.042
			c-0.915-0.699-1.974-1.432-3.135-2.18l3.879-10.304c5.002,1.228,9.554,2.026,12.949,2.03c0,0,53.524-60.286,57.275-85.059
			c0.102,0.766,0.168,1.494,0.186,2.172c0.217,8.236-7.733,23.148-10.814,30.673c-3.485,8.512-8.598,25.912-7.001,36.116
			c0.92,5.884,9.34,21.96,9.34,21.96s3.892,1.14,9.605,2.474l-0.346,9.56c-0.8,0.011-1.576,0.033-2.321,0.069
			c-1.934,2.13,2.89,5.423,0.776,7.426c-10.922,6.417-9.82,20.786-9.82,20.786s37.981,15.167,69.512,9.619
			c-12.671-17.158-18.131-17.124-25.16-26.992c-0.78-2.797,5.135-2.785,4.257-5.564c-1.498-0.547-3.266-1.071-5.219-1.564
			l0.334-9.241c3.914-0.198,7.319-0.866,9.743-2.222c0,0,22.827-97.597,12.484-118.604c-1.743-3.54-6.392-21.667-12.637-41.526
			c0.001-0.017,0.002-0.034,0.003-0.051l1.919-0.643c3.365-1.128,5.068-5.47,3.804-9.7c-1.123-3.756-4.21-6.152-7.245-5.852
			c-0.715-15.422-5.007-39.018-9.264-56.7c14.759-19.61,26.014-45.649,26.014-45.649l0.655-17.735
			c3.638,0.356,7.555,0.587,11.772,0.677c18.952,0.401,52.647-1.108,70.227-6.966c0.752,2.795,3.134,3.853,6.743,3.853
			c4.201,0,5.834-3.24,5.985-7.356l10.742,6.985c0.74,0.479,3.708,1.455,4.697-0.064c0.989-1.521-0.005-4.261-1.116-5.442
			c-2.119-2.253-7.452-7.354-10.352-10.109c0.537-1.314,1.154-2.81,1.803-4.356c2.004-3.168,3.972-6.136,5.18-7.59
			c2.744-3.303,8.636-9.821,12.063-12.485c1.452-1.128,6.3-3.803,6.3-3.803C411.739,421.631,412.023,419.657,409.761,418.073z"/>
	</g>
</g>
<g id="Layer_18">
</g>
<g id="Layer_27">
</g>
<g id="Layer_19">
	<g opacity="0.8">
		<path fill="#98D8E2" d="M1440,697.765V196.046c0,0-502.083,16.501-669.494,20c-112.906,2.36-217.976,47.349-277.235,79.073
			C629.438,164.846,778.453,155,778.453,155c-109.948-9.403-265.319,82.973-342.877,134.809
			c60.812-79.161,144.812-96.718,144.812-96.718c-71.928-0.969-131.784,44.434-170.702,84.837
			c33.607-58.22,79.416-79.541,79.416-79.541C379.607,210.669,345.175,342.86,323.79,405.579c-0.359,1.052-1.643,4.133-1.643,4.133
			c-0.916,2.828-1.74,5.696-2.458,8.607c-2.408,9.76-3.686,19.966-3.686,30.47c0,19.798,4.541,38.533,12.634,55.228
			c19.805,53.027,75.221,177.758,161.247,187.407c0,0-45.809-21.321-79.417-79.542c38.917,40.404,98.775,85.808,170.703,84.839
			c0,0-84-17.558-144.812-96.719c77.559,51.836,232.93,144.212,342.877,134.809c0,0-149.015-9.846-285.183-140.119
			c59.259,31.725,164.337,76.374,277.235,79.073C938.524,677.763,1440,697.765,1440,697.765z"/>
	</g>
</g>
<g id="Layer_22">
	<g id="XMLID_3_">
		<g>
			<path fill="#3F3332" d="M430.67,896.69c1.76,16.319,3.6,39.319-8.33,52.569c-5.13,5.69-14.68,7.26-21.8,8.54
				c-10.25,1.851-20.79,2.19-31.18,2.36c-21.19,0.33-42.52-0.48-63.69-1.15c-64.65-2.05-129.13-8.58-193.14-17.76
				c-61.67-8.85-124.38-18.54-183.75-37.94c-11.5-3.76-22.61-8.6-34.11-12.319c-9.33-3.03-18.82-5.75-27.76-9.851
				c-7.36-3.38-16.94-9.13-13.93-18.75c1.67-5.35,5.75-10.199,8.24-15.21c2.94-5.92,4.56-12.569,6.05-18.97
				c2.97-12.71,4.49-25.69,7.62-38.37c3.17-12.859,8.72-24.04,17.22-34.21c6.85-8.18,14.85-15.26,21.37-23.729
				c4.55-5.92,7.55-12.48,9.79-19.37c10.69-3.3,21.3-6.931,31.89-10.57c14.31-4.92,28.66-10.15,43.35-13.83
				c13.41-3.36,27.04-5.83,40.73-7.78c28.64-4.08,57.84-5.35,86.72-3.79c13.58,0.73,26.91,2.181,39.99,6.011
				c12.52,3.66,24.36,9.22,35.87,15.27c22.78,11.96,44.39,26.05,68.58,35.17c27.63,10.41,57.92,7.9,86.71,12.32
				c12.32,1.9,26.7,4.7,36.75,12.6c7.52,5.92,11.53,14.57,14.05,23.58c2.77,9.931,3.79,20.3,5.17,30.49
				c1.35,9.98,3.27,19.67,6.06,29.35C424.35,859.44,428.65,877.95,430.67,896.69z"/>
			<path fill="#3F3332" d="M438.19,878.96c3.28,19.31,6.18,40.94,0.48,60.09c-2.27,7.63-6.07,15.65-12.81,20.311
				c-6.93,4.79-15.61,6.97-23.81,8.279c-20.21,3.221-40.77,2.71-61.15,2.16c-59.53-1.6-118.67-4.85-177.84-11.91
				C100.3,950.41,37.27,941.18-24.29,926.69c-14.9-3.511-29.72-7.391-44.31-12.04c-12.39-3.94-24.35-9.03-36.66-13.131
				c-9.12-3.029-18.42-5.619-27.3-9.329c-7.4-3.091-17.17-6.95-21.27-14.45c-2.7-4.94-4.81-10.021-3.45-15.76
				c1.22-5.171,4.18-9.57,6.79-14.131c6.6-11.5,8.84-24.729,11.14-37.64c2.26-12.77,4.45-25.59,9.34-37.67
				c4.61-11.4,12.1-21.17,20.5-30.05c7.19-7.59,15.07-14.83,19.86-24.29c0.36-0.71,0.7-1.431,1.04-2.16
				c-14.66,4.11-29.52,7.39-44.76,9.04c-6.4,0.689-6.34-9.32,0-10c16.66-1.811,32.9-5.75,48.91-10.561
				c2.35-8.35,3.63-17.189,4.46-25.449c2.76-27.86-1.66-55.761-17.19-79.46c-3.54-5.42,5.12-10.42,8.64-5.051
				c20.07,30.631,23.14,68.7,15.5,103.87c-0.2,0.91-0.4,1.811-0.61,2.721c9.36-3.03,18.66-6.25,27.92-9.431
				c14.22-4.89,28.49-10.09,43.13-13.609c12.93-3.11,26.02-5.58,39.19-7.4c28.46-3.95,57.32-5.75,86.04-4.32
				c13.35,0.66,26.92,1.54,39.91,4.87c12.5,3.2,24.52,8.021,36.07,13.73c23.16,11.45,44.69,26.35,68.67,36.109
				c13.36,5.44,26.73,8.391,41.09,9.75c14.92,1.42,29.92,2,44.8,3.9c22.51,2.87,48.77,8.74,59.54,31.13
				c9.01,18.73,8.47,39.99,12.73,59.95C429.23,843.68,435.11,860.91,438.19,878.96z M422.34,949.26
				c11.93-13.25,10.09-36.25,8.33-52.569c-2.02-18.74-6.32-37.25-11.53-55.341c-2.79-9.68-4.71-19.369-6.06-29.35
				c-1.38-10.19-2.4-20.56-5.17-30.49c-2.52-9.01-6.53-17.66-14.05-23.58c-10.05-7.899-24.43-10.699-36.75-12.6
				c-28.79-4.42-59.08-1.91-86.71-12.32c-24.19-9.12-45.8-23.21-68.58-35.17c-11.51-6.05-23.35-11.609-35.87-15.27
				c-13.08-3.83-26.41-5.28-39.99-6.011c-28.88-1.56-58.08-0.29-86.72,3.79c-13.69,1.95-27.32,4.42-40.73,7.78
				c-14.69,3.68-29.04,8.91-43.35,13.83c-10.59,3.64-21.2,7.271-31.89,10.57c-2.24,6.89-5.24,13.45-9.79,19.37
				c-6.52,8.47-14.52,15.55-21.37,23.729c-8.5,10.17-14.05,21.351-17.22,34.21c-3.13,12.68-4.65,25.66-7.62,38.37
				c-1.49,6.4-3.11,13.05-6.05,18.97c-2.49,5.011-6.57,9.86-8.24,15.21c-3.01,9.62,6.57,15.37,13.93,18.75
				c8.94,4.101,18.43,6.82,27.76,9.851c11.5,3.72,22.61,8.56,34.11,12.319c59.37,19.4,122.08,29.091,183.75,37.94
				c64.01,9.18,128.49,15.71,193.14,17.76c21.17,0.67,42.5,1.48,63.69,1.15c10.39-0.17,20.93-0.51,31.18-2.36
				C407.66,956.52,417.21,954.95,422.34,949.26z"/>
		</g>
		<g>
		</g>
	</g>
	<g id="XMLID_4_">
		<g>
			<path fill="#3F3332" d="M1592.43,707c2.38,60.41-7.899,120.51-25.199,178.24c-11.051,36.859-31.79,69.68-60.521,95.29
				c-57.87,51.58-139.34,69.609-214.3,77.6c-39.55,4.21-79.36,5.48-119.11,5.57c-47.87,0.1-95.7-0.66-143.14-7.7
				c-121.141-17.95-234.98-66.6-346.07-116.04c-9.36-4.16-18.75-8.12-28.36-11.47c3.02-1.021,6.02-2.08,9.01-3.17
				c25.85-9.41,50.68-21.37,75.67-32.79c51.57-23.561,105.57-42.851,152.67-75.061c22.61-15.45,41.51-34.62,58.49-56.01
				c16.699-21.04,31.58-43.47,48.21-64.57c34.1-43.25,78.6-77.529,124.529-107.35c46.881-30.42,96.78-56.11,147.841-78.72
				c12.739-5.641,25.319-11.061,39.02-13.88c13.34-2.74,27.08-2.9,40.63-2.91c15.24-0.011,30.19-0.351,45.33-2.23
				c14.21-1.76,28.26-4.51,42.21-7.689c14.01-3.19,27.96-7.801,42.15-10.08c10.29-1.65,20.66,0.72,29.54,5.979
				c19.06,11.311,30.58,34.42,39.489,53.82C1575.52,588.26,1590.07,647.13,1592.43,707z"/>
			<path fill="#3F3332" d="M1597.81,657.21c8.421,58.13,5.421,117.1-6.6,174.521c-9.51,45.46-22.01,90.689-51.06,127.81
				c-22.841,29.19-53.29,51.61-86.601,67.53c-71.78,34.3-153.66,43.22-232.26,45.83c-38.48,1.27-77.14,1.239-115.63-0.03
				c-60.91-2.01-121.26-12.84-179.84-29.39c-58.601-16.561-115.53-38.391-171.57-62.091c-27.98-11.83-55.62-24.42-83.5-36.479
				c-10.65-4.61-21.46-8.28-32.45-11.061c-16.87,4.631-34.18,7.591-51.7,7.221c-6.44-0.141-6.46-10.141,0-10
				c9.1,0.189,18.15-0.5,27.11-1.86c-8.41-1.06-16.95-1.61-25.61-1.64c-6.45-0.03-6.45-10.03,0-10c16.74,0.05,33.57,1.58,49.86,5.6
				c0.48,0.12,0.96,0.26,1.44,0.38c26.75-7.58,52.63-19.72,77.19-31.02c50.891-23.41,104.44-42.7,152.58-71.61
				c24.15-14.51,45.64-31.56,64.08-52.92c17.62-20.42,32.67-42.8,48.83-64.35c16.18-21.57,33.71-41.5,53.77-59.561
				c20.48-18.43,42.341-35.34,65.051-50.93c46.38-31.84,96.05-58.8,147.1-82.34c24.53-11.311,48.79-23.25,76.06-25.771
				c13.91-1.28,27.87-1,41.83-0.97c15.17,0.04,30.5-1.82,45.431-4.44c14.34-2.51,28.51-5.81,42.63-9.31
				c12.319-3.05,25.21-7.73,38.1-6.61c21.71,1.88,37.851,16.15,49.66,33.57c15.22,22.46,25.71,48.45,34.67,73.93
				C1586.2,599.13,1593.57,627.92,1597.81,657.21z M1567.23,885.24c17.3-57.73,27.579-117.83,25.199-178.24
				c-2.359-59.87-16.91-118.74-41.91-173.17c-8.909-19.4-20.43-42.51-39.489-53.82c-8.88-5.26-19.25-7.63-29.54-5.979
				c-14.19,2.279-28.141,6.89-42.15,10.08c-13.95,3.18-28,5.93-42.21,7.689c-15.14,1.88-30.09,2.22-45.33,2.23
				c-13.55,0.01-27.29,0.17-40.63,2.91c-13.7,2.819-26.28,8.239-39.02,13.88c-51.061,22.609-100.96,48.3-147.841,78.72
				c-45.93,29.82-90.43,64.1-124.529,107.35c-16.63,21.101-31.511,43.53-48.21,64.57c-16.98,21.39-35.88,40.56-58.49,56.01
				c-47.1,32.21-101.1,51.5-152.67,75.061c-24.99,11.42-49.82,23.38-75.67,32.79c-2.99,1.09-5.99,2.149-9.01,3.17
				c9.61,3.35,19,7.31,28.36,11.47c111.09,49.44,224.93,98.09,346.07,116.04c47.439,7.04,95.27,7.8,143.14,7.7
				c39.75-0.09,79.561-1.36,119.11-5.57c74.96-7.99,156.43-26.02,214.3-77.6C1535.44,954.92,1556.18,922.1,1567.23,885.24z"/>
		</g>
		<g>
		</g>
	</g>
</g>
</svg>
