<?xml version="1.0" encoding="utf-8"?>
<!-- Generator: Adobe Illustrator 16.0.0, SVG Export Plug-In . SVG Version: 6.00 Build 0)  -->
<!DOCTYPE svg PUBLIC "-//W3C//DTD SVG 1.1//EN" "http://www.w3.org/Graphics/SVG/1.1/DTD/svg11.dtd">
<svg version="1.1" xmlns="http://www.w3.org/2000/svg" xmlns:xlink="http://www.w3.org/1999/xlink" x="0px" y="0px" width="1440px"
	 height="900px" viewBox="0 0 1440 900" enable-background="new 0 0 1440 900" xml:space="preserve">
<g id="Layer_2">
	<rect x="-37.574" y="-67.143" fill="#5AAF46" width="1548.572" height="1034.286"/>
</g>
<g id="Layer_1">
	<g>
		<path fill="none" stroke="#EAD2A8" stroke-miterlimit="10" d="M756.697,450.615c-11.946-9.827-27.227-15.732-43.895-15.732
			c-22.089,0-41.759,10.36-54.422,26.494c-9.209,11.744-14.698,26.543-14.698,42.624c0,34.988,25.993,63.901,59.711,68.489
			c3.085,0.417,6.223,0.631,9.409,0.631c16.668,0,31.949-5.903,43.895-15.731"/>
		<path fill="none" stroke="#EAD2A8" stroke-miterlimit="10" d="M756.697,450.615c-15.416,12.663-25.242,31.883-25.242,53.386
			c0,21.509,9.826,40.727,25.242,53.389c11.931,9.828,27.211,15.731,43.878,15.731c2.053,0,4.087-0.081,6.09-0.263
			c35.319-3.089,63.031-32.736,63.031-68.857c0-16.981-6.123-32.531-16.3-44.56c-12.664-15.016-31.634-24.559-52.821-24.559
			C783.908,434.883,768.628,440.788,756.697,450.615z"/>
	</g>
	<path fill="#EAC07C" d="M936.714,472.404c12.18,20.922,6.975,71.74-35.835,88.622c0,0,9.274,35.87-35.838,63.316
		c0,0,17.552,116.052-109.111,75.96l13.847-34.785c25.493-1.202,49.118-7.175,60.112-18.47c3.771-3.871,6.79-10.31,9.225-18.203
		c6.773-21.902,8.994-55.003,9.709-75.358c12.882-12.545,20.874-30.08,20.874-49.485c0-16.981-6.123-32.531-16.3-44.56
		C864.873,443.108,898.476,406.838,936.714,472.404z"/>
	<g>
		<path fill="#EAC07C" d="M769.776,665.518l-13.847,34.785h-0.768l-14.348-35.42C750.357,665.752,760.201,665.967,769.776,665.518z"
			/>
		<path fill="#EAC07C" d="M740.814,664.883l14.348,35.42c-126.68,40.092-109.111-75.96-109.111-75.96
			c-45.129-27.446-35.837-63.316-35.837-63.316c-42.826-16.882-48.032-67.7-35.836-88.622
			c47.314-81.149,83.101-13.264,83.101-13.264l0.901,2.236c-9.209,11.744-14.698,26.543-14.698,42.624
			c0,20.722,9.126,39.325,23.574,51.987c-0.033,20.556,1.084,52.019,7.291,72.856c2.418,8.093,5.605,14.583,9.792,18.203
			C695.468,656.641,717.19,662.747,740.814,664.883z"/>
	</g>
	<g>
		<path fill="#301415" d="M849.175,535.418c0,0,0.034,7.224-0.353,18.068c-11.093,10.828-25.808,17.951-42.157,19.372
			c-2.003,0.182-4.037,0.263-6.09,0.263c-16.667,0-31.947-5.903-43.878-15.731c-11.946,9.828-27.227,15.731-43.895,15.731
			c-3.186,0-6.324-0.214-9.409-0.631c-13.748-1.871-26.21-7.774-36.137-16.502c0.016-12.212,0.45-20.57,0.45-20.57l98.784-52.352
			L849.175,535.418z"/>
		<path fill="#301415" stroke="#301415" stroke-miterlimit="10" d="M848.822,553.486c-0.715,20.355-2.936,53.456-9.709,75.358
			c-15.883-6.903-32.916-10.709-49.782-12.459l17.334-43.527C823.015,571.438,837.729,564.314,848.822,553.486z"/>
		<path fill="#301415" stroke="#301415" stroke-miterlimit="10" d="M806.665,572.858l-17.334,43.527
			c-24.059-2.503-47.783-0.834-67.354,2.018l-18.584-45.913c3.085,0.417,6.223,0.631,9.409,0.631
			c16.668,0,31.949-5.903,43.895-15.731c11.931,9.828,27.211,15.731,43.878,15.731C802.628,573.121,804.662,573.04,806.665,572.858z
			"/>
		<path fill="#301415" stroke="#301415" stroke-miterlimit="10" d="M703.394,572.49l18.584,45.913
			c-27.944,4.036-47.43,10.441-47.43,10.441c-6.207-20.838-7.324-52.301-7.291-72.856
			C677.183,564.716,689.646,570.619,703.394,572.49z"/>
	</g>
	<path fill="#FFFFFF" d="M686.02,567.729c0,0,6.552,32.967,17.374,40.75c0,0-5.304-33.776,9.409-35.358"/>
	<path fill="#FFFFFF" d="M827.361,567.729c0,0-6.553,32.967-17.375,40.75c0,0,5.303-33.776-9.409-35.358"/>
	<g>
		<path fill="#ED1E25" d="M758.146,615.561c4.866,0,9.732,0,14.599,0c0.936,0.428,1.922,0.102,2.881,0.203c0.662,0,1.324,0,1.986,0
			c0.669,0,1.336,0,2.005,0c20.174-0.033,39.498,4.15,58.203,11.413c2.85,1.109,3.126,1.426,2.476,4.276
			c-2.242,9.84-7.558,17.541-16.484,22.691c-8.932,5.159-18.729,7.808-28.748,9.864c-9.035,1.852-18.19,2.153-27.369,2.203
			c-1.194,0-2.387,0-3.578,0c-2.48,0-4.957,0-7.434,0c-1.309,0-2.617,0-3.924,0c-15.688,0.211-31.068-1.788-46.065-6.394
			c-7.834-2.405-15.411-5.435-21.937-10.477c-6.18-4.771-9.583-11.201-10.744-18.821c-0.03-0.205-0.083-0.381-0.204-0.544
			c0-0.267,0-0.533,0-0.801c0.676-1.024,1.739-1.415,2.859-1.741c12.116-3.532,24.437-6.171,36.885-8.267
			c6.449-1.085,12.911-2.117,19.424-2.685c5.771-0.505,11.573-0.704,17.373-0.72c0.695,0,1.388,0,2.082,0c0.8,0,1.599,0,2.396,0
			C755.932,615.658,757.063,615.984,758.146,615.561z"/>
	</g>
	<g>
		<path fill="#EAD2A8" d="M797.841,434.448c2.135,0,4.27,0,6.406,0c1.067,0.328,2.135,0.328,3.202,0c0.134,0,0.266,0,0.4,0
			c3.731,0.547,7.538,0.455,11.225,1.486c10.57,2.955,20.087,7.838,28.364,15.103c2.31,2.029,4.737,3.967,6.462,6.518
			c6.624,9.789,13.1,19.672,15.366,31.585c0.761,4.009,0.883,8.067,0.845,12.136c0.115,2.418-0.24,4.843,0.201,7.25
			c0,0.398,0,0.8,0,1.199c-0.384,1.886-0.28,3.816-0.496,5.718c-1.273,11.147-5.612,21.116-12.218,30.024
			c-10.925,14.734-25.369,24.172-43.506,27.628c-2.919,0.558-5.831,1.317-8.848,1.296c-0.772,0-1.543,0-2.314,0
			c-1.372,0-2.742,0-4.111,0c-0.664,0-1.329,0-1.991,0c-13.834,0.275-25.92-4.676-37.037-12.456
			c-4.02-2.811-2.921-2.636-6.594-0.101c-9.683,6.688-20.315,10.926-32.034,12.023c-20.104,1.888-38.156-3.17-53.64-16.483
			c-11.002-9.464-18.224-21.262-22.054-35.219c-0.906-3.297-0.748-6.711-1.388-10.028c0-4.403,0-8.81,0-13.213
			c0.41-0.662,0.109-1.394,0.201-2.084c0.096-10.102,3.457-19.248,8.546-27.76c10.994-18.378,27.167-29.553,48.169-33.564
			c6.032-1.154,12.229-0.87,18.348-0.555c13.177,0.679,24.881,5.482,35.46,13.203c1.218,0.887,2.133,0.865,3.358-0.081
			c7.875-6.078,16.713-10.167,26.369-12.511c3.061-0.743,6.197-0.753,9.315-0.913c0.624,0,1.25,0,1.873,0
			C796.426,434.556,797.167,434.858,797.841,434.448z"/>
		<path fill-rule="evenodd" clip-rule="evenodd" fill="#F0E0C4" d="M807.449,434.448c-1.067,0.633-2.135,0.576-3.202,0
			C805.314,434.448,806.382,434.448,807.449,434.448z"/>
		<path fill-rule="evenodd" clip-rule="evenodd" fill="#EFDDBE" d="M795.816,434.829c0.012-0.126,0.02-0.253,0.021-0.381
			c0.667,0,1.334,0,2.003,0C797.251,435.029,796.51,434.803,795.816,434.829z"/>
	</g>
	<path fill="#FFFFFF" d="M717.552,632.952c-10.892,12.311-11.183,24.024-11.029,27.248c0.697,0.226,1.401,0.433,2.124,0.575
		c0.135,0.03,0.262,0.073,0.392,0.104c2.639,0.477,5.232,1.269,7.868,1.773c1.759,0.339,3.519,0.678,5.277,1.016l2.507,0.41
		C712.364,657.394,717.552,632.952,717.552,632.952z"/>
	<path fill="#FFFFFF" d="M796.472,633.753c10.889,12.311,11.182,24.025,11.025,27.248c-0.698,0.226-1.398,0.433-2.123,0.577
		c-0.134,0.029-0.264,0.071-0.393,0.104c-2.639,0.475-5.229,1.268-7.865,1.772c-1.761,0.339-3.521,0.677-5.279,1.017l-2.506,0.411
		C801.656,658.196,796.472,633.753,796.472,633.753z"/>
	<g>
		<path fill-rule="evenodd" clip-rule="evenodd" fill="#EAD2A8" d="M817.053,429.806c0.101-2.722-0.636-5.26-2.332-7.708
			c-2.893-4.178-7.123-7.384-12.129-10.062c-7.917-4.233-16.844-6.638-26.203-8.289c-4.876-0.861-9.829-1.114-14.786-1.416h-5.205
			c-0.667,0.248-1.334,0.248-2.001,0h-2.403c-2.212,0.327-4.476,0.191-6.701,0.418c-5.289,0.539-10.486,1.392-15.567,2.633
			c-9.768,2.383-18.756,5.78-25.712,11.675c-3.585,3.038-6.606,6.346-6.668,10.678c-0.096,0.521,0.213,1.072-0.208,1.567v5.055
			c0,0.021,0,0.041,0,0.062v0.642c0.561,0.095,0.393,0.465,0.457,0.731c0.64,2.677,1.405,5.333,2.611,7.9
			c8.261,17.593,21.785,32.534,39.903,45.122c4.677,3.251,9.938,5.869,15.755,7.796c0.277,0.02,0.543,0.051,0.808,0.088
			c0.463-0.062,0.942-0.106,1.455-0.112c0.233-0.141,0.615-0.178,0.866-0.26c6.014-1.964,11.204-4.867,15.981-8.187
			c14.611-10.158,25.855-22.194,34.319-35.736c3.978-6.36,7.016-12.948,7.642-20.052C817.189,431.51,816.99,430.655,817.053,429.806
			z"/>
		<path fill-rule="evenodd" clip-rule="evenodd" fill="#EAD2A8" d="M816.916,429.593c0.115-0.001,0.229,0.003,0.343,0.014
			c0,0.909,0,1.818,0,2.727l-0.161,0.031l-0.163-0.013C816.928,431.433,816.921,430.513,816.916,429.593z"/>
		<path fill-rule="evenodd" clip-rule="evenodd" fill="#EAD2A8" d="M756.397,402.332c-0.667,0.426-1.334,0.476-2.001,0
			C755.063,402.332,755.73,402.332,756.397,402.332z"/>
		<path fill-rule="evenodd" clip-rule="evenodd" fill="#EAD2A8" d="M697.137,427.789c0.097-0.076,0.209-0.092,0.336-0.05
			c0.137,0.552,0.184,1.093-0.336,1.565C697.137,428.798,697.137,428.294,697.137,427.789z"/>
	</g>
	<path fill-rule="evenodd" clip-rule="evenodd" d="M734.363,426.208c-5.23-6.147-11.854-3.621-18.025-1.426
		c-4.066,1.447-2.334,9.15,1.751,7.697c3.457-1.229,8.557-4.223,11.616-0.627C732.753,435.436,737.416,429.797,734.363,426.208z"/>
	<path fill-rule="evenodd" clip-rule="evenodd" d="M779.658,426.208c5.23-6.147,11.853-3.621,18.024-1.426
		c4.065,1.447,2.334,9.15-1.749,7.697c-3.458-1.23-8.558-4.223-11.618-0.627C781.268,435.436,776.604,429.797,779.658,426.208z"/>
	<path fill="#ED1E25" d="M806.176,357.811"/>
	<path fill="#ED1E25" d="M810.749,348.562"/>
	<path fill="#ED1E25" d="M778.972,339.639"/>
	<path fill="#FFFFFF" d="M818.583,376.648c0.863,0.83,1.786,1.622,2.748,2.377c6.943-1.806,13.844-0.445,20.894-1.299
		c8.79-1.064,15.287-4.685,23.317-8.896c7.152-3.753,12.707,8.278,9.421,15.647c-12.987,29.121-45.448,29.147-64.802,10.567
		C801.676,386.896,809.975,368.385,818.583,376.648z"/>
	<path d="M837.31,384.827c7.238,0,7.238,11.222,0,11.222C830.076,396.049,830.076,384.827,837.31,384.827z"/>
	<g>
		<path fill="#ED1E25" d="M778.039,374.992c-0.852,6.502,16.856,20.099,16.856,20.099s92.43-34.405,105-25.869
			c0,0-3.337-45.087-24.251-47.783C854.729,318.746,781.548,348.237,778.039,374.992z"/>
		<path fill="#ED1E25" d="M889.793,358.223l17.237,14.136c0,0-5.322-35.102-25.421-27.884"/>
		<path fill="#ED1E25" d="M893.789,349.862l17.237,14.134c0,0-5.319-35.102-25.421-27.883"/>
		<path fill="#ED1E25" d="M890.045,340.126l22.26,2.741c0,0-23.604-26.708-36.66-9.964"/>
		<path fill="#ED1E25" d="M883.936,332.301l22.213-3.28c0,0-30.036-19.423-38.062,0.157"/>
	</g>
	<g>
		<path fill="#ED1E25" d="M707.193,357.498"/>
		<path fill="#ED1E25" d="M702.621,348.249"/>
		<path fill="#FFFFFF" d="M694.786,376.335c-0.864,0.831-1.786,1.622-2.75,2.377c-6.943-1.806-13.841-0.445-20.892-1.299
			c-8.792-1.064-15.289-4.684-23.318-8.896c-7.154-3.755-12.708,8.277-9.42,15.646c12.986,29.122,45.446,29.147,64.799,10.567
			C711.694,386.583,703.395,368.072,694.786,376.335z"/>
		<path d="M676.057,384.515c-7.237,0-7.237,11.222,0,11.222C683.292,395.737,683.292,384.515,676.057,384.515z"/>
		<g>
			<path fill="#ED1E25" d="M735.33,374.678c0.853,6.503-16.858,20.1-16.858,20.1s-92.43-34.406-105-25.87
				c0,0,3.337-45.086,24.252-47.782C658.64,318.433,731.82,347.923,735.33,374.678z"/>
			<path fill="#ED1E25" d="M623.576,357.911l-17.236,14.135c0,0,5.32-35.102,25.418-27.884"/>
			<path fill="#ED1E25" d="M619.581,349.548l-17.238,14.135c0,0,5.32-35.102,25.42-27.884"/>
			<path fill="#ED1E25" d="M623.325,339.813l-22.263,2.741c0,0,23.605-26.708,36.662-9.964"/>
			<path fill="#ED1E25" d="M629.433,331.988l-22.211-3.28c0,0,30.036-19.422,38.061,0.157"/>
		</g>
	</g>
	<path fill="#ED1E25" d="M797.277,302.927c0,0-21.999,10.501-61.919-21.062c0,0,50.886-76.052,100.913-63.817
		C836.271,218.047,770.776,283.327,797.277,302.927z"/>
	<path fill="#5AAF46" d="M518.772,132.226"/>
	<path fill="#ED1E25" d="M721.397,273.164c0,0,27.192,44.569,75.88,29.763c0,0-19.601-89.382-70.641-96.26
		C726.637,206.667,753.226,264.594,721.397,273.164z"/>
	<path fill="#ED1E25" d="M705.935,305.6c0,0,38.085,17.467,63.849-14.224c0,0-53.132-50.695-90.186-32.381
		C679.597,258.996,723.272,285.622,705.935,305.6z"/>
	<path fill="#ED1E25" d="M698.208,319.645c0,0,33.579,5.964,47.389-24.275c0,0-52.234-29.062-77.676-7.05
		C667.92,288.32,707.778,300.357,698.208,319.645z"/>
	<path fill="#FAF5AC" d="M615.607,287.304c0,0-83.083-62.808-51.776-103.134c0,0-60.206,57.855,13.245,141.216"/>
	<path fill="#FAF5AC" d="M898.314,289.304c0,0,83.083-62.808,51.775-103.134c0,0,60.206,57.855-13.244,141.216"/>
	<path fill="#F7941E" d="M895.199,283.781c-3.512,3.479-3.059,9.628,1.005,13.732l30.565,30.845
		c4.068,4.104,10.211,4.611,13.722,1.132l0,0c3.512-3.479,3.061-9.627-1.005-13.73l-30.565-30.845
		C904.853,280.809,898.713,280.302,895.199,283.781L895.199,283.781z"/>
	<path fill="#F7941E" d="M619.99,283.309c3.511,3.479,3.06,9.628-1.006,13.732l-30.564,30.845
		c-4.068,4.104-10.21,4.611-13.723,1.132l0,0c-3.511-3.479-3.06-9.627,1.006-13.731l30.565-30.844
		C610.336,280.338,616.477,279.831,619.99,283.309L619.99,283.309z"/>
	<path fill="#ED1E25" d="M698.208,319.645c0,0,67.847,19.959,99.069-16.718L727,296.25L698.208,319.645z"/>
	<line fill="none" x1="619.99" y1="285.309" x2="895.199" y2="283.781"/>
</g>
</svg>
