<?xml version="1.0" encoding="utf-8"?>
<!-- Generator: Adobe Illustrator 16.0.0, SVG Export Plug-In . SVG Version: 6.00 Build 0)  -->
<!DOCTYPE svg PUBLIC "-//W3C//DTD SVG 1.1//EN" "http://www.w3.org/Graphics/SVG/1.1/DTD/svg11.dtd">
<svg version="1.1" id="Layer_1" xmlns="http://www.w3.org/2000/svg" xmlns:xlink="http://www.w3.org/1999/xlink" x="0px" y="0px"
	 width="1440px" height="900px" viewBox="145 36.5 1440 900" enable-background="new 145 36.5 1440 900" xml:space="preserve">
<g id="Layer_46">
	<rect fill="#CBE8F9" width="1730" height="973"/>
</g>
<g id="Layer_80">
	<path opacity="0.5" fill="#6E917B" enable-background="new    " d="M1218,177c0,0,141.812-9.5,155.656-6.5s129.008-17.5,176.176-11
		S1598.5,148.5,1730,148v85.125l-511.75,39.953L1218,177z"/>
</g>
<g id="Layer_1_1_" display="none">
</g>
<g id="Layer_87">
	<path fill="#B5C2C6" d="M1585.922,239.308c1.232-10.271,2.432-20.483,4.358-30.652c1.476-7.791,2.866-15.569,2.799-23.448
		c-6.024,0.13-39.803,0.818-42.079-0.02c-2.5-0.92-5.442-13.754-5.442-13.754l-38.888,5.174l-3.842,20.821h-51.742l-2.73-9.256
		l-35.022,5.314l-24.652,2.409c0.141,28.367,2.009,56.639,6.928,84.587l186.499-9.38L1585.922,239.308z"/>
	<path fill="#A8B0B2" d="M1600.254,209.567c-2.111,11.145-3.441,22.329-4.793,33.587c-1.097,9.142-2.134,18.29-3.172,27.436
		L1751,262.607l-11.857-99.125l-64.643,7.951v38.174l-45.25,27.5l-26.963-39.714
		C1601.753,201.472,1601.018,205.534,1600.254,209.567z"/>
	<path fill="#8E9DA0" d="M1378.686,196.871l-21.186,2.07l-32.25-5.456l-87.25,5.456l-32,91.077l179.588-9.032
		C1380.822,253.184,1378.869,225.076,1378.686,196.871z"/>
</g>
<g id="Layer_85">
</g>
<g id="Layer_86">
	<g>
		<polyline fill="#C19C9C" points="1621.25,212 1680.932,188.667 1741.25,204 1741.25,240.333 1618.291,243.998 		"/>
		<polygon fill="#D1D4D4" points="1660,210.539 1684.875,197 1702.641,210.539 		"/>
		<polyline fill="#8E9097" points="1647.5,233.125 1660,210.539 1702.641,210.507 1722.02,233.748 		"/>
	</g>
</g>
<g id="Layer_84">
	<path fill="#598A87" d="M1524.75,239.75c3.939-2.828-42.567-36.641-45.75-42.075c-3.092-5.277-24.007,0.568-28.95,0.583
		c-9.491,0.029-19.351-0.071-28.593,2.325c-10.078,2.613-20.088,2.665-30.457,2.667c-5.626,0.001-11.059,0.259-16.473,0.92
		c0.763-2.869-1.267-6.276-4.777-6.42c-9.205-0.378-18.274,0.606-26.778,4.284c-4.135,1.788-7.613,4.806-10.178,8.46
		c-1.494,2.131-2.062,4.457-3.955,6.343c-1.728,1.722-4.315,1.693-6.544,1.554c-9.406-0.59-17.098-7.354-25.232-11.142
		c-3.909-1.819-7.815-2.385-11.992-1.716c-2.062,0.105-4.128,0.231-6.066,0.979c-0.048,0.019-0.094,0.041-0.141,0.06
		c-2.364,0.342-4.7,0.974-6.993,1.695c-8.428,2.648-15.025,7.669-16.691,16.737c-0.766,4.166,3.186,6.752,6.287,6.198
		c0.498,3.24,1.996,5.918,5.456,6.87c1.811,0.498,3.534,0.291,5.145-0.388c0.606,1.041,1.561,1.858,2.855,2.138
		c6.448,1.394,12.441-0.75,18.422-3.035c4.362-1.667,9.264-2.61,13.084-5.417c2.27-1.667,3.353-3.896,3.233-6.158
		c2.844,1.046,5.799,1.885,8.615,2.565c4.262,1.029,9.006,1.042,13.032-0.841c1.139-0.532,2.127-1.15,3.016-1.835
		c1.046,1.401,2.79,2.184,5.006,1.471c3.518-1.132,6.416-3.135,9.552-5.03c3.468-2.095,7.778-3.15,11.636-4.282
		c8.258-2.423,16.358-3.82,24.967-3.983c8.751-0.166,17.475,0.061,26.211-0.631c1.338-0.106,2.642-0.285,3.935-0.494
		c0.481,1.704,1.85,3.21,3.543,3.671c4.966,1.351,10.021,1.477,15.103,1.087c3.097,1.312,6.318,2.373,9.63,2.937
		c4.207,0.716,25.858,29.363,29.319,27.717 M1345.288,211.89c1.134-0.66,2.38-1.201,3.649-1.65
		C1347.744,210.878,1346.518,211.4,1345.288,211.89z"/>
	<g>
		<polygon fill="#F3F1E7" points="1452.104,243.998 1452.104,233.748 1499.354,229.724 1523.604,229.724 1523.604,235.998 
			1507.395,241.248 		"/>
		<polyline fill="#A18D9A" points="1465.104,225.967 1510.354,219.728 1523.604,229.724 1452.104,233.748 		"/>
	</g>
</g>
<g id="Layer_83">
	<path fill="#598A87" d="M1591.273,191.433c-6.7-5.053-14.41-7.291-22.773-6.433c-2.083,0.214-4.402,1.351-4.821,3.671
		c-0.306,1.693-6.975,3.644-8.579,4.377c-4.501,2.059-7.68,5.357-8.64,10.334c-0.721,3.734,1.214,9.278,0.425,13.329
		c-7.039-6.826-19.295-3.286-24.536,5.098c-4.73,7.568-7.529,22.241,2.655,26.345c5.807,2.339,8.402-6.694,3.166-9.409
		c0.027,0,0.053,0.005,0.08,0.005c1.651,0,2.862-0.667,3.666-1.643c5.25,0.257,10.589,0.811,15.68,0.284
		c-0.41,1.221-0.729,2.477-0.917,3.78c-0.502,3.503,2.132,7.429,6.15,6.15c4.812-1.529,7.887-5.916,10.518-10.044
		c2.083,1.005,4.382,0.803,6.645-1.808c3.912-4.517,3.914-11.543,3.51-17.219c-0.18-2.52-1.914-4.262-3.927-4.776
		c0.003-2.065-0.316-4.097-1.016-6.012c0.523-0.481,1.039-0.971,1.554-1.466c1.386-0.765,2.701-1.404,3.727-1.9
		c3.468-1.677,6.476-3.661,8.208-6.672c1.404,0.729,2.791,1.596,4.182,2.644C1591.379,203.954,1596.354,195.264,1591.273,191.433z"
		/>
	<path fill="#598A87" d="M1733.193,190.055c0.807-9.022,2.598-18.005,2.27-27.081c-0.242-6.697-3.92-12.665-10.883-13.382
		c-2.416-0.249-4.45,0.373-6.077,1.538c-0.729,0.005-1.496,0.171-2.276,0.553c-5.406,2.642-8.439,10.244-10.459,15.53
		c-2.851,7.46-3.141,16.206-3.395,24.097c-0.294,9.149-0.014,18.319,0.938,27.423c0.721,6.9,1.358,15.122,6.903,20.053
		c2.581,2.295,7.608,1.734,8.356-2.207c0.781-4.123,1.574-8.243,2.359-12.364c2.223,1.827,6.282,1.765,7.637-1.191
		c1.907-4.167,3.493-8.289,4.141-12.849c0.037-0.266,0.056-0.534,0.086-0.801c1.521-0.369,2.889-1.415,3.527-3.294
		C1738.402,199.958,1736.227,195.142,1733.193,190.055z"/>
</g>
<g id="Layer_82">
	<polygon fill="#DBDFD8" points="1609,180.878 1609,170.25 1590.625,171 1587.829,178 	"/>
	<polygon fill="#6F92A3" points="1596.75,102.75 1593.82,158.707 1592,145.25 1590,163 1587.75,154 1584.5,186.334 1590.625,171 
		1609,170.25 1603.244,141.75 1601.665,157.449 	"/>
	<polyline fill="#E6EADE" points="1568.667,237 1568.667,198.333 1587,180.333 1609,195.667 1609,237 	"/>
	<polygon fill="#CFBFBC" points="1625.125,192.334 1605.667,197 1583.667,178 1601.665,175.667 	"/>
	<polyline fill="#CFBFBC" points="1565.432,199.334 1583.667,178 1586.368,180.333 1570.001,199.334 	"/>
	<polyline fill="#E0E3D8" points="1606.25,233.125 1605.667,197 1625.125,192.334 1625.125,232 	"/>
</g>
<g id="Layer_81">
	<g>
		<polyline fill="#D7B6BE" points="1422.5,210.539 1422.5,194.75 1415.75,183 1401.25,183 1399.25,177.75 1369.835,179 
			1338.25,226.75 1423.75,222.726 		"/>
		<polyline fill="#C5C4C6" points="1367,210.539 1367,179 1388.5,179 1388.5,212 		"/>
		<path fill="#CFC0C6" d="M1376.25,137.75c0.166,13.125-6.415,26.25-6.415,26.25H1383C1383,164,1377.75,150.875,1376.25,137.75z"/>
		<polyline fill="#CFC0C6" points="1369.835,164 1369.835,170.091 1364.25,179 1391.349,179 1383,169.5 1383,164 		"/>
	</g>
</g>
<g id="Layer_78">
	<polyline fill="#CAC9CC" points="1433.332,237.333 1516.998,237 1516.998,305.016 1411.332,277.411 	"/>
	<polygon fill="#D69E9C" points="1467.999,243.458 1487.854,242.5 1487.854,254.958 1463.999,256.471 	"/>
</g>
<g id="Layer_79">
	<g>
		<polyline fill="#E3DFE1" points="1516.998,237 1488.332,235.666 1486.666,259.458 1519.501,259.458 		"/>
		<polyline fill="none" stroke="#BB9CA5" stroke-miterlimit="10" points="1515.25,246.75 1501.999,235.666 1491.332,249.666 		"/>
	</g>
</g>
<g id="Layer_14">
	<polyline fill="#B97E80" points="1516.998,237 1588.332,235.666 1601.665,285.074 1516.998,294.75 	"/>
	<g>
		<path fill="#D1BFB5" d="M1270.6,235.695L1350.001,221l25.333-17L1403,216c0,0,40.375-1,43.354,1.333
			c2.979,2.333,34.556,18.723,35.223,20.723s-150.575,54.412-150.575,54.412H1258"/>
		<path fill="#B4B3B4" d="M1389.75,242.75c0,0-37.75,5.5-39.75,7s34.344,11.333,34.344,11.333"/>
		<path fill="#E2E0D5" d="M1323.25,279.5c0,0,14.75-18.334,17.75-18.417s-4.938,23.991-4.938,23.991"/>
		<polyline fill="#E2E0D5" points="1267.75,255 1291.25,250 1285.441,268.917 		"/>
		<polygon fill="#EDF3EC" points="1320.5,229 1305.36,229 1306.75,221.25 1320.5,220 		"/>
	</g>
	<g id="Layer_41">
		<path fill="#3F513A" d="M426.803,219.386c-5.479-11.811-17.893-21.039-28.138-28.491c-11.207-8.152-23.49-14.757-35.815-21.033
			c-20.284-10.328-42.369-17.342-65.312-17.61c-20.202-0.235-40.218,7.414-47.573,26.499c-20.568,2.994-38.989,13.457-52.654,29.401
			c-14.083,16.432-25.57,41.097-21.968,63.166c3.622,22.184,22.145,36.911,40.887,46.875c24.47,13.008,51.472,20.169,78.937,23.021
			c14.658,1.522,29.456,1.567,44.148,0.556c11.887-0.817,23.671-2.175,34.856-6.485c19.699-7.594,34.374-23.115,43.145-42.075
			c5.266-11.385,8.567-23.845,11.434-36.019C431.751,244.439,432.42,231.496,426.803,219.386z"/>
	</g>
	<g id="Layer_38">
		<path fill="#386853" d="M1296.322,264.788c-4.896-3.155-11.685-3.5-16.15,0.303c-0.094-0.707-0.139-1.425-0.207-2.097
			c-0.301-2.969-0.591-5.722-1.611-8.529c-4.012-11.024-8.34-22.322-15.865-31.475c-5.907-7.186-13.602-8.873-20.555-5.782
			c0.228-10.247,3.271-20.498,0.875-30.864c-2.347-10.151-10.271-20.175-20.645-22.663c-10.477-2.513-19.669,4.163-25.568,12.153
			c-2.013,2.728-4.091,9.796-8.266,8.68c-4.499-1.203-7.907-8.044-10.388-11.569c-7.625-10.836-18.693-18.006-28.797-26.285
			c-11.367-9.314-21.203-20.35-31.171-31.098c-19.237-20.747-37.051-42.719-60.712-58.669
			c-20.87-14.068-45.551-21.874-69.962-27.084c-12.378-2.642-24.906-4.505-37.447-6.173c-12.655-1.683-25.91-2.018-38.156-5.786
			C899.91,14.224,889.27,7.438,878.496,1.61c-11.595-6.272-23.403-11.01-36.479-13.042c-24.791-3.853-49.762,0.868-74.652,0.497
			c-1.229-4.773-3.309-9.275-6.829-13.265c-4.274-4.845-11.32,2.255-7.071,7.071c1.52,1.722,2.646,3.646,3.487,5.707
			c-0.873-0.072-1.746-0.152-2.618-0.242c-6.413-0.663-6.349,9.344,0,10c1.59,0.164,3.18,0.291,4.772,0.396
			c0.452,6.035-0.068,12.338,0.099,17.806c0.378,12.405,4.751,23.67,11.492,33.974c6.878,10.513,15.225,19.849,21.562,30.748
			c6.635,11.408,14.479,22.092,22.906,32.232c34.273,41.245,81.743,73.734,131.102,94.21c29.233,12.127,59.719,20.896,89.33,32.009
			c28.507,10.698,55.28,25.462,84.068,35.481c13.826,4.812,28.253,8.445,42.82,10.063c15.202,1.688,30.777-0.129,46.062,0.894
			c7.596,0.508,15.075,1.726,22.43,3.683c7.306,1.944,14.135,5.271,21.546,6.876c10.434,2.259,21.118-1.14,31-4.356
			c5.149-1.676,11.938-3.736,15.127-8.492C1302.729,277.778,1303.15,269.189,1296.322,264.788z"/>
	</g>
	<g id="Layer_37">
		<path fill="#203E32" d="M1158.457,250.844c-16.08-17.809-39.596-27.228-58.546-41.421c-10.896-8.161-22.042-14.954-34.365-20.793
			c-12.64-5.989-25.705-11.027-38.345-17.012c-23.682-11.214-46.477-27.514-73.534-28.616c-0.179-0.007-0.351-0.004-0.521,0.004
			c-3.129-2.946-9.698-0.245-8.302,4.991c3.979,14.918,0.634,29.822-0.565,44.868c-0.928,11.632,0.75,23.313,4.641,34.298
			c7.377,20.823,22.506,37.948,39.133,52.016c16.653,14.089,35.381,25.5,54.333,36.185c11.214,6.32,21.493,14.565,34.061,18.104
			c13.416,3.778,28.409,1.865,42.064,0.832c11.809-0.893,25.02,1.379,34.946-6.371c7.099-5.542,11.044-14.964,13.516-23.336
			C1172.355,286.356,1171.613,265.415,1158.457,250.844z"/>
	</g>
	<g id="Layer_32">
		<path fill="#1D2B37" d="M899.374,109.446c-11.156-4.349-23.945-3.65-32.688-12.983c-4.097-4.374-7.35-9.577-10.627-14.614
			c-3.494-5.366-7.239-10.434-10.986-15.601c-7.587-10.462-13.71-21.952-22.096-31.798c-8.975-10.54-21.139-17.9-32.668-24.986
			c-5.764-3.542-11.491-7.275-17.566-10.213c-6.622-3.202-13.615-5.499-20.456-8.121c-13.341-5.113-25.868-12.298-39.416-16.851
			c-14.5-4.873-30.702-4.601-45.76-4.146c-16.335,0.493-32.623,2.142-48.972,2.201c-1.49,0.005-2.619,0.592-3.394,1.475
			c-19.589-4.249-38.619,3.3-46.299,23.492c-4.349,11.432-4.281,24.056-3.858,36.164c0.473,13.514,2.525,26.997,5.893,40.049
			c6.68,25.897,19.605,49.038,35.477,69.95c7.076,9.324,15.675,17.679,27.1,20.371c6.182,1.457,12.701,1.354,19,1.521
			c7.711,0.206,15.252,1.561,22.826,3.001c21.2,4.031,43.391,11.498,64.972,6.935c9.094-1.922,18.19-5.226,26.322-9.896
			c8.236-4.729,12.997-13.633,21.558-17.744c19.938-9.576,36.483-30.328,60.562-25.377c19.941,4.1,30.38,27.262,46.034,38.71
			c1.959,1.433,5.592,0.57,6.572-1.794c1.812-4.37,4.616-7.965,6.376-12.379c2.125-5.325,3.333-10.872,3.871-16.602
			C912.081,120.291,908.286,112.92,899.374,109.446z"/>
	</g>
	<g id="Layer_36">
		<path fill="#6D884A" d="M1117.521,311.936c-12.468-4.869-26.467-4.376-38.552-10.421c-11.771-5.889-17.229-18.634-28.112-25.612
			c-5.598-3.59-11.909-5.981-17.658-9.321c-6.22-3.613-11.842-8.574-17.761-12.68c-12.276-8.515-22.465-19.007-33.549-28.958
			c-18.571-16.672-39.06-31.979-55.002-51.298c-10.544-12.777-22.199-28.387-38.502-33.924
			c-20.692-7.029-30.429,16.845-31.317,33.219c-0.278,5.141,0.949,10.107,3.81,14.394c3.188,4.778,8.17,8.081,9.302,13.995
			c0.145,0.751,0.409,1.371,0.757,1.877c2.769,37.219-7.955,78.489,10.821,112.785c12.259,22.391,39.069,28.703,60.132,39.857
			c5.856,3.103,10.665,7.182,15.82,11.28c4.843,3.852,7.977,13.286,13.913,14.983c12.354,3.532,25.709,3.504,38.445,3.956
			c23.918,0.848,49.467-1.022,73.466-1.343c23.847-0.317,49.373-7.176,63.813-27.608
			C1162.783,335.276,1134.599,318.605,1117.521,311.936z"/>
	</g>
	<g id="Layer_35">
		<path fill="#457645" d="M983.482,183.602c-4.351-14.967-10.178-29.887-16.679-44.265c-6.109-13.516-17.059-27.937-10.316-42.675
			c2.243-4.904-5.861-8.097-9.778-4.865c-19.205,15.847-38.165,35.285-63.7,43.734c-2.127-0.861-4.714-0.752-6.501,0.933
			c-10.73,10.119-9.872,24.239-6.223,36.679c3.758,12.811,11.084,25.269,20.52,35.695c12.405,13.706,30.303,25.141,47.875,33.536
			c14.044,6.71,37.28,10.46,40.848,26.288c1.065,4.732,10.332,4.852,11.281,0C996.354,240.336,991.515,211.237,983.482,183.602z"/>
	</g>
	<g id="Layer_34">
		<path fill="#254D4C" d="M1191.798,172.684c-0.487-5.72-3.215-9.798-7.682-13.27c-3.155-2.453-7.841-4.467-9.332-7.778
			c-0.408-0.644-0.691-1.409-0.784-2.303c-0.682-6.549-3.783-12.614-6.328-18.59c-2.317-5.441-4.04-10.977-5.072-16.809
			c-1.083-6.112-1.713-12.388-3.372-18.382c-1.579-5.709-3.46-11.323-4.827-17.093c-0.068-0.293-0.129-0.584-0.195-0.876
			c-0.064-0.127-0.13-0.253-0.188-0.392c-1.612-3.816-2.839-7.664-3.664-11.621c-0.106-0.019-0.213-0.045-0.32-0.062
			c0.053-0.266,0.099-0.531,0.147-0.797c-0.454-2.356-0.771-4.752-0.929-7.21c-0.275-4.271-0.204-8.59-0.289-12.893
			c-0.382-0.965-0.821-1.928-1.325-2.889c-4.581-8.737-13.458-14.33-18.317-22.909c-1.99-3.514-6.524-2.928-8.636,0
			c-3.603,4.998-5.358,10.711-7.019,16.477c-0.021-0.407-0.045-0.808-0.075-1.192c-0.417-5.354-1.557-10.062-3.605-15.013
			c-4.444-10.732-11.181-20.748-19.928-28.443c1.939-25.991-64.688-8.708-78.047-7.186c-59.856,6.817-119.077-14.885-179.004-6.274
			c-3.639,0.523-4.896,6.093-2.207,8.357c1.848,1.554,3.637,2.293,5.78,3.312c2.278,1.083,4.389,3.422,6.432,4.93
			c3.182,2.348,5.994,4.243,8.046,7.71c3.177,5.365,5.024,11.298,8.431,16.594c3.9,6.066,8.718,11.571,13.541,16.909
			c9.882,10.937,20.573,21.143,29.866,32.604c7.385,9.108,13.316,22.616,27.045,22.203c5.744-0.173,10.683-3.743,14.653-7.564
			c1.944-1.871,3.476-4.095,4.464-6.599c0.989-2.509,1.039-3.68,3.883-4.53c5.266-1.576,12.174,1.654,17.545,1.986
			c4.776,0.295,9.56,0.416,13.333,3.703c19.071,16.616,11.084,42.771,21.442,63.206c1.613,3.184,4.062,6.028,6.871,8.201
			c2.627,2.032,5.903,1.911,7.854-1.012c4.988-7.479,6.775-16.652,8.867-25.248c1.871-7.697,3.793-17.866,10.495-23.007
			c8.198-6.288,19.735-3.389,24.716,5.164c2.304,3.954,2.937,8.732,4.281,13.058c1.637,5.257,3.719,10.385,6.094,15.35
			c4.291,8.967,10.592,17.838,20.242,21.362c13.76,5.024,29.045-2.686,42.463,3.782c5.312,2.56,8.776,6.814,12.404,11.331
			c3.989,4.966,8.155,9.159,13.596,12.521c4.854,2.999,8.056,5.034,10.311,10.314c1.805,4.228,4.146,8.274,9.341,8.395
			C1195.053,200.497,1192.452,180.363,1191.798,172.684z"/>
	</g>
	<g id="Layer_31">
		<path fill="#498244" d="M895.843,232.622c-7.792-8.449-20.553-13.189-31.284-8.057c-4.865,2.327-9.516,6.321-15.082,6.763
			c-4.912,0.39-8.713-3.905-11.707-7.185c-2.322-2.545-4.363-5.011-5.243-8.396c-0.719-2.764-0.898-5.577-1.803-8.308
			c-1.732-5.238-5.69-8.682-10.527-10.985c-4.257-2.026-8.916-3.118-12.968-5.566c-2.177-1.315-2.07-3.986-2.368-6.197
			c-0.429-3.176-2.651-6.419-4.291-9.088c-6.108-9.945-15.776-17.746-27.109-20.742c-10.966-2.899-21.362,0.588-30.878,5.907
			c-2.078,1.161-8.846,5.738-11.236,3.696c-3.49-2.981,2.623-9.961,4.325-12.617c3.995-6.235,5.774-14.814,1.419-21.326
			c-8.234-12.313-29.211-11.262-42.109-11.384c-0.925-0.009-1.85-0.017-2.774-0.025c1.621-25.801,21.863-62.604-6.694-79.183
			c-7.793-4.525-16.137-4.37-24.742-2.91c-8.114,1.376-17.112,5.017-25.396,3.134c-9.421-2.141-8.558-17.11-13.324-23.708
			c-5.71-7.905-15.286-13.656-17.262-23.69c0.813-4.76-6.376-8.23-9.294-3.279c-0.274,0.465-0.733,0.809-0.834,0.989
			c-0.441-0.182-1.167-0.524-1.666-0.844c-3.005-1.923-5.399-5.218-7.604-7.959c-4.182-5.2-7.591-11.752-12.729-16.087
			c-8.156-6.882-18.62-1.919-25.803,3.639c-4.052,3.135-7.523,7.015-10.982,10.769c-3.869,4.199-7.979,8.155-11.633,12.551
			c-6.203,7.461-10.036,15.757-11.745,25.294c-2.459,13.726-3.045,27.599-6.002,41.286c-6.578,30.442-18.172,59.519-26.155,89.582
			c-5.775,21.75-13.927,45.449-8.628,68.081c5.375,22.955,31.183,32.699,50.741,40.48c26.888,10.698,53.114,22.98,80.517,32.379
			c14.138,4.849,28.319,8.218,42.908,11.254c13.897,2.892,23.464,15.812,35.72,22.296c15.699,8.309,31.808,15.846,48.166,22.758
			c7.819,3.304,15.741,6.347,23.592,9.569c7.521,3.087,15.028,4.81,23.117,3.307c0.865-0.161,1.558-0.484,2.1-0.912
			c13.045,1.542,26.127,2.678,39.285,2.365c14.339-0.342,28.18-3.124,41.746-7.665c9.565-3.202,18.795-7.499,25.91-14.822
			c8.694-8.949,12.324-22.071,16.203-33.578C909.035,282.508,912.863,251.076,895.843,232.622z"/>
	</g>
	<g id="Layer_30">
		<path fill="#416635" d="M718.152,244.472c-1.047-12.403-7.922-22.893-15.782-31.718c-3.577-4.016-7.515-7.67-11.451-11.284
			c-3.811-3.5-5.909-8.242-7.399-13.253c-2.494-8.381-2.81-17.757-0.729-26.34c0.677-1.758,1.257-3.572,1.697-5.477
			c1.564-6.78-7.276-8.958-9.644-2.805c-0.58,1.507-1.068,3.043-1.49,4.601c-3.475,8.598-10.121,16.161-10.873,25.538
			c-0.051,0.627,0.218,2.142-0.396,2.016c-2.217-0.456-4.313-1.616-6.312-2.676c-3.103-1.649-5.869-3.678-8.463-6.104
			c-6.58-6.15-11.902-13.8-16.127-21.894c-3.117-5.974-5.832-13.121-5.234-20.025c0.45-1.777,0.861-3.568,1.205-5.383
			c1.286-6.792-7.262-9.034-9.644-2.805c-0.833,2.18-1.32,4.411-1.553,6.662c-3.694,13.469-10.46,25.515-18.253,36.955
			c-8.188,12.019-17.244,23.593-27.116,34.115c-16.501,17.587-36.08,28.382-58.955,30.545c-1.034-4.809-4.516-9.167-9.489-11.644
			c-9.789-4.876-19.2,0.76-26.219,8.041c-14.132,14.661-20.747,38.606-21.852,58.971c-2.488,45.868,41.037,73.145,77.921,82.45
			c21.083,5.319,44.008,5.533,65.562,4.658c23.698-0.961,47.103-7.546,63.64-26.49c17.928-20.538,35.198-43.85,47.211-68.784
			C713.945,270.853,719.26,257.609,718.152,244.472z"/>
	</g>
	<g id="Layer_28">
		<path fill="#554B3C" d="M825.329,381.179c-14.604-2.462-28.439-7.689-42.362-12.565c-14.469-5.067-28.896-8.311-44.041-10.604
			c-15.341-2.324-30.792-3.865-46.318-3.86c-15.896,0.005-31.269,2.729-46.914,5.132c-15.831,2.431-31.739,4.312-47.693,5.72
			c-13.999,1.236-27.52,6.479-40.992,10.129c-6.639,1.799-13.366,3.235-20.234,3.749c-7.572,0.567-14.738-0.825-22.037-2.691
			c-13.802-3.527-27.104-8.646-41.188-11.068c-6.788-1.168-13.565-2.362-20.36-3.524c-6.19-1.058-13.345-2.193-19.307,0.386
			c-6.027,2.608-10.174,10.221-6.73,16.388c3.263,5.844,9.618,8.613,16.021,9.407c-0.691,21.828-16.449,40.911-15.843,63.306
			c0.595,21.971,16.283,37.122,35.972,43.994c21.298,7.434,45.936,6.868,68.125,5.903c29.201-1.269,58.265-6.076,86.642-12.951
			c24.197-5.862,47.967-13.526,71.107-22.704c17.575-6.971,35.326-11.836,53.666-16.347c16.805-4.131,33.7-8.805,48.744-17.603
			c16.801-9.825,29.073-25.11,36.734-42.851C829.467,385.862,828.835,381.77,825.329,381.179z"/>
	</g>
	<g id="Layer_26">
		<path fill="#497D3B" d="M606.759,187.035c-7.416-4.862-19.079-2.695-20.384-13.66c-0.523-4.394-0.538-8.708-1.973-12.942
			c-1.326-3.911-3.273-7.592-5.676-10.94c-4.842-6.747-11.669-11.677-19.265-14.896c-12.724-5.392-26.875-6.295-40.565-4.79
			c1.289-4.331,1.686-8.839-0.201-13.056c-2.44-5.454-8.381-7.248-13.866-7.659c-12.714-0.954-26.214,4.453-37.981,8.625
			c-3.131,1.11-6.246,2.293-9.465,3.116c-6.963,1.78-13.438-0.135-19.58-3.082c0.669-0.279,1.331-0.588,1.98-0.958
			c4.055-2.316,7.044-7.395,7.518-11.953c0.587-5.65-2.346-10.464-5.483-14.899c-3.392-4.792-5.997-9.304-7.927-14.868
			c-1.43-4.125-2.596-8.327-4.585-12.233c-7.277-14.29-27.646-16.251-41.206-20.251c-4.415-1.302-8.159-2.845-10.683-6.881
			c-2.389-3.821-2.745-8.911-4.094-13.148c-2.696-8.466-9.57-14.819-16.887-19.448c-14.343-9.076-32.708-10.162-49.194-10.18
			c-12.559-0.014-25.254,1.234-37.85,0.89c-0.856-4.483-2.142-8.914-4.075-13.346c-2.572-5.899-11.185-0.802-8.635,5.047
			c1.091,2.502,1.899,5.041,2.51,7.608C258.795-6.914,258.397-6.95,258-7c-6.387-0.803-6.31,9.207,0,10
			c0.896,0.112,1.792,0.199,2.689,0.289C261.066,8.461,261,13.706,261,18.966v120.801c-0.671,0.786-1.071,1.861-1,3.232
			c1.902,36.843,43.837,47.3,73.046,55.065c15.331,4.076,31.863,7.39,45.616,15.649c10.892,6.542,16.087,19.494,20.666,30.751
			c9.15,22.495,18.217,61.603,48.029,63.707c7.7,0.543,15.375-2.3,22.146-5.658c9.385-4.652,18.482-10.673,27.206-16.445
			c3.566-2.359,8.101-4.993,10.608-8.547c3.807-5.396,4.625-11.556,5.11-17.986c0.357-4.738,1.237-8.318,4.378-11.948
			c2.682-3.099,5.966-5.667,9.309-8.006c7.921-5.542,16.832-9.816,26.187-12.268c6.999-1.834,15.925-2.775,21.164,3.22
			c1.537,1.759,4.134,1.737,6.06,0.782c11.547-5.73,28.682-12.026,33.362-25.354C615.229,199.291,612.794,190.992,606.759,187.035z"
			/>
	</g>
	<g id="Layer_20">
		<path fill="#292726" d="M361.429,400.482c-0.275-11.167-1.288-22.296-3.78-33.312c-0.75-3.314-5.483-4.374-8.515-2.995
			c-4.122-2.762-8.622-5.633-13.387-8.24c-1.303-5.917-2.59-11.835-3.784-17.765c-0.984-4.889-9.852-4.688-11.008,0
			c-0.931,3.773-0.759,7.522,0.096,11.212c-5.496-1.829-11.16-2.94-16.853-2.883c-0.016,0-0.03,0.004-0.046,0.004
			c-1.115-0.346-2.232-0.684-3.361-0.992c-6.669-1.824-13.403-1.75-20.19-2.833c-1.486-0.236-2.875,0.033-4.036,0.611
			c-1.149-1.579-2.517-3.048-4.29-4.326c-5.636-4.062-13.762,2.971-8.072,7.071c2.408,1.734,3.999,4.047,5.328,6.518
			c-2.323,1.458-3.648,4.126-1.654,6.471c0.289,0.34,0.549,0.685,0.791,1.032c-30.244,0.264-60.477,1.626-90.726,1.086
			c-10.884-0.194-23.103-2.849-33.38,1.68c-10.157,4.474-15.208,17.353-18.438,27.086c-6.61,19.929-9.192,42.796-6.116,63.624
			c2.73,18.48,12.326,34.08,29.481,42.296c15.872,7.602,34.508,9.11,51.554,5.219c17.277-3.944,32.661-13.845,48.6-21.17
			c12.435-5.715,25.922-8.21,38.737-12.883c9.168-3.343,19.407-8.252,24.611-16.757c1.045-0.57,1.919-1.519,2.418-2.907
			c2.645-7.366,5.163-14.793,7.607-22.232c3,0.869,6.704-0.062,7.233-3.268c0.031-0.187,0.046-0.37,0.074-0.557
			c2.846,2.824,6.882,4.91,10.82,2.663c4.626-2.639,5.428-8.042,5.068-13.467c1.17,4.017,2.407,7.992,3.853,11.859
			c2.002,5.353,11.032,4.411,11.212-1.329c0.057-1.835,0.104-3.67,0.143-5.505c0.271-0.578,0.428-1.24,0.428-1.995
			C361.846,409.135,361.724,404.806,361.429,400.482z"/>
	</g>
	<g id="Layer_25">
		<path fill="#2A3C31" d="M240.519,265.295c-3.758-12.552-12.574-23.426-21.066-33.141c-16.092-18.409-34.33-34.85-53.14-50.424
			c-5.061-4.19-10.062-8.446-14.93-12.858c-5.152-4.669-11.044-8.494-16.245-13.143c-4.534-4.052-8.428-8.414-10.991-13.943
			c-2.669-5.756-4.58-11.658-7.874-17.137c-3.561-5.926-12.879-0.539-9.304,5.41c2.182,3.631,3.818,7.471,5.426,11.335
			c-17.536,4.871-30.671,23.127-39.798,37.419c-5.776,9.043-10.668,18.704-14.47,28.729c-4.117,10.856-5.851,22.756-7.531,34.18
			c-2.111,14.359-3.293,28.862-3.193,43.378c0.081,11.827,0.516,25.025,5.399,36c8.36,18.792,28.559,26.306,47.376,30.46
			c10.017,2.213,20.198,3.593,30.272,5.503c8.95,1.697,17.393,4.444,25.928,7.571c17.638,6.46,38.825,15.374,57.34,7.307
			c9.497-4.139,14.286-14.089,16.897-23.459c3.702-13.29,3.89-27.415,5.834-41.006C238.491,293.202,244.871,279.834,240.519,265.295
			z"/>
	</g>
	<g id="Layer_23">
		<path fill="#3D783A" d="M149.076,367.256c-2.336-11.558,2.123-22.039,5.915-32.688c3.926-11.026,5.246-22.347,2.885-33.865
			c-4.537-22.137-23.211-38.325-40.31-51.34c-8.941-6.806-20.168-12.555-25.745-22.687c-4.622-8.396-1.063-18.506,1.844-26.814
			c3.672-10.494,7.448-20.677,8.335-31.862c1.027-12.955-1.894-26.255-5.705-38.551c-4.089-13.193-9.909-25.873-16.201-38.142
			c-5.591-10.904-11.327-22.173-19.63-31.294C46.397,44.562,26.037,43.079,6.436,42.999C3.624,42.988,0.812,42.999-2,43
			c-1.167,0-2.12,0.332-2.865,0.869c-0.928,0.15-1.853,0.644-2.67,1.595C-15.984,55.294-20.312,67.238-22,80
			c-1.998,15.101-4.065,30.193-5.868,45.32c-3.686,30.94-6.134,62.156-4.225,93.314c0.963,15.715,3.977,31.119,5.762,46.735
			c1.823,15.945,2.542,32.004,2.584,48.047c0.086,32.016-3.048,63.957-6.917,95.705c-1.809,14.843-3.815,29.662-5.784,44.485
			c-1.61,12.124-2.72,24.333-5.496,36.257c-3.308,14.208-9.085,36.511,8.627,43.409c9.818,3.822,21.671-2.722,30.103-7.155
			c4.982-2.62,9.786-5.037,15.126-6.827c6.64-2.228,13.986-1.821,20.864-1.364c14.145,0.941,28.268,2.798,42.375,4.198
			c14.294,1.419,28.574,3.146,42.518,6.697c2.718,0.691,5.315-0.858,6.15-3.492c4.261-13.44,10.003-26.251,15.312-39.291
			c5.779-14.193,5.771-29.413,8.848-44.231c1.451-6.987,4.795-13.509,6.454-20.495c0.764-3.218,1.161-6.53,1.444-9.821
			c0.26-3.031,1.427-5.153,2.387-8.015c1.884-5.615-0.335-11.579-2.35-16.812C153.425,380.198,150.458,374.094,149.076,367.256z"/>
	</g>
	<g id="Layer_17">
		<path fill="#263D27" d="M291.374,317.82c-2.313-5.114-5.813-9.49-6.554-15.206c-0.365-2.82,0.682-5.854,1.089-8.626
			c0.476-3.234,0.142-5.986-1.024-9.035c-4.248-11.106-16.303-17.732-24.577-25.582c-6.435-6.105-11.697-12.232-20.969-13.243
			c-7.059-0.77-14.699,1.187-21.772,1.548c-9.068,0.462-17.677-0.354-26.238-3.498c-2.07-0.76-4.601,0.479-5.646,2.298
			c-10.263,17.858-19.22,40.742-12.365,61.334c3.85,11.564,12.263,20.413,19.609,29.938c3.903,2.43,6.848,6.244,7.896,10.921
			c0.091,0.407,0.121,0.813,0.122,1.217c0.171,0.329,0.348,0.653,0.513,0.985c0.083,0.26,0.157,0.526,0.217,0.801
			c0.925,4.275,1.045,8.363,3.604,12.115c6.739,9.883,20.935,8.697,31.217,7.499c10.745-1.252,21.705-1.201,32.033-4.757
			c9.289-3.198,17.781-9.032,22.706-17.681C296.565,339.485,295.701,327.386,291.374,317.82z"/>
	</g>
	<g id="Layer_33">
		<path fill="#416631" d="M888.38,262.715c-3.729-16.257-3.444-33.056-2.979-49.476c0.437-15.426,1.593-30.87,2.729-46.276
			c0.864-11.704,2.748-24.901-4.716-35.814c-3.611-5.278-9.479-9.239-16.052-12.72c-5.931-3.14-15.187-5.935-19.678-10.085
			c-7.187-6.638-12.75-14.307-20.834-20.446c-10.27-7.797-19.939,4.703-23.168,10.201c-2.354,4.011-4.296,8.121-6.133,12.262
			c-2.598,5.857-6.492,11.421-9.552,17.171c-15.601,29.308-22.649,60.44-35.144,90.401c-6.454,15.478-15.456,29.876-24.992,44.494
			c-9.625,14.754-18.278,29.827-26.12,45.097c-2.235,4.352-4.363,8.73-6.448,13.119c-1.503,3.163,1.176,5.435,4.667,6.188
			c0.987,0.346,2.167,0.537,3.553,0.5c43.847-1.166,84.835,13.185,127.746,17.28c15.113,1.441,31.298,3.036,45.136-2.624
			c16.319-6.675,19.552-22.32,20.095-34.347C897.167,292.551,891.773,277.514,888.38,262.715z"/>
	</g>
	<g id="Layer_19">
		<path fill="#527041" d="M410.241,364.111c-0.181-11.243,0.337-26.269-6.217-36.012c-6.516-9.684-21.796-10.518-32.188-11.932
			c-7.182-0.978-14.37-1.407-21.615-1.107c-7.791,0.322-15.29,2.004-23.132,1.51c-12.41-0.781-21.307-9.009-32.808-12.333
			c-8.935-2.583-20.558,0.02-22.869,10.421c-1.921,8.646,7.132,41.869,20.69,33.292c0.131,0.018,0.261,0.038,0.397,0.047
			c17.399,1.215,43.46,10.601,48.515,29.106c2.351,8.607,3.156,17.76,3.276,26.651c0.05,3.727-0.07,7.504-0.887,11.149
			c-0.831,3.708-2.548,3.269-6.751,3.25c-5.341-0.023-10.484-0.632-15.791,0.34c-5.467,1.001-9.948,5.627-13.101,9.892
			c-5.98,8.09-9.908,17.756-12.412,27.459c-2.36,9.148-3.347,19.266,0.835,28.017c4.226,8.841,15.557,10.984,24.283,12.043
			c10.77,1.305,22.287,0.973,32.601-2.668c10.777-3.806,18.438-13.219,25.033-22.098c7.667-10.323,15.178-21.305,21.99-32.207
			c6.771-10.833,9.752-23.35,10.706-35.96C411.768,390.1,410.447,377.008,410.241,364.111z"/>
	</g>
	<g id="Layer_29">
		<path fill="#337238" d="M813.697,319.408c-0.981-14.181-3.708-28.292-9.035-41.499c-5.317-13.186-14.697-23.533-23.803-34.222
			c-4.196-4.925-8.047-9.833-11.246-15.47c-3.257-5.739-6.062-11.704-9.748-17.193c-4.984-7.421-12.805-15.35-21.842-17.392
			c-16.067-3.631-24.042,15.198-27.819,27.313c-2.168,6.954-3.613,14.131-4.848,21.302c-1.189,6.905-1.653,14.402-4.474,20.883
			c-3.729,8.571-11.763,7.616-18.752,3.878c-3.871-2.071-7.527-4.596-10.872-7.433c-1.903-1.615-6.079-4.846-6.261-7.574
			c-0.396-5.928-7.675-6.433-9.821-1.329c-5.442,12.944-11.856,25.449-18.452,37.837c-6.211,11.669-12.156,23.611-18.881,34.991
			c-10.559,17.868-26.333,35.017-28.582,56.369c-3.779-1.427-7.208-3.445-9.728-6.403c-4.188-4.917-11.226,2.192-7.071,7.071
			c9.623,11.299,28.223,12.595,41.897,13.419c19.545,1.178,39.247-0.379,58.711-2.113c18.358-1.636,36.364,4.873,54.827,4.791
			c15.294-0.067,30.596-0.398,45.641-3.421c8.971-1.802,18.188-10.254,26.977-12.975c10.263-3.178,12.693-12.778,13.393-22.551
			C814.811,345.111,814.564,331.969,813.697,319.408z"/>
	</g>
	<g id="Layer_22">
		<path fill="#1F2726" d="M253.393,172.193c-3.139-5.077-6.939-9.268-7.031-15.517c-0.09-6.127,2.485-12.318,3.851-18.221
			c2.452-10.598,1.498-21.944-6.801-29.692c-7-6.535-16.887-10.021-26.08-11.987c-8.559-1.83-18.622-2.665-26.914,0.72
			c-4.389,1.792-7.887,4.883-9.146,9.561c-1.264,4.697,0.908,9.55-0.127,14.286c-1.958,8.954-17.112,10.83-24.012,14.17
			c-10.402,5.037-12.779,15.253-12.252,25.971c0.322,6.564,1.953,13.386,1.551,20.014c-9.04,5.319-12.088,18.935-13.252,28.4
			c-1.491,12.114-0.869,29.662,13.319,33.814c6.167,1.805,13.187-0.391,19.113-2.088c9.109-2.608,18.35-4.717,27.571-6.89
			c10.414-2.454,20.454-5.591,30.31-9.761c4.575-1.936,9.288-3.919,13.395-6.738c3.317-2.276,6.552-5.635,10.78-5.902
			c2.812-0.178,4.877-2.144,5-5c0.267-6.219,3.652-11.739,4.895-17.769C258.873,183.212,256.694,177.533,253.393,172.193z"/>
	</g>
	<g id="Layer_24">
		<path fill="#2F542A" d="M162.82,102.146c-1.71-11.131-4.86-21.771-8.917-32.261c-5.438-14.06-12.955-27.166-18.557-41.115
			c-6.728-16.751-10.655-37.402-26.764-47.84c-9.426-6.108-20.125-10.454-30.58-14.435c-12.509-4.763-25.432-8.63-38.59-11.119
			C24.19-47.504-8.929-51.2-8-27c0.043,1.12,0.387,2.042,0.917,2.772c-10.249,16.75-21.9,33.255-27.614,52.11
			c-6.477,21.372,1.2,41.06,15.469,57.268c9.398,10.675,21.045,18.781,32.472,27.085C24.727,120.58,33.64,130.41,42.58,141.34
			c8.099,9.9,16.684,19.213,27.977,25.505c8.569,4.773,18.458,7.471,28.013,9.378c18.642,3.721,43.248,4.986,55.764-12.174
			C167.009,146.672,165.923,122.334,162.82,102.146z"/>
	</g>
	<g id="Layer_21">
		<path fill="#59863C" d="M293.054,110.291c9.17-2.838,17.118-9.891,15.105-20.067c-0.788-3.984-3.199-7.789-5.095-11.32
			c-3.192-5.944-5.441-12.361-8.106-18.557c-2.746-6.381-5.139-12.807-6.908-19.53c-1.223-4.648-1.931-9.424-3.565-13.958
			c-3.793-10.519-12.968-19.574-21.289-26.697c-8.659-7.413-18.697-12.667-29.368-16.537c-11.987-4.348-24.806-6.738-37.395-8.53
			c-14.524-2.067-29.201-2.264-43.605,0.76c-6.323,1.328-12.625,3.468-18.794,5.381c-5.716,1.772-12.69,3.643-16.585,8.496
			c-1.866,2.326-3.117,4.569-3.34,7.578c-0.197,2.66,1.091,5.088,0.75,7.836c-0.616,4.974,0.042,10.177-0.115,15.231
			c-0.02,0.035-0.042,0.065-0.061,0.101c-6.959,12.992-23.849,17.149-26.504,33.194c-0.408,2.467,0.609,5.659,3.492,6.15
			c13.728,2.342,32.361-3.013,43.871,6.629c5.392,4.516,7.964,11.198,4.386,17.583c-3.697,6.597-11.885,8.057-18.599,6.146
			c-3.192-0.909-6.25,1.606-6.329,4.821c-0.581,23.628,10.936,44.184,29.968,57.756c4.69,3.344,9.814,5.839,15.015,8.264
			c4.782,2.23,9.646,4.666,14.944,5.304c10.112,1.218,20.175-5.556,28.576-10.296c7.861-4.437,19.893-11.263,24.301,0.629
			c3.266,8.812,2.713,18.728,8.19,26.741c5.807,8.497,18.101,10.365,27.552,11.554c10.102,1.271,21.889,1.291,29.904-6.008
			c5.155-4.694,3.635-11.97,1.188-17.563c-3.954-9.035-10.816-15.977-15.377-24.617c-2.282-4.323-0.754-8.125,0.254-12.602
			c1.197-5.313,1.177-10.188-0.606-15.351c-0.89-2.575-2.16-4.677-3.672-6.516C281.279,112.559,287.314,112.067,293.054,110.291z"/>
	</g>
	<g id="Layer_27">
		<path fill="#6B9963" d="M612.243,72.072c-3.574-6.406,1.537-12.647,1.769-19.239c0.414-11.712-6.182-19.636-13.404-27.94
			c-3.577-4.113-5.897-8.731-7.002-14.07c-1.354-6.549-1.316-13.196-3.994-19.443c-1.976-4.608-4.362-8.96-7.111-13.153
			c-2.729-4.162-5.913-9.036-10.518-11.253c-3.832-1.847-7.135-2.359-11.269-1.424c-6.875,1.556-15.037-0.168-21.979-0.773
			c-33.904-2.955-67.806-8.703-101.896-5.003C405.461-36.823,377.25-20.389,345.933-17c-6.341,0.686-6.408,10.693,0,10
			c0.893-0.097,1.782-0.204,2.67-0.319c-1.789,18.739-8.86,38.114-0.775,56.125c5.146,11.461,16.467,16.895,25.643,24.507
			c10.072,8.356,18.35,18.649,27.336,28.102c38.116,40.09,96.649,46.79,149.148,49.154c12.305,0.554,25.615-0.715,35.465-8.816
			c9.083-7.47,13.671-20.01,19.608-29.826c5.181-8.565,12.508-14.437,12.179-25.132C617.032,81.036,614.991,76.999,612.243,72.072z"
			/>
	</g>
	<g>
		<g>
			<polyline fill="#D2D1D2" points="279.5,292.5 342.5,324.5 394,308.5 385.833,211.333 372.333,188.833 357.284,175.361 270.5,200 
							"/>
			<polygon fill="#B7705B" points="266,157.5 365.5,157.5 331,232.5 236,222 			"/>
			<path fill="#A27B71" d="M331,232.5h6c0,0,9-42.5,25-44.5c0,0,15.5-1.5,24,31l10-0.5l-31.42-59"/>
		</g>
		<g>
			<polygon fill="#D2D1D2" points="376,181 357.5,138.5 357.5,123 345,123 345,138.5 353.5,185.5 			"/>
			<polygon fill="#BFB5B5" points="317.5,182.5 324.5,142.5 324.5,125.5 345,123 353.5,185.5 			"/>
			<g>
				<polygon fill="#DBDFE2" points="317.5,128.5 360.5,124.5 342.5,110 342,100.5 335.5,100.5 332.5,109.5 				"/>
				<path fill="#DBDFE2" d="M335.5,100.5"/>
				<polygon fill="#DBDFE2" points="339.688,61.28 336.528,106.172 340.973,107.036 				"/>
				<path fill="#DBDFE2" d="M335.286,88.596c-0.124,1.514,1.45,2.877,3.514,3.046c2.064,0.168,2.85-1.105,3.961-2.437
					c0.124-1.513-1.45-2.877-3.514-3.045C336.632,86.448,335.41,87.082,335.286,88.596z"/>
			</g>
		</g>
	</g>
	<path fill="#5D8A3E" d="M501.562,303.667c-2.221-7.98-6.28-18.924-14.242-22.899c-7.508-3.748-17.998-4.646-26.223-3.711
		c-4.58,0.521-7.42,2.081-10.256,5.766c-3.53,4.587-1.188,11.036-2.525,16.163c-1.106,4.241-4.729,2.825-6.545,0.316
		c-1.991-2.752-2.031-6.231-1.942-9.473c0.2-7.275,0.794-13.674-3.212-20.153c-5.644-9.126-15.908-11-25.766-9.393
		c-10.048,1.638-18.662,7.274-27.774,11.364c-10.358,4.648-21.802,6.122-31.714,11.895c-5.396,3.142-9.645,7.649-13.345,12.604
		c-0.284,0.38-0.493,0.758-0.648,1.132c-3.652,3.024-4.649,7.397-2.39,12.53c1.168,2.655,3.447,4.875,5.138,7.199
		c2.062,2.833,3.267,6.235,5.071,9.229c3.866,6.416,12.031,8.751,18.594,11.296c8.962,3.477,18.473,5.258,28.08,4.373
		c7.941-0.731,20.917-7.146,26.268,1.319c4.3,6.806,5.832,15.051,8.426,22.562c1.271,3.678,2.859,7.087,5.063,10.294
		c2.327,3.387,4.854,6.307,5.05,10.587c0.293,6.415,9.92,6.475,10,0c0.366-29.686,26.043-46.922,53.667-48.333
		c2.813-0.144,4.878-2.169,5-5C505.761,323.405,504.22,313.215,501.562,303.667z"/>
	<g id="Layer_18">
		<path fill="#407639" d="M598.064,352.01c-3.982-4.017-9.262-6.526-14.819-7.17c-5.63-0.65-11.577,2.292-17.019,3.303
			c-8.851,1.646-19.368-0.491-25.366-7.459c-5.562-6.46-6.774-16.739-8.007-24.806c-0.125-0.846-0.247-1.693-0.365-2.541
			c-0.485-3.433-4.773-4.238-7.346-2.988c-9.009,4.379-16.271,11.699-25.68,15.291c-9.909,3.783-19.125,7.13-28.168,12.802
			c-14.861,9.318-31.478,23.06-31.294,42.226c0.027,2.788,2.256,4.917,5,5c8.101,0.243,14.283-5.55,21.916-6.538
			c7.532,7.56,16.727,13.736,26.375,18.105c12.768,5.78,25.697,4.645,39.333,3.251c13.2-1.35,26.975-0.411,39.943-3.376
			c10.852-2.481,19.271-9.285,25.856-18.002C604.756,370.725,605.709,359.719,598.064,352.01z"/>
	</g>
	<g id="Layer_16">
		<path fill="#53813B" d="M451.146,458.74c-1.514-4.965-3.301-9.828-4.687-14.839c-1.686-6.096-0.603-12.413,0.177-18.611
			c0.846-6.728,1.737-13.406,1.667-20.213c-0.08-7.646-2.101-15.026-3.448-22.477c-1.188-6.576-3.242-12.604-7.038-17.961
			c-4.041-5.702-9.681-9.678-14.219-14.873c-4.008-4.587-6.674-10.312-10.634-14.961c-3.587-4.21-8.461-6.331-13.087-8.82
			c-2.111-1.137-5.065-2.72-5.378-5.581c-0.515-4.706-6.944-8.145-9.317-2.725c-2.451,5.596-3.83,10.772-2.64,16.937
			c1.232,6.386,5.303,10.926,5.504,17.686c0.188,6.321-0.98,12.672-1.733,18.914c-0.893,7.403-0.854,14.547-0.219,21.985
			c1.221,14.304,5.124,28.964-1.338,42.349c-5.408,11.201-13.028,20.674-13.757,33.831c-0.043,0.787,0.051,1.479,0.245,2.087
			c-5.818,11.761,21.924,14.113,27.952,14.465c9.158,0.534,18.259,1.284,27.418,1.908c6.88,0.469,17.302,1.879,23.295-2.811
			C457.379,479.183,453.471,466.356,451.146,458.74z"/>
	</g>
	<g id="Layer_42">
		<path fill="#263D27" d="M361.498,308.24c-2.266-20.506-43.347-57.2-70.042-54.417c-7.63,0.795-14.712,3.401-21.445,6.632
			c-0.87-0.484-1.896-0.91-3.155-1.276c-2.411-0.703-5.132,0.445-6.387,2.298c-1.295,1.913-2.414,3.874-3.404,5.867
			c-9.741,5.453-20.462,12.422-32.433,12.657c-7.283,0.143-7.299,10.143,0,10c10.194-0.199,19.062-3.706,27.571-8.13
			c-1.197,5.966-1.637,12.094-1.729,18.235c-0.181,11.913-0.217,23.998,0.472,35.898c0.553,9.56,2.38,19.382,8.325,27.564
			c6.366,8.762,17.322,13.667,28.568,15.772c22.546,4.224,31.561-16.328,36.394-31.725
			C329.91,329.534,363.604,327.303,361.498,308.24z"/>
	</g>
	<polyline fill="#C4A293" points="1593.667,273.078 1592,251.917 1658.25,249.666 1645,283.001 	"/>
	<polyline fill="#DFA58C" points="1658.25,229 1578.333,233.125 1583.333,258.666 1655.5,258.666 	"/>
	<g>
		<path fill="#A88883" d="M1533.667,263.244c0,0,40.999-14.826,55.666,7.131S1545,296.472,1545,296.472"/>
		<polyline fill="#F0E9DC" points="1585.331,270.762 1574.667,263.244 1565.432,270.375 		"/>
	</g>
</g>
<g id="Layer_74">
	<path fill="#497B6E" d="M1444.057,242.571c-10.713-7.973-20.845-22.277-35.878-19.491c-3.12,0.578-5.668,3.167-7.712,5.384
		c-2.698,2.926-3.695,4.381-7.695,5.406c-5.967,1.528-8.262,7.168-8.868,12.699c-0.216,1.964,0.063,4.007-0.274,5.952
		c-0.006,0.032-0.011,0.055-0.016,0.084c-1.619,0.081-3.256-0.429-4.797-0.817c-6.953-1.751-12.949-4.818-19.948-5.193
		c-1.417-1.088-3.357-1.529-5.39-0.58c-2.52,1.178-5.228,1.926-7.547,3.495c-2.619,1.773-4.256,4.548-5.837,7.21
		c-3.47,5.843-6.067,12.542-6.708,19.326c-0.463,4.902,1.879,9.357,5.943,11.966c5.476,3.514,13.617,1.835,19.643,1.573
		c16.205-0.705,33.664-1.077,48.709-7.875c6.63-2.995,12.744-7.814,19.944-9.336c1.048-0.222,2.062-0.5,3.019-0.842
		c0.915,0.085,1.829,0.023,2.688-0.212c3.815-1.05,5.235-4.737,5.337-8.321c0.029-1.044-0.34-2.078-0.959-2.931
		c-0.078-0.228-0.176-0.447-0.283-0.662c0.084-0.024,0.163-0.048,0.253-0.074c2.635-0.752,5.626-1.052,8.047-2.421
		C1452.423,253.124,1448.693,246.023,1444.057,242.571z"/>
	<polyline id="XMLID_1_" fill="#AD9C8C" points="1603.244,277 1629.337,254.958 1746.337,240.333 1735.004,275.333 	"/>
	<polyline fill="#C99772" points="1669.5,272.397 1565.432,270.375 1560.4,309.667 1624.5,352.501 	"/>
	<rect x="1680.932" y="297.917" fill="#B4B6B8" width="60.318" height="31.512"/>
	<path fill="#E4A78E" d="M1531.25,263.25l-17.75,31.5l46.9-2.282C1560.4,292.468,1542.5,262.75,1531.25,263.25z"/>
	<polyline fill="#D8BBA8" points="1499.25,285.688 1531.25,263.25 1515.25,297.917 	"/>
	<polyline fill="#D59A82" points="1397.002,267.417 1392.667,272.334 1399.334,318.5 1458.668,348.667 1507.668,337.333 
		1519.501,315.015 1504.67,287.069 	"/>
	<polyline fill="#CDC4C4" points="1392.667,272.334 1403,295.25 1403,312.603 1363.5,302.5 	"/>
	<polyline fill="#9D98A2" points="1297.209,277 1392.667,272.334 1380.668,293.667 1282.656,293.667 	"/>
	
		<rect x="1307.886" y="281.976" transform="matrix(0.7071 0.7071 -0.7071 0.7071 588.4253 -844.6909)" fill="#747078" width="12.001" height="12"/>
	<path fill="#DFDFDC" d="M1446.354,314.333v-4.667c0,0-84.354-10.378-124.021-1.522v17.317"/>
	<polyline fill="#EAA786" points="1285.5,287.333 1375.001,283.333 1392.667,297.438 1392.667,305.016 1312.5,314.333 
		1270.001,311.334 1243.001,286.667 	"/>
	<polyline fill="#B47F7A" points="1275.376,309.667 1327.001,311.334 1327.001,331.175 1293.75,345.333 	"/>
	<polygon fill="#D9A5A5" points="1504.67,287.069 1481.004,261.083 1397.002,267.417 1408.004,297.917 	"/>
	<path fill="#B58B8B" d="M1449.586,272.397c0,0,2.012,5.029,2.813,6.645c0.852,1.715,3.812,6.646,3.812,6.646h-6.627h-7.627
		l3.813-6.646L1449.586,272.397z"/>
	<polyline fill="#B09C97" points="1572,285.688 1500.828,287.5 1500.828,336.25 1560.75,339.25 	"/>
	<polyline fill="#8A7E7B" points="1730,252.5 1680.75,252.5 1655.5,283.5 1730,288.25 	"/>
	<polyline fill="#A49F9D" points="1655.5,283.5 1653.25,297.917 1730,302.5 1730,288.25 	"/>
	<polyline fill="#BFA594" points="1628.5,290 1701.25,294.75 1681.75,327.5 1615.25,331.175 	"/>
	<polyline fill="#91848C" points="1665,316.25 1660,331.175 1730,325.334 1715.75,312.469 	"/>
	<polygon fill="#E6E6E3" points="1639.75,267.417 1639.75,242.5 1677.75,219.5 1730,219.5 1730,250 1677.5,248.75 	"/>
	<polygon fill="#E6E6E3" points="1627.25,246.75 1627.25,267.417 1639.75,267.417 1639.75,242.5 	"/>
	<polygon fill="#8B7170" points="1621.25,242.5 1627.25,246.75 1639.75,242.5 1677.75,219.5 	"/>
</g>
<g id="Layer_76">
	<g>
		<polyline fill="#DAB39F" points="1293.75,349.55 1330,319 1442.5,311.334 1503.5,358.796 1293.75,393.667 		"/>
		<polyline fill="#8C7A86" points="1428.5,331.175 1512.377,331.175 1512.377,378.637 1409.338,374.181 		"/>
	</g>
</g>
<g id="Layer_77">
	<g>
		<polyline fill="#E2DCC9" points="1316,389.433 1306.5,335.709 1249.312,335.709 1259.805,418 		"/>
		<polyline fill="#DDC2B6" points="1285.5,316.5 1312.5,335.709 1285.5,341 		"/>
		<path fill="#676569" d="M1316.017,377.71c-0.556-2.479-2.677-3.898-4.863-4.763c-1.505-0.596-3.339-0.58-4.943-0.623
			c-0.831-0.022-1.662-0.026-2.494-0.053c-0.353-0.013-0.705-0.034-1.057-0.058c-0.093-0.007-0.185-0.018-0.276-0.026
			c-0.019-0.003-0.032-0.006-0.053-0.009c-2.679-0.491-5.381,0.695-6.15,3.492c-0.235,0.857-0.203,1.807,0.048,2.7
			c-0.102,0.366-0.183,0.741-0.227,1.129c-0.548,4.868,1.415,10.419,6.434,12.065c5.422,1.777,10.011-2.521,12.38-6.929
			C1315.984,382.459,1316.564,380.155,1316.017,377.71z"/>
	</g>
</g>
<g id="Layer_75">
	<g>
		<polyline fill="#F5E6DE" points="1187.25,332.403 1187.25,357.333 1289,353.083 1287.941,318 1280.605,305.016 		"/>
		<polyline fill="#E6AA9F" points="1139.75,285.25 1248,279.5 1279.75,303.5 1287.941,318 1280.75,308.5 1275.5,308.5 
			1272.5,336.789 1121.25,333.5 		"/>
		<polyline fill="#D7978D" points="1192.282,351.371 1192.282,311.334 1119.666,311.334 1110.812,358.796 		"/>
		<g>
			<g>
				<polyline fill="#F0D6C6" points="1056.633,362.243 1122.667,323.334 1169.001,355.334 				"/>
				<polyline fill="#DAA192" points="1078.667,363.167 1123.334,343 1158.334,357.333 				"/>
			</g>
			<polyline fill="#E8ABA8" points="1166.064,353.472 1122.667,323.334 1130.334,311.334 1179.167,351.859 			"/>
			<polyline fill="#DDA2A0" points="1086.709,336.789 1130.334,311.334 1122.667,323.334 1056.633,362.243 			"/>
		</g>
	</g>
</g>
<g id="Layer_72">
	<g>
		<polyline fill="#B5917E" points="1287.941,394 1275,374.181 1231.667,376.868 1236.75,439.558 		"/>
		<g>
			<polyline fill="#DDB49F" points="1126.664,356.63 1276.667,343 1300.667,358.796 1295.667,361.562 1293.75,398.168 
				1221.667,370.584 			"/>
			<polyline fill="#F6F8F8" points="1300.667,358.796 1300.667,393.667 1293.75,393.667 1295.667,361.562 			"/>
		</g>
	</g>
</g>
<g id="Layer_73">
	<polyline fill="#EFBCAA" points="972.334,369 1215,349.55 1241.166,369 1236.75,374.181 1237.333,446.787 926.551,415.882 	"/>
	<polyline fill="#E4BCAA" points="1245.454,423.489 1241.166,369 1236.75,374.181 1236.75,430.833 	"/>
</g>
<g id="Layer_71">
	<g>
		<g>
			<polyline fill="#B2BBB6" points="1730,393 1607.5,399.536 1599,478.062 1730,488.25 			"/>
			<polyline fill="#E9EEEA" points="1730,393 1730,361.562 1618,368.001 1618,398.976 			"/>
			<polyline fill="#C99B8A" points="1730,325.334 1603.244,330.001 1607.666,370.668 1730,363.253 			"/>
		</g>
		<line fill="none" stroke="#F0F6F7" stroke-miterlimit="10" x1="1689.482" y1="395.162" x2="1691.25" y2="415.922"/>
		<line fill="none" stroke="#F0F6F7" stroke-miterlimit="10" x1="1657.217" y1="396.883" x2="1660.75" y2="415.922"/>
		<path fill="#33542B" d="M1634.208,439.183c1.315-1.761,2.175-4.003,1.558-6.075c-0.33-2.109-1.845-3.993-4.537-4.097
			c-2.562-0.695-5.563-0.191-8.225,0.167c-3.895,0.527-4.4,4.908-2.592,7.638c-2.73,1.277-3.533,4.77-2.385,7.153
			c-1.418,3.546-1.988,7.342-2.027,11.364c-0.054,5.535,8.75,6.964,9.821,1.329c0.012-0.061,0.026-0.112,0.038-0.171
			c6.056,0.294,11.57-2.288,12.471-9.161C1638.816,443.609,1636.963,440.955,1634.208,439.183z"/>
		<polygon fill="#2E3B4D" points="1685.5,409.5 1685.5,399.25 1680.75,391.028 1669.25,391.028 1663.75,399.139 1663.75,409.5 		"/>
		<path fill="#354963" d="M1694,397.75l5.5-8.75h12.25l3.5,8.75c0,0,1.25,8,0,8.75s-21.25,1.75-21.25,1.75
			S1692.5,404.25,1694,397.75z"/>
		<path fill="#BEC9CB" d="M1649.875,437.352v-9.523l-3.75-6.078h-19.25l-2.75,7.45v8.151
			C1624.125,437.352,1635.125,443.126,1649.875,437.352z"/>
		<path fill="#CEDBE4" d="M1621.544,393.838v6.994l2.754,4.463h14.136l2.02-5.471v-5.986
			C1640.452,393.838,1632.375,389.599,1621.544,393.838z"/>
	</g>
</g>
<g id="Layer_70">
	<path fill="#5A7A49" d="M1646.928,474.333c-6.874-10.614-19.794-6.305-29.928-5.083c-0.988,0.119-1.824,0.465-2.506,0.96
		c-1.416,0.091-2.814,0.773-3.812,2.267c-3.615,5.412-7.679,7.96-7.428,15.104c0.2,5.714,2.188,12.035,4.836,17.077
		c6.51,12.384,25.107,3.754,33.172-1.868C1651.141,495.9,1653.6,484.635,1646.928,474.333z"/>
	<path fill="#3E5E32" d="M1629.669,338.701c-1.737-6.473-4.663-12.32-6.946-18.475c-2.221-5.984-4.441-11.484-8.104-16.267
		c-5.494-7.174-13.694-10.563-20.308-15.73c-6.589-5.147-15.447-9.952-23.121-5.885c-1.726,0.915-3.102,2.271-4.477,3.869
		c-1.421,1.652-1.896,3.967-3.802,4.992c-3.733,2.005-7.018,2.86-9.644,7.167c-2.346,3.845-3.546,8.543-4.679,13.146
		c-0.513,2.087-1.021,4.169-1.619,6.221c-0.119,0.329-0.237,0.659-0.354,0.987c-0.104,0.144-0.189,0.271-0.271,0.394
		c-0.595-1.046-1.054-2.278-1.51-3.378c-1.869-4.516-3.46-8.905-6.737-12.056c-3.329-3.201-7.24-4.647-11.316-5.345
		c-7.89-1.349-14.945-0.3-21.237,6.305c-5.59,5.868-9.045,15.326-12.694,23.105c-4.834,10.303-8.701,20.665-9.713,32.75
		c-0.074,0.892,0.019,1.653,0.224,2.294c-0.117,0.339-0.212,0.712-0.277,1.127c-1.934,12.208,4.656,23.135,11.058,31.19
		c3.147,3.962,4.729,9.488,8.381,12.896c4.271,3.987,9.616,4.764,14.518,6.879c5.201,2.247,10.062,4.415,15.537,5.358
		c6.044,1.042,12.105,1.328,18.199,1.229c10.864-0.178,22.213-0.979,32.734-4.674c5.049-1.772,9.214-5.608,13.625-9.059
		c5.225-4.085,10.229-5.72,16.212-6.864c10.076-1.927,16.438-9.53,19.449-21.904
		C1636.042,365.638,1633.091,351.444,1629.669,338.701z"/>
	<path fill="#466C3B" d="M1464.312,353.604c-3.457-5.875-7.459-11.423-11.213-17.107c-3.387-5.13-6.566-10.293-10.587-14.971
		c-7.532-8.769-18.067-13.022-29.543-11.583c-12.352,1.548-22.249,9.101-31.094,17.341c-10.054,9.367-21.146,18.081-29.46,29.042
		c-2.858,3.768-5.513,7.684-8.452,11.39c-0.51,0.643-0.834,1.319-1.011,2.001c-0.482,0.021-0.967,0.034-1.454,0.035
		c-6.448,0.01-6.449,10.01,0,10c7.129-0.011,13.793-2.175,21.001-1.852c7.893,0.354,15.667,1.878,23.345,3.659
		c15.011,3.484,29.634,6.542,45.08,7.362c6.966,0.37,13.988,0.669,20.962,0.424c5.721-0.2,13.469-0.631,17.889-4.814
		C1478.302,376.459,1468.89,361.384,1464.312,353.604z"/>
</g>
<g id="Layer_67">
	<polyline fill="#E5997D" points="1308.332,391.028 1334.332,368.667 1512.377,357.333 1532.254,369 1534.332,389 	"/>
</g>
<g id="Layer_60">
	<polyline fill="#C7CBC4" points="1622.25,488.25 1624,437.805 1512.377,435 	"/>
	<polygon fill="#C1A28E" points="1556.665,369.334 1574.199,368.001 1572.665,374.181 1574.199,391.028 1556.665,391.028 
		1557.998,374.181 	"/>
	<polyline fill="#CCAB9B" points="1540,444.558 1630.998,444.558 1623.665,388 1468.665,387.286 	"/>
</g>
<g id="Layer_68">
	<path fill="#455542" d="M1616.354,471.682c-2.592-1.61-6.054-2.171-9.021-2.887c-3.453-0.833-4.709-3.705-6.454-6.307
		c-3.658-5.46-8.887-9.726-15.492-11.97c-5.873-1.994-10.718-1.218-16.776-1.124c-1.791,0.028-1.017-2.206-1.511-4.184
		c-0.714-2.84-3.701-5.102-6.556-6.033c-5.62-1.835-11.632-0.602-17.438-0.845c-4.344-0.182-9.012-1.858-12.257,1.907
		c-0.862,1.001-1.462,2.139-1.891,3.35c-1.872,0.649-3.433,2.119-3.659,4.41c-1.135,11.451-4.845,22.03-2.748,33.614
		c1.378,7.614,5.259,15.538,12.657,19.675c0.618,0.346,1.292,0.631,1.986,0.889c0.047,0.154,0.088,0.309,0.139,0.461
		c3.587,10.688,18.699,12.338,28.921,12.751c10.558,0.428,21.574-0.359,32.007-1.774c10.291-1.396,22.358-5.291,26.521-14.909
		C1628.816,489.383,1625.506,477.373,1616.354,471.682z"/>
</g>
<g id="Layer_69">
	<polyline fill="#DF9E7F" points="1478.5,386.286 1551.667,449.558 1498,463.75 	"/>
	<polyline fill="#D7997B" points="1249.312,423.372 1283.375,392.174 1478.5,386.286 1498,414.5 	"/>
	<polygon fill="#D0CCD2" points="1360.5,422 1343.5,422 1343.5,409.764 1359.5,410.764 	"/>
	<polygon fill="#D0CCD2" points="1426.537,422 1409.537,422 1409.537,410.764 1426.537,409.764 	"/>
	<rect x="1409.338" y="376.868" fill="#C98872" width="11.662" height="15.306"/>
</g>
<g id="Layer_62">
	<polyline fill="#D3C49D" points="1523.754,446.25 1532.254,503.416 1522,500.724 1403.084,502.105 	"/>
	<polyline fill="#B08571" points="1252.479,423.276 1501,413.491 1513,444.558 1522,500.724 1331,507.09 	"/>
	<polygon fill="#B48978" points="1523.754,446.25 1501,413.491 1513.801,449.558 	"/>
</g>
<g id="Layer_65">
	<g>
		<path fill="none" stroke="#CB927C" stroke-miterlimit="10" d="M1185.84,392.174c0,0,4.475-34.5-19.775-30.25"/>
		<path fill="#BDB38D" d="M1167.064,361.697c0,0-7.924-6.528-13,0C1154.064,361.697,1160.064,365.197,1167.064,361.697z"/>
	</g>
	<polygon fill="#C99D7B" points="1403.084,448.345 1413.593,448.345 1415.593,491.855 1403.084,491.855 	"/>
	<rect x="1402.206" y="439.558" fill="#CAA99A" width="7.338" height="10"/>
	<rect x="1409.537" y="439.558" fill="#D8BDB2" width="4.919" height="10"/>
</g>
<g id="Layer_66">
	<path fill="#D49A7A" d="M1028.559,378.65c59.836,7.427,141.12,0.989,141.12,0.989l20.177,11.389L1204,427.25l-63.593,21.095
		l-122.784-58.471C1017.623,389.874,1024.822,378.186,1028.559,378.65z"/>
	<path fill="#D89E82" d="M1028.559,378.65c0,0,132.364,4.95,142.161,0l19.136,12.378l-2.89,0.37l-16.246-10.521l11.953,10.956
		l-2.666,0.341l-12.021-9.729c0,0-133.885,2.146-139.731-2.063"/>
	<polyline fill="#DDD3C0" points="1179.167,428.167 1179.952,392.295 1189.855,391.028 1201.098,428.5 	"/>
</g>
<g id="Layer_64">
	<g id="Layer_63">
		<g>
			<polyline fill="#D3D5D0" points="1405.155,500.724 1675,500.724 1679.5,519.808 1403.084,516.108 			"/>
			<polyline fill="#DFE1DB" points="1413,513 1679.5,518 1561.442,650.682 			"/>
		</g>
	</g>
	<g id="Layer_61">
		<g>
			<polyline fill="#D0DED9" points="1378.5,537.334 1381.334,603.668 1224.667,624.001 1231.668,529.515 			"/>
			<path fill="#D0DED9" d="M1425.5,518"/>
			<polyline fill="#DAE5E0" points="1425.5,518 1427.668,587.499 1381.334,606.917 1378.5,537.334 			"/>
			<path fill="#BC9685" d="M1403.084,459.202c0,0-74.476,7-93.643,0c-19-6.939-21.5,78-21.5,78h90.5L1425.5,518L1403.084,459.202z"
				/>
			<polygon opacity="0.5" fill="#2F2632" enable-background="new    " points="1425.5,518 1403.143,459 1378.5,537 			"/>
			<polygon opacity="0.5" fill="#261D28" enable-background="new    " points="1384.811,517.027 1403.143,459 1425.5,518 			"/>
		</g>
	</g>
	<g id="Layer_58">
		<path fill="#33542B" d="M1524.023,556.46c-6.152-4.522-13.921-6.877-20.368-11.089c-1.889-1.233-3.69-2.715-4.902-4.631
			c-0.749-1.187,0.696-2.308,1.429-3.128c2.574-2.886,6.143-5.952,5.721-10.23c-0.443-4.502-4.75-7.521-8.981-8.195
			c-5.414-0.862-10.151,2.495-15.42,2.313c-5.898-0.204-11.5-5.744-16.672-8.123c-4.799-2.207-9.892-3.595-14.561-5.972
			c1.638-5.57,0.975-11.846-5.262-14.294c-7.964-3.127-17.524,2.312-20.578,9.747c-1.347,3.275-1.979,6.611-3.991,9.583
			c-2.252,3.322-6.594,5.361-10.191,6.779c-8.091,3.186-16.793,4.453-24.815,7.854c-3.864,1.639-7.258,3.735-10.249,6.708
			c-3.861,3.838-6.316,8.856-10.146,12.735c-7.06,7.148-19.296,7.024-25.357,15.343c-4.17,5.721-2.955,13.097-1.242,19.472
			c0.819,3.048,1.84,6.035,2.572,9.106c0.257,1.076,0.366,2.064,0.357,3.163c-0.166,0.129-0.489,0.409-0.887,0.579
			c-2.625,1.115-2.887,4.648-1.795,6.841c3.949,7.928,14.505,12.242,23.138,13.666c2.151,5.582,8.371,9.138,13.502,11.486
			c8.387,3.841,17.441,6.105,26.424,8.053c17.837,3.864,36.949,7.58,55.171,4.886c10.374-1.533,16.47-6.503,22.126-15.148
			c5.585-8.535,9.497-18.203,13.279-27.637c2.175-5.425,4.036-11,7.096-16.01c2.832-4.639,9.562-10.499,15.17-10.459
			c4.455,0.032,9.287,0.799,12.254-3.279C1529.502,562.921,1527.188,558.787,1524.023,556.46z"/>
	</g>
	<g id="Layer_56">
		<g>
			<g>
				<polyline fill="#E2E8E8" points="1312.5,455.5 1288,537 1275,537 1291.5,464.449 				"/>
				<polygon fill="#E1B7A2" points="905.75,474.396 913.658,423.169 1021.666,430.292 1272.5,422.667 1312.5,455.5 1291.5,464.449 
					1275,537 991.375,501.532 876,502 				"/>
				<polygon fill="#E6BCA6" points="1291.5,464.449 1272.5,422.667 1312.5,455.5 				"/>
			</g>
			<polygon fill="#E2CEC0" points="1218.25,479.5 1218.25,433.75 1231.75,433.75 1236.75,469.25 1229.75,479.5 			"/>
		</g>
	</g>
	<g id="Layer_48">
		<polyline fill="#C0C8D5" points="1066.333,644 1224.667,644 1219.333,613.309 1058.125,585 		"/>
		<polyline fill="#524853" points="1041.208,676.887 1199.542,676.887 1194.208,646.195 1033,617.887 		"/>
	</g>
	<g id="Layer_57">
		<g>
			<polygon fill="#EAF0F1" points="1234.875,563.125 1215.25,621 1283.375,588.625 1266,553.998 			"/>
			<g>
				<polyline fill="#CFD1D1" points="1263.525,556.405 1277.667,583.5 1221,614.167 1217,630.334 1292.667,593.334 
					1270.333,553.998 				"/>
				<polyline fill="#CACCCD" points="1277.667,583.5 1221,614.167 1217,630.334 1292.667,593.334 				"/>
			</g>
		</g>
		<polygon fill="#E5E6DE" points="1270.333,553.998 1212,510.667 1237.333,565.668 		"/>
		<polygon fill="#E4E0D5" points="1033,499.667 1212,510.667 1237.333,565.668 1217,630.334 1056.667,608.334 		"/>
		<path fill="#363A3D" d="M1244.759,573.604c-0.106-1.23-0.78-2.271-1.892-2.271c-0.949,0-1.998,1.038-1.893,2.271
			c0.112,1.285,0.067,2.572,0.063,3.861c-0.01,2.932,3.772,2.93,3.782,0C1244.826,576.177,1244.871,574.89,1244.759,573.604z"/>
		<path fill="#363A3D" d="M1258.926,568.104c-0.106-1.23-0.779-2.271-1.892-2.271c-0.949,0-1.998,1.038-1.892,2.271
			c0.111,1.285,0.066,2.572,0.062,3.861c-0.01,2.932,3.771,2.93,3.782,0C1258.993,570.677,1259.038,569.39,1258.926,568.104z"/>
	</g>
	<g id="Layer_55">
		<polygon fill="#312A3A" points="1107.5,422.667 1092.001,380.333 1086.334,398.167 1096.917,422.667 		"/>
		<polyline fill="#DDDBE1" points="1076.5,430.833 1086.334,398.167 1096.917,422.667 1096.917,427.833 		"/>
		<polyline fill="#312A3A" points="969.001,390 981.001,387.333 961.667,336.333 944.333,343 		"/>
		<path fill="#E9F0F0" d="M969.001,390l-49.333,1.333l20-57C939.667,334.333,969.001,380,969.001,390z"/>
		<polyline fill="#BA5D5E" points="1092.001,380.333 933.403,383.774 916.667,425.667 1076.001,433 		"/>
		<g>
			<path fill="#DECEC1" d="M722.994,427.293L847,328l86.333-10.667l28.333,19L944.333,343l-21.356,79.667
				C922.977,422.667,726.32,433.586,722.994,427.293z"/>
			<path fill="#C89476" d="M722.994,427.293L769.568,390l133.765-4.333l-7,9.333l33.767,1.092l-4.767,26.575
				C925.334,422.667,731.987,439.252,722.994,427.293z"/>
		</g>
	</g>
	<g id="Layer_49">
		<g>
			<polyline fill="#ECA882" points="821.5,425.667 665,428.25 646.75,467.906 808.088,458.093 			"/>
			<polyline fill="#F5C6AA" points="958.667,448.333 925.334,422.667 821.5,425.667 806.333,462.334 902,484.666 928.333,480.564 
				937.333,455.667 			"/>
		</g>
	</g>
	<g id="Layer_51">
		<polygon fill="#EDE5CB" points="928.333,480.564 937.333,455.5 958.667,448.333 965.333,455.5 943,477.333 		"/>
	</g>
	<g id="Layer_53">
		<g>
			<polyline fill="#D3A79C" points="883.25,489.388 883.25,485.73 904.75,480.564 905.75,491.855 			"/>
			<g>
				<polygon fill="#F4B28B" points="905.75,480.75 884.25,485.916 865,455.5 				"/>
				<polyline fill="#EDAD88" points="615.688,488.46 634.5,466 865,455.5 884.25,485.916 884.25,493.291 				"/>
			</g>
		</g>
	</g>
	<g id="Layer_52">
		<g>
			<polyline fill="#EAB999" points="835.5,491.891 822,470.331 622,479.5 601.607,499 			"/>
			<polyline fill="#E0C4B1" points="853.992,489.574 821.5,470.347 826.5,489.574 			"/>
		</g>
	</g>
	<g id="Layer_44">
		<g>
			<polyline fill="#DDD3C0" points="478.333,473.75 478.333,459.333 495,459.333 496.25,473.587 			"/>
			<polygon fill="#EAB999" points="479.417,452.5 475.5,460.5 492.333,460.5 496.25,452.5 			"/>
			<polygon fill="#825344" points="496.25,460.5 496.25,452.5 492.333,460.5 			"/>
			<g>
				<g>
					<path fill="#DB9977" d="M374.828,478.084c69.174,3.248,176.32-10.178,176.32-10.178l23.207,12.054l27.253,31.927
						l-60.512,41.235L362.25,489.964C362.25,489.964,370.507,477.881,374.828,478.084z"/>
					<path fill="#E8A17D" d="M374.828,478.084c0,0,166.248-5.985,177.516-11.226l22.012,13.102l-3.324,0.392l-18.688-11.135
						l3.004,14.688l-3.266,0.678l-2.882-13.706c0,0-167.996,13.497-174.721,9.042"/>
				</g>
				<polyline fill="#DDD3C0" points="534.334,557 552.082,484.582 574.355,479.96 598.333,529 				"/>
			</g>
		</g>
	</g>
	<g id="Layer_50">
		<g>
			<path fill="#CAC3C2" d="M697.261,660l12.961-87.71l-157.667,4.459c0,0-11.08,66.028-11,68.356
				C541.635,647.433,697.261,660,697.261,660z"/>
			<polygon fill="#C65E5D" points="572.333,489.668 712.056,487.041 660.122,598.926 520.456,594.395 			"/>
			<polygon fill="#B0464C" points="712.056,487.041 684.15,587.799 660.122,598.926 			"/>
		</g>
	</g>
	<g id="Layer_43">
		<g>
			<polygon fill="#ECEAF3" points="508,524.305 542,544.801 560.667,493.036 			"/>
			<polygon fill="#D2697A" points="346.784,524.799 518.333,524.799 568.333,491.891 386.25,496 			"/>
		</g>
	</g>
	<g id="Layer_47">
		<path fill="#D2697A" d="M329.762,528.411"/>
		<g>
			<polyline fill="#F6A97D" points="541.098,543.02 580.334,626.667 460.578,628.907 			"/>
			<path fill="#F6A97D" d="M460.578,628.907l-219.757-71.727c0,0,7.996-37.795,14.114-37.507c97.93,4.598,253.308,6.28,253.308,6.28
				l32.854,17.063"/>
			<path fill="#E6AF99" d="M254.935,519.675c0,0,238.184,5.124,255,4.797l31.162,18.548l-4.706,0.555l-26.456-15.764l4.254,20.793
				l-4.624,0.959l-4.081-19.403c0,0-241.523-1.58-251.045-7.888"/>
			<polygon fill="#DDD3C0" points="509.565,549.562 541.098,543.02 561.667,592.086 576,635.149 476,627.548 493.118,586.366 			"/>
		</g>
	</g>
	<g id="Layer_45">
		<g>
			<polyline fill="#EAE6E2" points="262.25,535 346.784,526.75 386.25,496 315.5,486.02 248.5,488 			"/>
			<polyline fill="#5A433B" points="282.54,493.185 282.54,517 305.735,518.273 362,507.75 376.25,495 375,473.75 324,489.236 
				282.54,491.75 			"/>
			<g>
				<path fill="#BEBCB1" d="M135.75,449.26"/>
				<path fill="#988E7A" d="M184.373,460.508c0,0-134.873,6.011-48.623-11.249"/>
				<polyline fill="#C9C9C0" points="106.944,458.175 106.944,518.954 190.17,520.297 184.373,460.508 				"/>
				<polyline fill="#24263B" points="137,438 183,439.029 184.373,460.508 135.75,449.26 				"/>
				<g>
					<polygon fill="#BEBCB1" points="281.034,493.52 186.034,486.5 183,439.029 271.034,441 					"/>
					<polyline fill="#C8C6BA" points="271,441 312.5,405 315.5,486.02 281,493.52 					"/>
					<polygon fill="#BBC3BE" points="120.5,420 137,438 271,441 312.5,405 205.5,409.5 186.5,405 					"/>
					<polyline fill="#D44163" points="277.485,406.473 242.47,440.361 271,441 312.5,405 					"/>
				</g>
				<polyline fill="#CEBBA2" points="139.25,519.568 176.751,486.5 293.751,488.75 256.686,520.973 				"/>
			</g>
		</g>
	</g>
	<g id="Layer_40">
		<g>
			<g>
				<path fill="#DB9977" d="M0,516c131.322,15.001,309.717,2,309.717,2L354,541l52,60.918L245.475,656.76L-24,538.668
					C-24,538.668-8.2,515.062,0,516z"/>
				<path fill="#E8A17D" d="M0,516c0,0,290.5,10,312,0l42,25l-6.344,0.747L312,520.5l5.352,24.812l-5.852,0.688l-5.5-22.335
					c0,0-293.834,4.333-306.667-4.167"/>
			</g>
			<polyline fill="#DDD3C0" points="300.068,584.08 311.5,546.002 354,541 393.5,599.023 			"/>
		</g>
	</g>
	<g id="Layer_39">
		<g>
			<polyline fill="#EBF3F4" points="-44,908.666 103,901 254.935,640.543 38.999,546.002 -34,580.335 			"/>
			<polyline fill="#A21E24" points="-4.335,577.667 38.999,546.002 230.188,635.149 237.391,628.686 38.999,536.668 -2,534.668 			
				"/>
			<polyline opacity="0.5" fill="#E26981" enable-background="new    " points="0,566.668 32.332,541.335 -4.857,538.668 			"/>
			<g>
				<path fill="#9E9283" d="M-7.796,701.433l-7-55.896l77.396-9.693l7,55.896L-7.796,701.433z M-8.097,650.744l5.508,43.989
					l65.489-8.201l-5.508-43.989L-8.097,650.744z"/>
				
					<rect x="-5.622" y="646.506" transform="matrix(0.9922 -0.1243 0.1243 0.9922 -82.9101 8.5898)" fill="#EDF5F3" width="65.997" height="44.331"/>
				
					<rect x="-1.139" y="652.118" transform="matrix(0.9922 -0.1243 0.1243 0.9922 -83.1681 6.6791)" fill="#2C3449" width="26.153" height="35.348"/>
				
					<rect x="28.691" y="648.116" transform="matrix(0.9922 -0.1243 0.1243 0.9922 -82.4377 10.3558)" fill="#2C3449" width="26.153" height="35.348"/>
			</g>
			<g>
				<path fill="#9E9283" d="M-9.71,809.839l-7.498-55.896l97.896-11.693l7.498,55.896L-9.71,809.839z M4.962,757.15l5.9,43.988
					l70.148-8.2l-5.9-43.989L4.962,757.15z"/>
				<polygon fill="#EDF5F3" points="-10.032,759.15 75.109,748.949 81.01,792.938 -4.131,803.14 				"/>
				<polygon fill="#2C3449" points="21.588,758.92 44.089,756.289 48.794,791.365 26.293,793.996 				"/>
				<polygon fill="#2C3449" points="47.444,755.63 69.944,752.999 74.649,788.075 52.148,790.706 				"/>
				<polygon fill="#2C3449" points="-4.546,762.42 17.955,759.789 22.66,794.865 0.159,797.496 				"/>
			</g>
			<path fill="#9E9283" d="M136.694,677.798l-5.372-57.43l36.984-4.979l5.372,57.431L136.694,677.798z M136.464,626.433
				l4.227,45.196l27.846-4.161l-4.227-45.196L136.464,626.433z"/>
			<polygon fill="#EDF5F3" points="136.464,625.719 164.309,622.271 168.537,667.468 140.691,670.915 			"/>
			<polygon fill="#2C3449" points="140.691,629.771 160.608,626.433 163.979,662.472 144.062,665.811 			"/>
			<path fill="#9E9283" d="M29.322,595.132l-2.704-35.284l18.612-3.06l2.703,35.284L29.322,595.132z M29.206,563.574l2.127,27.768
				l14.014-2.557l-2.127-27.769L29.206,563.574z"/>
			<polygon fill="#EDF5F3" points="29.206,563.135 43.219,561.018 45.347,588.785 31.333,590.903 			"/>
			<polygon fill="#2C3449" points="31.333,565.625 41.356,563.574 43.053,585.716 33.03,587.767 			"/>
			<path fill="#9E9283" d="M19.917,563.574l-10.856,1.784c-2.489,1.716-5.003,3.394-7.459,5.155l2.406,31.403l18.612-3.06
				L19.917,563.574z M3.892,570.36l14.013-2.558l2.127,27.769l-14.014,2.557L3.892,570.36z"/>
			<polygon fill="#EDF5F3" points="3.892,569.921 17.905,567.804 20.033,595.571 6.019,597.689 			"/>
			<polygon fill="#2C3449" points="6.019,572.411 16.042,570.36 17.739,592.502 7.716,594.553 			"/>
			<polyline fill="#A21E24" points="1.806,573.18 13.737,564.461 11.166,561.018 -0.667,569.5 			"/>
		</g>
	</g>
	<g id="Layer_7">
		<g>
			<polyline fill="#F4F2E4" points="687.5,621 687.5,709.484 1003.5,691.5 1073,669.25 1068.984,547.276 996.5,479.5 			"/>
			<polyline fill="#E05065" points="1041.125,556.5 1079.666,546.666 1081.004,543.998 1044.338,553.998 			"/>
			<polygon fill="#DA4D62" points="922.977,488.381 1011.671,470.331 1081.004,543.998 1044.338,553.998 991.093,488.665 			"/>
			<polygon fill="#E45167" points="988.408,494.647 991.093,487.21 1044.338,553.998 1041.125,556.5 			"/>
			<polygon fill="#E45167" points="672.723,630.041 710.056,492.041 991.093,487.21 933.631,646.375 			"/>
		</g>
	</g>
	<g id="Layer_4">
		<g>
			<path fill="none" stroke="#42171A" stroke-miterlimit="10" d="M1039.62,484.666c0,0,276.38,67.044,690.38,37.189"/>
			<path fill="none" stroke="#42171A" stroke-width="2" stroke-miterlimit="10" d="M1033,491.855c0,0,335,102.637,585,37.658"/>
			<path fill="#DCDCE6" d="M972.334,537.001c0,0,7-9.999,9-10.333s23,0,23,0v1.666l20.333,1v2.426h-20l-0.333,5.241
				C1004.334,537.001,982.667,543.001,972.334,537.001z"/>
			<polygon fill="#B3AEA0" points="1019.543,470.334 1038.543,470.334 1052.875,661.001 1025.209,661.001 			"/>
		</g>
	</g>
	<g id="Layer_59">
		<polyline fill="#C93957" points="1730,422 1671.189,422 1540,644 1730,686.5 		"/>
	</g>
	<g id="Layer_54">
		<g>
			<polyline fill="#F2DFC7" points="1083.886,708.492 1056.646,670.582 1229.646,638.225 			"/>
			<polyline fill="none" stroke="#6B6B6B" stroke-width="5" stroke-miterlimit="10" points="1058.125,667.024 1059.312,649.223 
				1215.25,627.75 			"/>
		</g>
	</g>
	<g id="Layer_5">
		<g>
			<path fill="#2E212B" d="M1670.121,691.757c-3.598-4.689-62.975-3.489-68.684-3.688c-6.637-0.232-13.522,1.442-19.924,3.001
				c-6.979,1.697-13.98,3.54-20.809,5.765c-23.225,7.569-44.051,20.269-64.746,33.1c-11.546,4.048-22.479,9.528-30.495,18.531
				c-0.146,0.166-0.26,0.341-0.382,0.515c-10.935,4.085-21.411,10.3-31.727,14.896c-16.301,7.263-33.458,16.763-46.893,28.59
				c-4.855,4.274,2.234,11.276,7.07,7.07c7.498-6.52,16.793-10.433,26.313-13.236c1.032,0.542,2.238,0.781,3.479,0.522
				c11.765-2.454,23.196-7.372,33.923-12.68c8.769-4.338,18.68-9.759,25.155-17.566c11.25-5.64,22.194-12.086,32.999-18.573
				c5.394-2.111,10.746-4.302,15.832-6.988c3.127-1.65,6.162-3.504,9.16-5.436c8.527-2.178,15.515-8.571,24.125-12.261
				c1.89-0.811,2.644-2.241,2.618-3.731c0.332-0.141,0.661-0.291,0.998-0.427c0.173-0.069,0.347-0.131,0.52-0.197
				c0.851-0.163,1.705-0.333,2.542-0.477c12.51-2.138,29.442-2.375,39.265,7.05c3.354,3.221,55.205,4.783,55.615,0.55
				C1666.635,710.364,1673.855,696.628,1670.121,691.757z"/>
			<polyline fill="#E6E7CE" points="1387.209,801.554 1571.072,707.043 1663.902,707.043 1683.902,790.043 1410.902,858.043 			"/>
			<g>
				<polyline fill="#B04F4F" points="1221,622.125 1503,566.793 1623,659.824 				"/>
				<polyline fill="#B85253" points="1392.713,791.617 1571.58,696.201 1753.41,688 1631.41,656.584 1221.41,622 1073.41,703 
					1052.875,716 				"/>
			</g>
		</g>
	</g>
	<g id="Layer_9">
		<polygon fill="#75393C" points="810.333,663.399 810.333,647.02 833.5,648.5 834.667,666.5 		"/>
		<polyline fill="#7C3E3F" points="848.833,645.5 833.5,648.5 834.667,666.5 848.833,667.667 		"/>
		<polygon fill="#EFE1D5" points="818,638.168 805,646.668 832.33,648.467 		"/>
		<polygon fill="#F1BC95" points="857.5,643.317 832.415,649.168 817.206,637.668 837.873,631.918 		"/>
		<polyline fill="#F1BC95" points="801.833,647.02 817.206,637.668 818,638.168 805,646.668 		"/>
	</g>
	<g id="Layer_6">
		<g>
			<polyline fill="#C68B65" points="-4.857,895.071 263.63,592.086 895.098,677.582 991.093,663.399 932.64,769.078 0,973 			"/>
			<polygon fill="#CD8F6B" points="260.684,595.41 274,579 865,671 991.093,663.399 978.316,686.5 857,686.5 			"/>
			<line fill="none" x1="8.17" y1="978.5" x2="8.17" y2="993.5"/>
		</g>
	</g>
	<g id="Layer_10">
		<g>
			<polyline fill="#DBC6A5" points="205.578,914.279 193.667,816.495 240.334,832.666 247.283,904.686 			"/>
			<polyline fill="#E6D0AE" points="247.667,908.666 240.334,832.666 306.209,816.495 317,892.666 			"/>
			<polyline fill="#512525" points="212.75,752 240.334,764.75 286.5,753.25 303.2,731.092 259.684,719.75 			"/>
			<polyline fill="#934443" points="193.667,812.75 190,752 233.79,757.5 240.081,829.344 			"/>
			<polyline fill="#9E4A48" points="240.429,832.947 233.79,757.5 293.43,749.5 303.2,818.462 			"/>
			<polyline fill="#8E433E" points="192,817.406 192.417,803.245 240.334,818.316 240.334,832.666 			"/>
			<polyline fill="#974742" points="240.334,832.666 240.334,818.316 306.209,802.146 309.717,816.495 			"/>
			<polygon fill="#F0BE9B" points="152.5,747.25 215.041,758.5 263.417,724.833 206.5,707.25 			"/>
			<polygon fill="#F0BE9B" points="206.5,707.25 263.417,724.833 309.717,736.667 320.333,732.667 			"/>
		</g>
	</g>
	<g id="Layer_8">
		<g>
			<polygon fill="#F4F4F4" points="1052.666,657.999 1099.548,709.484 1001.381,731.217 			"/>
			<polygon fill="#CD8F6B" points="933.913,746.736 1003.667,645.665 1052.666,657.999 999.667,733.665 			"/>
			<polyline fill="#CD8F6B" points="1099.548,709.484 1052.666,657.999 1101.7,709.149 			"/>
			<path fill="#CD8F6B" d="M1001.381,731.217"/>
			<polygon fill="#AD9384" points="991.375,656.375 1041.125,667.024 1052.875,650.375 1006.625,639.375 			"/>
			<polyline fill="#AD9384" points="1061.727,664.75 1052.875,650.375 1063.375,664.75 			"/>
			<polygon fill="#F4F4F4" points="1041.125,667.024 1061.727,664.75 1052.875,650.375 			"/>
		</g>
	</g>
	<g id="Layer_15">
		<g>
			<polyline fill="#C1C3BC" points="1436,834.282 1497.75,807.25 1497.75,836.25 1455.375,861.25 			"/>
			<polyline fill="#DBE9F0" points="1455.375,851.75 1473,841.959 1589.179,863.705 1548.102,953.487 			"/>
			<polyline fill="#DBE9F0" points="1441.818,834.282 1507.25,804.75 1403.5,795.5 			"/>
			<polyline fill="#CCCDC4" points="1637,791.959 1604,784.502 1473,841.959 1589.179,865.664 			"/>
			<rect x="1567.999" y="782.332" fill="#454545" width="14.334" height="6.334"/>
			<path fill="#AAB3B8" d="M1567.666,830.5v-43.834c0,0,5.42,0.992,7.25,1c1.953,0.009,7.75-1,7.75-1V830.5
				C1582.666,830.5,1574.332,834.334,1567.666,830.5z"/>
			<path fill="#BBC4C9" d="M1563.5,780.666c0,0,10.5,7.667,22.833,0c0,0-4.994-7.018-11.417-7.334
				C1571.348,773.156,1567.339,776.827,1563.5,780.666z"/>
		</g>
	</g>
	<g id="Layer_3">
		<path fill="#F0556B" d="M2.829,960.919c-6.458,1.49-10.484,7.935-8.993,14.392l5.849,25.334c1.49,6.457,7.935,10.483,14.392,8.993
			"/>
		<g>
			<polyline fill="#E45167" points="8.17,993.5 1569.17,993.5 1297.17,686.5 8.17,978.5 			"/>
			<polyline fill="#F0556B" points="1292.5,694.5 1541,973 1563.5,973 1313.5,688 			"/>
			<path fill="#F0556B" d="M14.076,1009.638l1288.912-313.186c6.457-1.49,16.252-1.995,14.762-8.452l-8.617-15.273
				c-4.509-6.904-7.935-10.482-14.392-8.992L2.829,960.919"/>
		</g>
	</g>
	<g id="Layer_11">
		<polyline fill="#A6674F" points="1540,973.001 1738,543.999 1729,973.001 		"/>
	</g>
	<g id="Layer_13">
		<g>
			<polyline fill="#ACAAA3" points="1577,978.5 1730,667.667 1730,742.25 1599,973 			"/>
			<polygon fill="#B76F58" points="1541,973 1579.707,973 1730,667.667 1730,561.332 			"/>
		</g>
	</g>
</g>
</svg>
