<?xml version="1.0" encoding="utf-8"?>
<!-- Generator: Adobe Illustrator 16.0.0, SVG Export Plug-In . SVG Version: 6.00 Build 0)  -->
<!DOCTYPE svg PUBLIC "-//W3C//DTD SVG 1.1//EN" "http://www.w3.org/Graphics/SVG/1.1/DTD/svg11.dtd">
<svg version="1.1" xmlns="http://www.w3.org/2000/svg" xmlns:xlink="http://www.w3.org/1999/xlink" x="0px" y="0px" width="1440px"
	 height="900px" viewBox="0 0 1440 900" enable-background="new 0 0 1440 900" xml:space="preserve">
<g id="Layer_8">
	<rect x="-189.274" y="-214.166" fill="#00A14B" width="1858.905" height="1278.083"/>
</g>
<g id="Layer_7">
</g>
<g id="Layer_9">
</g>
<g id="Layer_3">
</g>
<g id="Layer_4">
</g>
<g id="Layer_1">
	<circle fill="#F47621" stroke="#F68B1F" stroke-width="14" stroke-miterlimit="10" cx="228.525" cy="351.701" r="82.877"/>
	<circle fill="#F47621" stroke="#F68B1F" stroke-width="14" stroke-miterlimit="10" cx="1222.467" cy="350.441" r="82.877"/>
	<polygon fill="#ED1C24" points="1222.467,336.416 1227.674,346.966 1239.317,348.658 1230.893,356.871 1232.882,368.468 
		1222.467,362.993 1212.053,368.468 1214.041,356.871 1205.616,348.658 1217.26,346.966 	"/>
	<polygon fill="#ED1C24" points="1269.485,336.416 1274.692,346.967 1286.336,348.659 1277.911,356.871 1279.9,368.468 
		1269.485,362.994 1259.071,368.468 1261.06,356.871 1252.635,348.659 1264.278,346.967 	"/>
	<polygon fill="#ED1C24" points="1177.467,336.416 1182.674,346.967 1194.317,348.659 1185.893,356.871 1187.882,368.468 
		1177.467,362.994 1167.053,368.468 1169.041,356.871 1160.616,348.659 1172.26,346.967 	"/>
	<polygon fill="#ED1C24" points="1199.467,375.468 1204.674,386.019 1216.317,387.711 1207.893,395.923 1209.882,407.521 
		1199.467,402.046 1189.053,407.521 1191.041,395.923 1182.616,387.711 1194.26,386.019 	"/>
	<polygon fill="#ED1C24" points="1245.467,375.468 1250.674,386.019 1262.317,387.711 1253.893,395.923 1255.882,407.521 
		1245.467,402.046 1235.053,407.521 1237.041,395.923 1228.616,387.711 1240.26,386.019 	"/>
	<polygon fill="#ED1C24" points="1245.467,297.416 1250.674,307.966 1262.317,309.658 1253.893,317.871 1255.882,329.468 
		1245.467,323.993 1235.053,329.468 1237.041,317.871 1228.616,309.658 1240.26,307.966 	"/>
	<polygon fill="#ED1C24" points="1199.467,297.364 1204.674,307.915 1216.317,309.606 1207.893,317.819 1209.882,329.416 
		1199.467,323.941 1189.053,329.416 1191.041,317.819 1182.616,309.606 1194.26,307.915 	"/>
	<polygon fill="#ED1C24" points="226.896,336.1 232.104,346.651 243.747,348.343 235.322,356.555 237.312,368.152 226.896,362.678 
		216.482,368.152 218.471,356.555 210.046,348.343 221.689,346.651 	"/>
	<circle fill="#F47621" stroke="#F68B1F" stroke-width="14" stroke-miterlimit="10" cx="311.402" cy="559.538" r="82.877"/>
	<polygon fill="#ED1C24" points="292.923,526.911 298.13,537.462 309.773,539.154 301.349,547.366 303.338,558.964 292.923,553.489 
		282.509,558.964 284.497,547.366 276.072,539.154 287.716,537.462 	"/>
	<polygon fill="#ED1C24" points="326.624,569.858 331.831,580.409 343.475,582.102 335.05,590.313 337.039,601.911 326.624,596.437 
		316.21,601.911 318.198,590.313 309.773,582.102 321.417,580.409 	"/>
	<circle fill="#F47621" stroke="#F68B1F" stroke-width="14" stroke-miterlimit="10" cx="482.694" cy="747.154" r="82.877"/>
	<polygon fill="#ED1C24" points="460.715,752.475 465.922,763.025 477.565,764.718 469.141,772.93 471.13,784.527 460.715,779.053 
		450.301,784.527 452.289,772.93 443.864,764.718 455.508,763.025 	"/>
	<polygon fill="#ED1C24" points="504.916,752.475 510.123,763.025 521.767,764.718 513.342,772.93 515.331,784.527 504.916,779.053 
		494.502,784.527 496.49,772.93 488.065,764.718 499.709,763.025 	"/>
	<polyline fill="#ED1C24" points="482.694,712.393 487.901,722.943 499.545,724.636 491.12,732.848 493.109,744.445 
		482.694,738.971 472.28,744.445 474.269,732.848 465.844,724.636 477.487,722.943 482.694,712.393 	"/>
	<circle fill="#F47621" stroke="#F68B1F" stroke-width="14" stroke-miterlimit="10" cx="728.995" cy="804.795" r="82.877"/>
	<polygon fill="#ED1C24" points="706.525,812.615 711.732,823.166 723.376,824.859 714.951,833.07 716.94,844.668 706.525,839.193 
		696.111,844.668 698.1,833.07 689.675,824.859 701.318,823.166 	"/>
	<polygon fill="#ED1C24" points="750.727,812.615 755.934,823.166 767.577,824.859 759.152,833.07 761.142,844.668 750.727,839.193 
		740.312,844.668 742.301,833.07 733.876,824.859 745.52,823.166 	"/>
	<polygon fill="#ED1C24" points="706.525,772.535 711.732,783.086 723.376,784.779 714.951,792.99 716.94,804.588 706.525,799.113 
		696.111,804.588 698.1,792.99 689.675,784.779 701.318,783.086 	"/>
	<polygon fill="#ED1C24" points="750.727,772.536 755.934,783.087 767.577,784.78 759.152,792.991 761.142,804.589 750.727,799.114 
		740.312,804.589 742.301,792.991 733.876,784.78 745.52,783.087 	"/>
	<circle fill="#F47621" stroke="#F68B1F" stroke-width="14" stroke-miterlimit="10" cx="963.043" cy="747.445" r="82.877"/>
	<polygon fill="#ED1C24" points="938.524,764.938 943.731,775.489 955.375,777.183 946.95,785.394 948.939,796.991 938.524,791.517 
		928.11,796.991 930.099,785.394 921.674,777.183 933.317,775.489 	"/>
	<polygon fill="#ED1C24" points="987.28,765.053 992.487,775.604 1004.131,777.297 995.706,785.508 997.695,797.105 987.28,791.631 
		976.866,797.105 978.854,785.508 970.43,777.297 982.073,775.604 	"/>
	<polyline fill="#ED1C24" points="926.497,718.393 931.704,728.943 943.348,730.637 934.923,738.848 936.912,750.445 
		926.497,744.971 916.083,750.445 918.071,738.848 909.646,730.637 921.29,728.943 926.497,718.393 	"/>
	<polyline fill="#ED1C24" points="999.589,718.393 1004.796,728.943 1016.439,730.637 1008.015,738.848 1010.004,750.445 
		999.589,744.971 989.175,750.445 991.163,738.848 982.738,730.637 994.382,728.943 999.589,718.393 	"/>
	<polygon fill="#ED1C24" points="963.043,689.899 968.25,700.45 979.894,702.144 971.469,710.354 973.458,721.952 963.043,716.478 
		952.629,721.952 954.617,710.354 946.192,702.144 957.836,700.45 	"/>
	<circle fill="#F47621" stroke="#F68B1F" stroke-width="14" stroke-miterlimit="10" cx="1146.07" cy="559.538" r="82.877"/>
	<polygon fill="#ED1C24" points="1121.552,577.031 1126.759,587.582 1138.402,589.275 1129.978,597.486 1131.967,609.084 
		1121.552,603.609 1111.138,609.084 1113.126,597.486 1104.701,589.275 1116.345,587.582 	"/>
	<polygon fill="#ED1C24" points="1170.308,577.146 1175.515,587.696 1187.158,589.39 1178.733,597.601 1180.723,609.198 
		1170.308,603.724 1159.894,609.198 1161.882,597.601 1153.457,589.39 1165.101,587.696 	"/>
	<polygon fill="#ED1C24" points="1109.524,530.485 1114.731,541.036 1126.375,542.729 1117.95,550.94 1119.939,562.538 
		1109.524,557.063 1099.11,562.538 1101.099,550.94 1092.674,542.729 1104.317,541.036 	"/>
	<polygon fill="#ED1C24" points="1182.616,530.485 1187.823,541.036 1199.467,542.729 1191.042,550.94 1193.031,562.538 
		1182.616,557.063 1172.202,562.538 1174.19,550.94 1165.766,542.729 1177.409,541.036 	"/>
	<polygon fill="#ED1C24" points="1146.07,505.992 1151.277,516.543 1162.921,518.236 1154.496,526.447 1156.485,538.045 
		1146.07,532.57 1135.656,538.045 1137.645,526.447 1129.22,518.236 1140.863,516.543 	"/>
	<polygon fill="#ED1C24" points="1146.07,545.979 1151.277,556.529 1162.921,558.223 1154.496,566.434 1156.485,578.031 
		1146.07,572.557 1135.656,578.031 1137.645,566.434 1129.22,558.223 1140.863,556.529 	"/>
</g>
<g id="Layer_2">
	<g>
		<path opacity="0.7" fill="#00AEEF" d="M294.986,448.302"/>
		<path opacity="0.7" fill="#00AEEF" d="M1151.766,444.283"/>
		<path opacity="0.7" fill="#00AEEF" d="M381.965,344.922"/>
		<path opacity="0.7" fill="#00AEEF" d="M383.716,353.571"/>
		<path opacity="0.7" fill="#00AEEF" d="M1064.252,342.651"/>
		<path opacity="0.7" fill="#00AEEF" d="M1062.651,351.33"/>
		<path opacity="0.7" fill="#00AEEF" d="M1117.556,184.838"/>
		<g>
			<g id="XMLID_3_">
				<g>
					<path fill="#E2EAF3" d="M884.43,423.917c1.152,5.676-0.312,11.536-1.934,16.971c-2.765,9.244-6.451,17.997-7.2,27.741
						c-0.485,6.31-0.576,12.67-0.428,18.988c0.091,3.793,0.32,7.652,0.247,11.478c-0.329,0.251-0.643,0.542-0.897,0.884
						c-2.32,3.06-3.579,6.452-4.328,9.994l-0.23-0.05c0.214-0.983,0.411-1.976,0.576-2.967c0.954-5.777,0.864-11.521,0.699-17.355
						c-0.329-11.761-0.807-24.447,2.987-35.726c2.37-7.019,5.184-14.137,6.41-21.48c0.872-5.218,0.773-10.72-2.469-15.146
						c-4.525-6.185-11.989-9.761-18.795-12.704c-11.998-5.201-24.357-9.894-36.923-13.912l0.214-0.684
						c9.899,3.176,19.691,6.727,29.369,10.502c8.113,3.167,16.713,6.277,23.814,11.495
						C879.616,414.932,883.394,418.741,884.43,423.917z"/>
					<path fill="#E2EAF3" d="M877.863,417.249c3.242,4.426,3.341,9.927,2.469,15.146c-1.227,7.344-4.04,14.462-6.41,21.48
						c-3.794,11.278-3.316,23.965-2.987,35.726c0.165,5.835,0.255,11.578-0.699,17.355c-0.165,0.991-0.362,1.983-0.576,2.967
						c-1.127,5.043-2.896,9.937-4.748,14.737c-4.354,11.253-9.076,22.039-12.056,33.792c-2.979,11.77-5.341,23.689-9.134,35.243
						c-1.736,5.293-3.785,10.636-6.657,15.412c-2.938,4.893-7.48,10.536-11.784,14.129c-17.527,14.611-33.936,30.291-54.549,40.51
						c-21.083,10.462-47.481,10.086-70.374,8.128c-3.316-0.284-6.625-0.692-9.916-1.218c-17.758-2.851-34.923-9.285-49.728-19.755
						c-18.663-13.203-29.468-34.143-36.643-55.64c-4.337-12.979-7.225-26.406-10.122-39.769
						c-3.103-14.329-6.863-28.499-9.883-42.836c-5.883-27.924-8.624-56.398-11.216-84.797c9.077-2.767,18.227-5.318,27.262-8.227
						c12.739-4.101,25.197-9.177,37.722-13.862c12.623-4.727,25.238-9.453,37.853-14.17c12.236-4.584,24.275-9.377,37.104-11.995
						c24.991-5.101,50.954-3.117,75.756,2.101c11.281,2.368,22.514,5.385,33.599,8.928c12.565,4.018,24.925,8.71,36.923,13.912
						C865.874,407.488,873.338,411.064,877.863,417.249z"/>
					<path fill="#E2EAF3" d="M869.659,509.923l0.23,0.05c-1.095,5.177-1.086,10.695-1.72,16.005
						c-0.058,0.483-0.041,0.917,0.032,1.309c-1.538,3.9-3.185,7.76-4.748,11.661c-4.501,11.228-7.175,22.848-9.973,34.601
						c-2.732,11.47-5.407,23.748-11.076,34.167c-4.913,9.027-13.85,17.121-21.42,23.715c-8.468,7.377-16.984,14.763-26.185,21.197
						c-9.472,6.627-19.602,12.986-30.711,16.346c-10.861,3.276-22.086,4.468-33.385,4.769c-13.487,0.358-27.073-0.084-40.396-2.276
						l0.132-0.809c3.292,0.525,6.6,0.934,9.916,1.218c22.893,1.958,49.291,2.334,70.374-8.128
						c20.613-10.219,37.021-25.898,54.549-40.51c4.304-3.593,8.847-9.236,11.784-14.129c2.872-4.776,4.921-10.119,6.657-15.412
						c3.793-11.554,6.155-23.474,9.134-35.243c2.979-11.753,7.702-22.539,12.056-33.792
						C866.763,519.859,868.532,514.966,869.659,509.923z"/>
					<path fill="#E2EAF3" d="M822.359,389.95l-0.214,0.684c-11.085-3.543-22.317-6.56-33.599-8.928
						c-24.802-5.218-50.765-7.202-75.756-2.101c-12.829,2.618-24.868,7.411-37.104,11.995c-12.615,4.718-25.23,9.444-37.853,14.17
						c-12.524,4.685-24.983,9.761-37.722,13.862c-9.035,2.909-18.186,5.46-27.262,8.227c2.592,28.399,5.333,56.874,11.216,84.797
						c3.02,14.337,6.781,28.507,9.883,42.836c2.896,13.362,5.785,26.79,10.122,39.769c7.175,21.497,17.98,42.437,36.643,55.64
						c14.804,10.47,31.97,16.904,49.728,19.755l-0.132,0.809c-6.098-0.991-12.138-2.351-18.087-4.167
						c-17.626-5.385-34.627-14.121-47.662-27.524c-15.833-16.287-23.642-39.785-29.18-61.558
						c-3.127-12.303-5.571-24.757-8.402-37.126c-2.946-12.92-6.377-25.69-8.764-38.735c-4.452-24.248-6.929-48.771-9.184-73.303
						c-1.967,0.617-3.933,1.242-5.892,1.901c-1.078,0.358-3.646-1.117-3.81-1.117c3.151-1.05,6.32-2.042,9.496-3.018
						c-0.09-1-0.181-2-0.271-3c-0.025-0.208,3.925-0.008,4.007,0.934c0.025,0.308,0.058,0.608,0.083,0.917
						c5.39-1.608,10.796-3.167,16.178-4.81c10.171-3.101,20.095-6.81,30.052-10.536c19.684-7.369,39.367-14.737,59.051-22.106
						c17.783-6.652,35.236-11.745,54.311-12.57c17.832-0.784,35.598,1.075,53.093,4.56
						C797.846,382.698,810.188,386.041,822.359,389.95z"/>
				</g>
				<g>
				</g>
			</g>
			<path fill="#753465" d="M788.813,502.053c0,0,16.92,12.02,19.416,18.043c9.102,21.947-3.346,74.367-14.453,95.449
				c-6.95,13.193-43.73,41.693-43.73,41.693l10.684,15.727l57-31.062l34.232-49.443l18.783-110.709v-42.949l-72.08,14.868
				L788.813,502.053z"/>
			<path fill="#753465" d="M658.634,502.021c0,0-16.919,12.02-19.417,18.041c-9.101,21.949,3.346,74.367,14.453,95.451
				c6.951,13.191,43.73,41.691,43.73,41.691l-10.684,15.729l-57-31.062l-34.231-49.443l-18.784-110.709V438.77l72.081,14.867
				L658.634,502.021z"/>
			<g>
				<path fill="#FFFFFF" d="M746.298,493.266c0.469-0.828,1.615-1.463,2.333-0.725c0.136,0.139,0.274,0.277,0.411,0.414
					c0.461-0.531,1.15-0.879,1.602-0.879c1.021,0.002,2.059,0.035,3.002,0.594c0.688,0.41,0.561,1.324,0.161,1.949
					c0.206,0.359,0.22,0.852-0.038,1.352c-0.373,0.719-1.113,1.248-1.818,1.303c-0.059,0.223-0.133,0.43-0.232,0.605
					c-0.552,0.975-1.511,1.268-2.333,0.725c-1.013-0.67-1.905-1.555-2.79-2.465C745.882,495.404,745.748,494.234,746.298,493.266z"
					/>
				<g id="XMLID_5_">
					<g>
						<path fill="#FFFFFF" d="M837.614,449.723c-1.004-0.083-2.008-0.165-3.014-0.307c-0.083-0.012-0.167-0.058-0.25-0.082
							c-0.015,0.036-0.029,0.06-0.049,0.07c-4.834-0.341-9.773,3.788-14.183,6.399c-8.824,5.247-18.214,7.612-27.08,12.741
							c-8.775,5.082-17.042,11.258-26.187,14.328c-4.85,1.636-8.309,5.34-11.853,9.541c-0.704,1.424-1.709,2.482-2.86,3
							c0.098-0.07,0.168-0.129,0.203-0.152c-0.063,0.035-0.209,0.117-0.434,0.281c-0.307,0.199-0.6,0.426-0.893,0.658
							c-0.641,0.508-1.263,1.096-1.876,1.672c1.688,2.324,3.02,4.969,5.118,6.877c1.027,0.934,2.01,1.832,3.021,2.787
							c1.435,1.354,3.447,1.889,5.107,3.064c3.564,0.752,7.191,0.775,10.491,0.588c11.126-0.625,22.216-3.676,33.261-5.883
							c0.251-0.051,0.454-0.236,0.663-0.305c6.366-2.061,11.72-9.588,15.466-17.471c4.883-10.28,8.865-24.093,15.221-32.021
							C838.843,453.828,838.556,451.265,837.614,449.723z"/>
						<path fill="#FFFFFF" d="M785.562,474.756c0.348-0.165,0.697-0.353,1.046-0.541
							C786.259,474.403,785.909,474.58,785.562,474.756z"/>
						<path fill="#FFFFFF" d="M774.665,480.238c0.643-0.33,1.276-0.659,1.918-0.988
							C775.941,479.567,775.308,479.897,774.665,480.238z"/>
						<path fill="#EC8CB5" d="M774.665,480.238c0.643-0.33,1.276-0.659,1.918-0.988
							C775.941,479.567,775.308,479.897,774.665,480.238z"/>
						<path fill="#EC8CB5" d="M786.607,474.215c-0.349,0.188-0.698,0.365-1.046,0.541
							C785.909,474.591,786.259,474.403,786.607,474.215z"/>
					</g>
					<g>
						<path fill="none" stroke="#FFFFFF" stroke-miterlimit="10" d="M752.343,495.262c0.027-0.012,0.034-0.023,0.034-0.023"/>
						<path fill="none" stroke="#FFFFFF" stroke-miterlimit="10" d="M837.614,449.723c-1.004-0.083-2.008-0.165-3.014-0.307
							c-0.083-0.012-0.167-0.058-0.25-0.082c-0.015,0.036-0.029,0.06-0.049,0.07c-4.834-0.341-9.773,3.788-14.183,6.399
							c-8.824,5.247-18.214,7.612-27.08,12.741c-8.775,5.082-17.042,11.258-26.187,14.328c-4.85,1.636-8.309,5.34-11.853,9.541
							c-0.704,1.424-1.709,2.482-2.86,3c0.098-0.07,0.168-0.129,0.203-0.152c-0.063,0.035-0.209,0.117-0.434,0.281
							c-0.307,0.199-0.6,0.426-0.893,0.658c-0.641,0.508-1.263,1.096-1.876,1.672c1.688,2.324,3.388,4.631,5.118,6.877
							c0.98,0.615,1.875,1.348,2.609,2.234c1.871,1.043,3.694,2.326,5.52,3.617c3.564,0.752,7.191,0.775,10.491,0.588
							c11.126-0.625,22.216-3.676,33.261-5.883c0.251-0.051,0.454-0.236,0.663-0.305c6.366-2.061,11.72-9.588,15.466-17.471
							c4.883-10.28,8.865-24.093,15.221-32.021C838.843,453.828,838.556,451.265,837.614,449.723z"/>
					</g>
				</g>
				<g>
					<path fill="#E089A8" d="M799.353,477.359c2.749,10.586-3.047,23.199-12.944,28.168c-9.898,4.969-20.151,0.414-22.901-10.172
						c-2.75-10.588,3.047-23.201,12.945-28.169C786.35,462.217,796.603,466.771,799.353,477.359z"/>
					<path d="M791.173,482.488c1.396,5.383-1.549,11.791-6.578,14.316c-5.03,2.525-10.24,0.209-11.639-5.17
						c-1.396-5.381,1.549-11.79,6.578-14.315C784.565,474.793,789.776,477.108,791.173,482.488z"/>
				</g>
			</g>
			<ellipse stroke="#000000" stroke-miterlimit="10" cx="728.07" cy="370.778" rx="137.235" ry="114.72"/>
			<g>
				<path fill="#F2DD8E" d="M727.62,633.873c0,0-16.002-2.959-20.86,0c-6.126,3.73-19.343,27.799-19.343,27.799
					s-59.394-25.977-72.441-49.092C595.21,577.557,581.6,431.363,581.6,431.363h-13.653c0,0,12.135,151.58,31.479,189.498
					c13.863,27.172,78.889,64.469,78.889,64.469s21.717,6.721,29.204,7.689c4.984,0.645,20.102,0,20.102,0"/>
				<path fill="#F2DD8E" d="M718.897,633.873c0,0,16.002-2.959,20.859,0c6.125,3.73,19.343,27.799,19.343,27.799
					s59.396-25.977,72.44-49.092c19.768-35.023,33.377-181.217,33.377-181.217h13.653c0,0-12.134,151.58-31.479,189.498
					c-13.863,27.172-78.889,64.469-78.889,64.469s-21.716,6.721-29.203,7.689c-4.983,0.645-20.102,0-20.102,0"/>
			</g>
			<g id="XMLID_1_">
				<g>
					<path fill="#F2DD8E" d="M582.942,509.223c0.012,0.367-0.037,0.694-0.128,0.992c0.031,1.481-0.942,2.894-2.931,2.724
						c-10.7-0.916-25.928-0.887-33.166-9.835c-3.267-4.031-4.693-9.41-5.714-14.316c-1.206-5.805-1.903-11.685-2.631-17.56
						c-1.052-8.535-4.699-19.502,1.927-26.841c2.619-2.899,6.32-4.556,9.979-5.944c4.264-1.627,8.621-3.028,12.903-4.615
						c2.135,0.269,4.264,0.216,6.375-0.041C570.675,459.42,581.945,483.543,582.942,509.223z M576.702,506.831
						c-1.438-22.764-10.517-44.384-12.824-67.036c-3.616,1.312-7.274,2.508-10.878,3.856c-2.857,1.062-6.039,2.27-8.088,4.544
						c-2.117,2.345-2.41,5.647-2.288,8.611c0.19,4.603,1.218,9.159,1.78,13.732c0.661,5.32,1.242,10.67,2.337,15.932
						c0.899,4.306,1.866,9.159,4.583,12.817c2.765,3.733,8.174,5.075,12.615,5.938C568.155,506.049,572.425,506.463,576.702,506.831
						z"/>
					<path fill="#F2DD8E" d="M563.878,439.795c2.307,22.652,11.386,44.272,12.824,67.036c-4.277-0.368-8.547-0.782-12.763-1.604
						c-4.441-0.863-9.85-2.205-12.615-5.938c-2.717-3.658-3.683-8.512-4.583-12.817c-1.095-5.262-1.676-10.611-2.337-15.932
						c-0.562-4.573-1.59-9.13-1.78-13.732c-0.122-2.964,0.171-6.266,2.288-8.611c2.05-2.275,5.231-3.483,8.088-4.544
						C556.604,442.304,560.262,441.108,563.878,439.795z"/>
				</g>
				<g>
				</g>
			</g>
			<g id="XMLID_2_">
				<g>
					<path fill="#F2DD8E" d="M861.422,509.806c-0.012,0.368,0.037,0.694,0.129,0.992c-0.031,1.481,0.941,2.894,2.931,2.725
						c10.7-0.916,25.928-0.887,33.166-9.836c3.267-4.031,4.692-9.41,5.714-14.316c1.206-5.805,1.903-11.685,2.631-17.56
						c1.053-8.534,4.699-19.502-1.927-26.841c-2.619-2.899-6.32-4.556-9.979-5.944c-4.265-1.628-8.621-3.028-12.903-4.615
						c-2.136,0.269-4.265,0.216-6.375-0.041C873.688,460.003,862.419,484.126,861.422,509.806z M867.662,507.414
						c1.438-22.763,10.518-44.383,12.824-67.036c3.615,1.313,7.274,2.509,10.878,3.856c2.857,1.062,6.038,2.269,8.088,4.544
						c2.117,2.345,2.41,5.647,2.288,8.61c-0.189,4.603-1.218,9.159-1.78,13.732c-0.661,5.32-1.242,10.67-2.337,15.933
						c-0.899,4.305-1.866,9.159-4.583,12.816c-2.765,3.733-8.174,5.075-12.615,5.938
						C876.21,506.633,871.939,507.047,867.662,507.414z"/>
					<path fill="#F2DD8E" d="M880.486,440.378c-2.307,22.653-11.386,44.273-12.824,67.036c4.277-0.367,8.548-0.781,12.763-1.604
						c4.441-0.863,9.851-2.205,12.615-5.938c2.717-3.657,3.684-8.512,4.583-12.816c1.095-5.263,1.676-10.612,2.337-15.933
						c0.562-4.573,1.591-9.13,1.78-13.732c0.122-2.963-0.171-6.266-2.288-8.61c-2.05-2.275-5.23-3.483-8.088-4.544
						C887.761,442.887,884.102,441.691,880.486,440.378z"/>
				</g>
				<g>
				</g>
			</g>
			<g>
				<path fill="#FFFFFF" d="M703.938,492.852c-0.469-0.828-1.616-1.463-2.333-0.725c-0.137,0.139-0.274,0.277-0.411,0.414
					c-0.462-0.531-1.152-0.879-1.603-0.879c-1.021,0.002-2.058,0.035-3.001,0.594c-0.688,0.41-0.56,1.324-0.161,1.949
					c-0.206,0.359-0.219,0.852,0.038,1.352c0.372,0.719,1.113,1.248,1.818,1.303c0.058,0.223,0.133,0.43,0.232,0.605
					c0.552,0.975,1.511,1.268,2.333,0.725c1.013-0.67,1.904-1.555,2.791-2.465C704.354,494.99,704.488,493.82,703.938,492.852z"/>
				<g id="XMLID_4_">
					<g>
						<path fill="#FFFFFF" d="M695.694,504.703c2.094-2.129,3.621-4.793,5.401-7.244c-0.613-0.576-1.235-1.164-1.876-1.672
							c-0.293-0.232-0.586-0.459-0.894-0.658c-0.223-0.164-0.369-0.246-0.432-0.281c0.035,0.023,0.104,0.082,0.202,0.152
							c-1.15-0.518-2.155-1.576-2.859-3c-3.544-4.201-7.003-7.905-11.852-9.541c-9.146-3.07-17.412-9.246-26.188-14.328
							c-8.866-5.129-18.255-7.494-27.08-12.741c-4.409-2.611-9.348-6.74-14.182-6.399c-0.021-0.011-0.035-0.034-0.049-0.07
							c-0.084,0.024-0.167,0.07-0.251,0.082c-1.005,0.142-2.009,0.224-3.014,0.307c-0.942,1.542-1.228,4.105,0.125,5.787
							c6.355,7.929,10.338,21.741,15.221,32.021c3.746,7.883,9.099,15.41,15.465,17.471c0.209,0.068,0.412,0.254,0.663,0.305
							c11.045,2.207,22.134,5.258,33.261,5.883c3.299,0.188,6.927,0.164,10.491-0.588c1.681-1.189,3.604-1.861,5.168-3.102
							C693.954,506.342,694.854,505.559,695.694,504.703z"/>
						<path fill="#FFFFFF" d="M663.628,473.801c0.349,0.188,0.698,0.376,1.046,0.541
							C664.326,474.166,663.977,473.989,663.628,473.801z"/>
						<path fill="#FFFFFF" d="M673.653,478.836c0.642,0.329,1.276,0.658,1.918,0.988
							C674.929,479.483,674.294,479.153,673.653,478.836z"/>
						<path fill="#EC8CB5" d="M675.571,479.824c-0.642-0.33-1.276-0.659-1.918-0.988
							C674.294,479.153,674.929,479.483,675.571,479.824z"/>
						<path fill="#EC8CB5" d="M663.628,473.801c0.349,0.188,0.698,0.365,1.046,0.541
							C664.326,474.177,663.977,473.989,663.628,473.801z"/>
					</g>
					<g>
						<path fill="none" stroke="#FFFFFF" stroke-miterlimit="10" d="M697.894,494.848c-0.028-0.012-0.035-0.023-0.035-0.023"/>
						<path fill="none" stroke="#FFFFFF" stroke-miterlimit="10" d="M695.694,504.703c1.831-2.359,3.621-4.793,5.401-7.244
							c-0.613-0.576-1.235-1.164-1.876-1.672c-0.293-0.232-0.586-0.459-0.894-0.658c-0.223-0.164-0.369-0.246-0.432-0.281
							c0.035,0.023,0.104,0.082,0.202,0.152c-1.15-0.518-2.155-1.576-2.859-3c-3.544-4.201-7.003-7.905-11.852-9.541
							c-9.146-3.07-17.412-9.246-26.188-14.328c-8.866-5.129-18.255-7.494-27.08-12.741c-4.409-2.611-9.348-6.74-14.182-6.399
							c-0.021-0.011-0.035-0.034-0.049-0.07c-0.084,0.024-0.167,0.07-0.251,0.082c-1.005,0.142-2.009,0.224-3.014,0.307
							c-0.942,1.542-1.228,4.105,0.125,5.787c6.355,7.929,10.338,21.741,15.221,32.021c3.746,7.883,9.099,15.41,15.465,17.471
							c0.209,0.068,0.412,0.254,0.663,0.305c11.045,2.207,22.134,5.258,33.261,5.883c3.299,0.188,6.927,0.164,10.491-0.588
							c1.956-1.385,3.911-2.75,5.924-3.828C694.394,505.787,695.034,505.234,695.694,504.703z"/>
					</g>
				</g>
				<g>
					<path fill="#E089A8" d="M650.884,476.945c-2.75,10.586,3.047,23.199,12.944,28.168c9.898,4.969,20.151,0.414,22.901-10.172
						c2.749-10.588-3.047-23.201-12.945-28.169C663.886,461.803,653.633,466.357,650.884,476.945z"/>
					<path d="M659.063,482.074c-1.397,5.383,1.548,11.791,6.579,14.316c5.03,2.525,10.24,0.209,11.638-5.17
						c1.397-5.381-1.548-11.79-6.578-14.315C665.671,474.379,660.46,476.694,659.063,482.074z"/>
				</g>
			</g>
			<g>
				<path fill-rule="evenodd" clip-rule="evenodd" fill="#ADC66B" d="M868.122,206.171c0.072-0.065,0.091-0.145,0.057-0.239
					c0.115-0.283,0.096-0.623,0.316-0.859l-0.008,0.015c0.182-0.209,0.133-0.521,0.287-0.741c0.072-0.084,0.094-0.182,0.068-0.292
					c0.149-0.251,0.105-0.586,0.303-0.816c0.071-0.06,0.088-0.134,0.051-0.223c0.107-0.291,0.092-0.632,0.318-0.872l-0.01,0.018
					c0.178-0.212,0.129-0.528,0.291-0.747c0.072-0.079,0.094-0.171,0.066-0.277c0.137-0.262,0.109-0.595,0.305-0.831v-0.001
					c0.324-0.283,0.023-0.815,0.369-1.09l-0.012,0.021c0.172-0.217,0.123-0.534,0.291-0.752c0.072-0.075,0.094-0.163,0.064-0.266
					c0.129-0.269,0.106-0.603,0.307-0.841v0.004c0.193-0.195,0.143-0.502,0.283-0.722c0.072-0.091,0.098-0.195,0.074-0.313
					c0.16-0.238,0.115-0.564,0.293-0.794c0.07-0.071,0.092-0.156,0.061-0.255c0.123-0.274,0.102-0.611,0.312-0.849l-0.005,0.01
					c0.189-0.201,0.141-0.511,0.285-0.731c0.072-0.089,0.096-0.191,0.072-0.307c0.156-0.242,0.11-0.571,0.296-0.801
					c0.072-0.065,0.091-0.146,0.059-0.241c0.114-0.282,0.097-0.621,0.312-0.86l-0.005,0.013c0.185-0.205,0.135-0.518,0.288-0.737
					c0.072-0.084,0.095-0.182,0.069-0.293c0.149-0.25,0.105-0.583,0.3-0.814c0.072-0.061,0.089-0.137,0.054-0.227
					c0.106-0.29,0.093-0.63,0.315-0.87l-0.008,0.016c0.178-0.21,0.131-0.524,0.289-0.744c0.07-0.081,0.094-0.176,0.068-0.284
					c0.139-0.259,0.11-0.59,0.304-0.827l0.001-0.003c0.327-0.282,0.025-0.812,0.367-1.088l-0.012,0.02
					c0.176-0.215,0.126-0.532,0.293-0.751c0.072-0.075,0.094-0.165,0.064-0.269c0.131-0.267,0.105-0.601,0.307-0.837v0.003
					c0.195-0.193,0.144-0.501,0.281-0.721c0.074-0.094,0.098-0.201,0.074-0.321c0.164-0.233,0.117-0.558,0.293-0.786
					c0.072-0.07,0.094-0.156,0.063-0.256c0.122-0.275,0.103-0.61,0.309-0.849l-0.003,0.008c0.19-0.199,0.141-0.508,0.284-0.729
					c0.073-0.089,0.097-0.191,0.073-0.308c0.156-0.241,0.111-0.57,0.295-0.8c0.07-0.067,0.091-0.149,0.059-0.246
					c0.117-0.28,0.098-0.618,0.313-0.855l-0.005,0.013c0.183-0.206,0.135-0.516,0.283-0.737c0.072-0.087,0.096-0.188,0.072-0.301
					c0.154-0.246,0.107-0.579,0.299-0.807c0.072-0.063,0.09-0.141,0.055-0.232c0.11-0.286,0.094-0.626,0.315-0.865l-0.007,0.016
					c0.18-0.209,0.131-0.523,0.288-0.742c0.073-0.081,0.096-0.176,0.068-0.285c0.14-0.259,0.112-0.589,0.302-0.827l0.002-0.005
					c0.33-0.28,0.027-0.811,0.367-1.086l-0.01,0.019c0.176-0.214,0.127-0.529,0.289-0.749c0.072-0.078,0.094-0.17,0.067-0.276
					c0.136-0.263,0.108-0.596,0.306-0.833l-0.001,0.001c0.323-0.285,0.022-0.818,0.37-1.092l-0.013,0.022
					c0.171-0.218,0.122-0.537,0.293-0.755c0.071-0.073,0.093-0.161,0.063-0.263c0.127-0.271,0.104-0.606,0.311-0.842l-0.004,0.007
					c0.189-0.199,0.141-0.506,0.281-0.728c0.074-0.091,0.098-0.195,0.076-0.313c0.159-0.238,0.111-0.566,0.295-0.794
					c0.07-0.068,0.092-0.15,0.059-0.247c0.117-0.279,0.101-0.615,0.311-0.855l-0.006,0.01c0.189-0.202,0.139-0.513,0.287-0.732
					c0.073-0.087,0.097-0.188,0.071-0.301c0.154-0.245,0.109-0.576,0.297-0.806c0.071-0.065,0.091-0.145,0.057-0.239
					c0.114-0.283,0.096-0.623,0.315-0.86l-0.006,0.015c0.18-0.208,0.131-0.521,0.285-0.741c0.072-0.084,0.096-0.182,0.069-0.293
					c0.149-0.251,0.104-0.586,0.302-0.815c0.072-0.06,0.088-0.134,0.053-0.224c0.105-0.29,0.091-0.632,0.316-0.872l-0.008,0.018
					c0.178-0.212,0.127-0.528,0.291-0.747c0.07-0.079,0.094-0.171,0.064-0.277c0.137-0.263,0.109-0.595,0.305-0.832l0.002-0.001
					c0.324-0.284,0.021-0.815,0.367-1.09l-0.012,0.021c0.172-0.217,0.123-0.535,0.291-0.753c0.072-0.075,0.094-0.163,0.066-0.266
					c0.127-0.269,0.105-0.603,0.307-0.84l-0.002,0.004c0.195-0.195,0.145-0.503,0.283-0.723c0.072-0.091,0.098-0.195,0.074-0.313
					c0.16-0.238,0.115-0.564,0.293-0.794c0.072-0.07,0.092-0.155,0.062-0.254c0.121-0.275,0.102-0.611,0.311-0.849l-0.004,0.009
					c0.188-0.201,0.139-0.51,0.283-0.731c0.072-0.088,0.098-0.191,0.072-0.306c0.158-0.242,0.111-0.573,0.299-0.801
					c0.07-0.065,0.09-0.146,0.057-0.24c0.113-0.282,0.098-0.621,0.312-0.859l-0.006,0.013c0.184-0.206,0.135-0.519,0.289-0.738
					c0.07-0.084,0.094-0.182,0.068-0.293c0.148-0.25,0.105-0.583,0.299-0.814c0.07-0.061,0.09-0.136,0.055-0.227
					c0.107-0.289,0.092-0.63,0.316-0.87l-0.008,0.016c0.178-0.21,0.129-0.525,0.289-0.745c0.072-0.078,0.094-0.171,0.066-0.278
					c0.137-0.262,0.111-0.594,0.305-0.832v-0.003c0.328-0.282,0.025-0.812,0.367-1.089l-0.012,0.021
					c0.176-0.216,0.127-0.533,0.293-0.751c0.072-0.076,0.094-0.165,0.064-0.269c0.131-0.267,0.105,1.399,0.307,1.162v0.003
					c0.195-0.193,0.145-0.501,0.281-0.721c0.074-0.093,0.1-0.2,0.076-0.32c0.164-0.233,0.115-0.561,0.293-0.787
					c0.072-0.071,0.092-0.156,0.062-0.256c0.121-0.274,0.102-0.61,0.309-0.848l-0.004,0.007c0.191-0.199,0.141-0.508,0.285-0.729
					c0.072-0.088,0.098-0.191,0.072-0.308c0.156-0.241,0.113-0.569,0.295-0.799c0.072-0.068,0.092-0.149,0.061-0.246
					c0.117-0.28,0.098-0.618,0.312-0.855l-0.006,0.013c0.184-0.205,0.135-0.516,0.285-0.736c0.07-0.086,0.094-0.187,0.07-0.299
					c0.152-0.247,0.107-0.58,0.301-0.81c0.07-0.063,0.088-0.14,0.053-0.232c0.111-0.286,0.096-0.625,0.316-0.865l-0.008,0.015
					c0.18-0.208,0.131-0.523,0.289-0.742c0.072-0.081,0.096-0.176,0.068-0.285c0.141-0.258,0.111-0.589,0.303-0.826v-0.005
					c0.33-0.28,0.027-0.811,0.367-1.086l-0.01,0.019c0.176-0.214,0.127-0.53,0.291-0.749c0.072-0.075,0.096-0.165,0.068-0.27
					c0.129-0.267,0.105-0.6,0.303-0.838v0c0.322-0.285,0.021-0.817,0.369-1.092l-0.012,0.022c0.17-0.218,0.121-0.537,0.291-0.755
					c0.072-0.074,0.094-0.161,0.064-0.263c0.127-0.271,0.104-0.606,0.311-0.842l-0.004,0.008c0.191-0.199,0.141-0.506,0.283-0.728
					c0.072-0.09,0.098-0.194,0.074-0.312c0.158-0.239,0.113-0.567,0.295-0.795c0.072-0.068,0.092-0.15,0.059-0.247
					c0.117-0.28,0.102-0.616,0.311-0.856l-0.004,0.01c0.188-0.201,0.139-0.512,0.285-0.732c0.074-0.087,0.098-0.188,0.072-0.301
					c0.152-0.245,0.109-0.576,0.297-0.806c0.072-0.065,0.09-0.146,0.057-0.24c0.113-0.283,0.096-0.623,0.316-0.859l-0.008,0.015
					c0.18-0.208,0.133-0.521,0.287-0.741c0.072-0.082,0.096-0.178,0.07-0.287c0.145-0.254,0.102-0.589,0.299-0.821
					c0.072-0.06,0.09-0.134,0.053-0.223c0.105-0.291,0.092-0.633,0.318-0.872l-0.01,0.018c0.178-0.212,0.127-0.528,0.291-0.747
					c0.072-0.079,0.094-0.171,0.066-0.278c0.137-0.262,0.107-0.595,0.303-0.832l0.002-0.001c0.324-0.283,0.021-0.815,0.367-1.09
					l-0.012,0.021c0.174-0.217,0.123-0.536,0.293-0.753c0.072-0.074,0.094-0.162,0.064-0.263c0.127-0.271,0.105-0.604,0.307-0.843
					l-0.002,0.004c0.195-0.195,0.145-0.503,0.283-0.723c0.074-0.09,0.1-0.195,0.076-0.313c0.158-0.238,0.115-0.563,0.293-0.793
					c0.07-0.071,0.09-0.156,0.061-0.255c0.121-0.275,0.102-0.611,0.311-0.848l-0.004,0.009c0.188-0.201,0.139-0.511,0.285-0.732
					c0.07-0.088,0.096-0.19,0.07-0.306c0.156-0.242,0.109-0.573,0.299-0.802c0.07-0.065,0.09-0.146,0.057-0.24
					c0.115-0.283,0.098-0.621,0.312-0.86l-0.006,0.013c0.184-0.206,0.135-0.519,0.289-0.738c0.072-0.084,0.094-0.182,0.068-0.293
					c0.148-0.25,0.105-0.584,0.301-0.815c0.07-0.061,0.088-0.136,0.053-0.226c0.107-0.29,0.092-0.63,0.316-0.87l-0.01,0.017
					c0.18-0.211,0.131-0.526,0.291-0.745c0.072-0.079,0.094-0.171,0.068-0.278c0.135-0.263,0.109-0.594,0.303-0.832l0.002-0.002
					c0.324-0.282,0.023-0.813,0.365-1.089l-0.01,0.02c0.174-0.215,0.123-0.533,0.293-0.75c0.07-0.076,0.092-0.165,0.064-0.269
					c0.129-0.268,0.105-0.601,0.307-0.838l-0.002,0.003c0.197-0.193,0.145-0.5,0.283-0.721c0.072-0.093,0.098-0.2,0.072-0.32
					c0.166-0.233,0.117-0.56,0.295-0.787c0.072-0.071,0.094-0.156,0.062-0.256c0.123-0.274,0.104-0.609,0.309-0.848l-0.004,0.008
					c0.191-0.199,0.141-0.509,0.287-0.729c0.072-0.089,0.096-0.191,0.072-0.307c0.156-0.242,0.111-0.57,0.293-0.8
					c0.072-0.067,0.092-0.149,0.061-0.246c0.117-0.279,0.098-0.617,0.312-0.855l-0.006,0.013c0.184-0.205,0.137-0.515,0.285-0.736
					c0.072-0.086,0.096-0.186,0.072-0.299c0.152-0.247,0.105-0.58,0.299-0.809c0.07-0.063,0.09-0.14,0.055-0.232
					c0.109-0.286,0.094-0.627,0.316-0.864l-0.008,0.017c0.178-0.21,0.129-0.524,0.287-0.744c0.072-0.082,0.094-0.176,0.068-0.285
					c0.141-0.259,0.113-0.589,0.303-0.826L910.089,88c0.33-0.28,0.027-0.811,0.367-1.086l-0.012,0.019
					c0.176-0.214,0.127-0.53,0.293-0.749c0.072-0.076,0.094-0.166,0.066-0.27c0.129-0.267,0.105-0.6,0.303-0.838v0
					c0.199-0.19,0.148-0.498,0.283-0.717c0.074-0.094,0.1-0.201,0.076-0.321c0.164-0.233,0.119-0.557,0.291-0.786
					c0.07-0.074,0.092-0.161,0.062-0.263c0.127-0.27,0.104-0.606,0.311-0.842l-0.002,0.008c0.189-0.199,0.141-0.506,0.281-0.728
					c0.074-0.09,0.098-0.195,0.074-0.312c0.16-0.239,0.111-0.568,0.295-0.796c0.072-0.068,0.092-0.15,0.061-0.247
					c0.117-0.279,0.1-0.616,0.309-0.855l-0.002,0.01c0.188-0.202,0.137-0.514,0.285-0.733c0.072-0.087,0.096-0.188,0.07-0.301
					c0.154-0.245,0.109-0.575,0.297-0.806c0.07-0.065,0.09-0.145,0.057-0.24c0.115-0.282,0.096-0.623,0.316-0.859l-0.008,0.015
					c0.182-0.208,0.133-0.521,0.287-0.741c0.072-0.082,0.096-0.178,0.07-0.288c0.145-0.254,0.104-0.589,0.301-0.82
					c0.07-0.06,0.088-0.134,0.051-0.223c0.107-0.291,0.092-0.634,0.32-0.872l-0.01,0.019c0.174-0.214,0.127-0.529,0.289-0.749
					c0.072-0.079,0.094-0.171,0.066-0.278c0.135-0.262,0.109-0.594,0.305-0.831v-0.001c0.324-0.283,0.023-0.815,0.369-1.09
					L916.2,70.45c0.172-0.217,0.123-0.536,0.293-0.753c0.072-0.073,0.092-0.161,0.062-0.263c0.127-0.271,0.105-0.604,0.307-0.843
					l-0.002,0.004c0.195-0.195,0.145-0.503,0.285-0.723c0.072-0.091,0.098-0.195,0.074-0.313c0.16-0.238,0.113-0.564,0.291-0.794
					c0.072-0.07,0.094-0.155,0.062-0.254c0.123-0.275,0.102-0.612,0.312-0.849l-0.006,0.01c0.188-0.202,0.139-0.511,0.285-0.731
					c0.072-0.089,0.096-0.191,0.072-0.307c0.156-0.242,0.109-0.573,0.297-0.801c0.072-0.066,0.09-0.146,0.057-0.24
					c0.115-0.283,0.098-0.622,0.314-0.859l-0.006,0.014c0.182-0.207,0.133-0.519,0.287-0.739c0.072-0.084,0.094-0.182,0.068-0.293
					c0.148-0.25,0.105-0.583,0.301-0.814c0.07-0.061,0.09-0.136,0.053-0.227c0.107-0.29,0.094-0.63,0.316-0.87l-0.008,0.017
					c0.178-0.21,0.129-0.525,0.289-0.744c0.072-0.079,0.096-0.171,0.068-0.279c0.137-0.262,0.109-0.594,0.303-0.832v-0.003
					c0.33-0.281,0.023-0.814,0.371-1.088l-0.012,0.021c0.172-0.217,0.123-0.534,0.289-0.752c0.074-0.076,0.094-0.165,0.066-0.269
					c0.131-0.267,0.105-0.601,0.307-0.838l-0.002,0.003c0.197-0.193,0.146-0.5,0.283-0.721c0.074-0.094,0.098-0.2,0.074-0.32
					c0.164-0.233,0.115-0.56,0.295-0.787c0.07-0.071,0.092-0.156,0.062-0.255c0.121-0.275,0.102-0.61,0.307-0.849l-0.002,0.007
					c0.189-0.199,0.139-0.509,0.285-0.729c0.072-0.089,0.096-0.191,0.072-0.307c0.156-0.242,0.111-0.57,0.293-0.8
					c0.072-0.067,0.092-0.149,0.061-0.246c0.117-0.279,0.098-0.618,0.314-0.854l-0.008,0.012c0.186-0.206,0.137-0.516,0.285-0.736
					c0.072-0.086,0.096-0.186,0.072-0.299c0.152-0.247,0.105-0.58,0.299-0.809c0.072-0.063,0.09-0.141,0.055-0.232
					c0.111-0.286,0.094-0.627,0.316-0.865l-0.008,0.017c0.178-0.21,0.131-0.524,0.289-0.744c0.07-0.081,0.094-0.176,0.066-0.285
					c0.141-0.258,0.111-0.59,0.305-0.826l0.002-0.003c0.326-0.283,0.025-0.812,0.365-1.089l-0.01,0.019
					c0.176-0.213,0.125-0.53,0.291-0.749c0.072-0.075,0.096-0.166,0.066-0.27c0.131-0.268,0.105-0.6,0.305-0.839v0.001
					c0.199-0.19,0.146-0.498,0.283-0.718c0.072-0.093,0.098-0.2,0.074-0.321c0.164-0.233,0.117-0.557,0.291-0.786
					c0.072-0.073,0.094-0.161,0.064-0.262c0.125-0.271,0.102-0.606,0.309-0.843l-0.002,0.008c0.189-0.199,0.141-0.506,0.281-0.728
					c0.074-0.091,0.1-0.195,0.076-0.312c0.158-0.238,0.111-0.567,0.295-0.795c0.07-0.068,0.092-0.15,0.059-0.247
					c0.117-0.279,0.1-0.615,0.311-0.855l-0.004,0.01c0.188-0.202,0.137-0.514,0.287-0.733c0.07-0.087,0.094-0.188,0.07-0.301
					c0.154-0.245,0.107-0.577,0.297-0.806c0.072-0.063,0.092-0.141,0.057-0.233c0.111-0.286,0.096-0.626,0.314-0.865l-0.006,0.015
					c0.18-0.208,0.131-0.521,0.285-0.741c0.072-0.082,0.096-0.178,0.07-0.288c0.146-0.254,0.104-0.589,0.301-0.821
					c0.072-0.06,0.088-0.134,0.051-0.223c0.107-0.291,0.092-0.634,0.32-0.872l-0.01,0.019c0.174-0.214,0.127-0.529,0.291-0.749
					c0.07-0.079,0.094-0.171,0.064-0.278c0.137-0.262,0.109-0.595,0.307-0.831v0c0.322-0.285,0.021-0.816,0.367-1.093l-0.012,0.021
					c0.172-0.217,0.123-0.536,0.293-0.753c0.072-0.073,0.094-0.161,0.064-0.263c0.125-0.271,0.105-0.604,0.307-0.843L932.087,25
					c0.195-0.195,0.143-0.504,0.283-0.724c0.074-0.09,0.098-0.195,0.074-0.312c0.16-0.238,0.115-0.564,0.295-0.794
					c0.07-0.069,0.092-0.153,0.061-0.251c0.119-0.277,0.1-0.613,0.311-0.852l-0.006,0.01c0.189-0.201,0.141-0.511,0.285-0.731
					c0.072-0.089,0.096-0.191,0.072-0.306c0.156-0.242,0.109-0.573,0.297-0.801c0.072-0.066,0.09-0.146,0.059-0.241
					c0.113-0.282,0.096-0.621,0.314-0.859l-0.008,0.014c0.189-0.208,0.129-0.557,0.357-0.743l-0.02,0.026
					c0.117-0.131,0.221-0.12,0.311,0.034c0.371,2.223,0.875,4.425,1.623,6.517c0.666,1.862,0.588,3.666,0.346,5.541
					c-0.889,6.879-1.77,13.76-2.646,20.641c-0.754,5.916-1.512,11.83-2.238,17.749c-0.629,5.136-1.211,10.277-1.822,15.415
					c-0.74,6.226-1.508,12.447-2.23,18.675c-0.633,5.442-1.215,10.891-1.822,16.337c-0.627,5.627-1.271,11.252-1.887,16.881
					c-0.51,4.66-0.988,7.325-1.479,11.987c-0.529,5.026-1.068,10.051-1.582,15.078c-0.391,3.817-0.75,7.638-1.121,11.457
					c-0.531,5.456-1.072,10.91-1.59,16.366c-0.387,4.063-0.742,8.13-1.105,12.195c-0.428,4.793-0.863,9.586-1.273,14.381
					c-0.279,3.278-0.518,6.561-0.779,9.841c-0.416,5.224-0.844,10.446-1.248,15.67c-0.266,3.464-0.514,6.93-0.744,10.396
					c-0.447,6.751-0.893,13.503-1.307,20.256c-0.268,4.382-0.525,8.766-0.703,13.153c-0.467,11.641-1.062,23.278-1.139,34.934
					c-0.031,4.758-0.26,9.52-0.164,14.273c0.158,7.684,0.15,15.375,0.637,23.048c0.17,2.676,0.357,5.354,0.645,8.018
					c0.236,2.203,0.975,4.251,2.031,6.159c2.393,4.317,5.742,7.662,9.379,10.688c5.152,4.29,10.746,7.841,16.492,11.096
					c1.891,1.071,3.271,2.352,3.344,4.81c0.002,0.102,0.119,0.198,0.184,0.297c0,0.977,0,1.953,0,2.931
					c-0.336,0.487-0.105,1.048-0.174,1.571c0,0.375,0,0.748,0,1.123c0.029,5.001-1.707,9.549-3.152,14.158
					c-1.453,4.625-3.342,9.064-5.119,13.551c-0.676,1.708-1.682,2.65-3.402,3.123c-26.336,7.222-52.537,14.99-78.623,23.201
					c-16.938,5.331-33.822,10.855-50.645,16.607c-13.545,4.633-27.02,9.496-40.473,14.425c-9.928,3.637-19.803,7.447-29.598,11.496
					c-1.522,0.629-3.094,1.068-4.672,1.488c-0.789,0-1.579,0-2.369,0c-14.994-6.053-30.071-11.85-45.243-17.363
					c-15.337-5.573-30.747-10.889-46.198-16.072c-19.331-6.483-38.771-12.559-58.241-18.523
					c-14.047-4.303-28.145-8.406-42.272-12.393c-4.473-1.262-8.925-2.611-13.433-3.72c-1.327-0.326-2.188-1.048-2.755-2.392
					c-3.232-7.674-6.12-15.481-8.189-23.63c-0.495-1.95-0.335-3.991-0.879-5.919c0-1.587,0-3.175,0-4.763
					c0.279-3.377,2.655-4.709,5.025-6.065c5.946-3.401,11.679-7.177,16.85-11.852c3.298-2.981,6.358-6.231,8.169-10.593
					c0.678-1.633,1.102-3.312,1.272-5.096c0.925-9.664,1.084-19.355,1.014-29.06c-0.053-7.326,0.155-14.658-0.056-21.977
					c-0.223-7.735-0.444-15.475-0.873-23.206c-0.293-5.292-0.509-10.594-0.792-15.889c-0.337-6.329-0.762-12.653-1.192-18.976
					c-0.364-5.351-0.769-10.698-1.143-16.049c-0.454-6.506-1.019-13.002-1.534-19.503c-0.573-7.232-1.236-14.454-1.872-21.68
					c-0.669-7.592-1.418-15.175-2.152-22.759c-1.021-10.559-2.127-21.108-3.232-31.658c-0.895-8.549-1.823-15.095-2.782-23.636
					c-1.931-17.207-3.911-34.407-6.027-51.588c-1.631-13.25-3.236-26.505-5.03-39.731c-0.268-1.978-0.243-3.865,0.367-5.765
					c0.5-1.555,0.836-3.169,1.282-4.742c0.131-0.452,0.296-0.894,0.459-1.335c0.066-0.166,0.161-0.313,0.275-0.445
					c0.153-0.11,0.295-0.089,0.425,0.048l-0.011-0.001c0.21,0.199,0.157,0.538,0.339,0.751l-0.008-0.017
					c0.223,0.241,0.21,0.582,0.316,0.873c-0.037,0.089-0.019,0.164,0.052,0.223c0.197,0.23,0.152,0.565,0.301,0.815
					c-0.026,0.111-0.003,0.208,0.069,0.293c0.153,0.22,0.106,0.532,0.286,0.741l-0.007-0.016c0.22,0.237,0.201,0.577,0.316,0.859
					c-0.033,0.094-0.015,0.174,0.057,0.24c0.188,0.23,0.144,0.561,0.296,0.806c-0.024,0.114,0,0.215,0.073,0.302
					c0.147,0.221,0.097,0.53,0.285,0.732l-0.004-0.01c0.21,0.239,0.19,0.575,0.311,0.852c-0.031,0.099-0.011,0.183,0.061,0.251
					c0.179,0.23,0.134,0.556,0.293,0.794c-0.024,0.118,0,0.222,0.074,0.312c0.141,0.221,0.09,0.529,0.283,0.726l-0.002-0.006
					c0.204,0.237,0.182,0.572,0.308,0.842c-0.029,0.102-0.008,0.189,0.063,0.263c0.171,0.218,0.122,0.536,0.293,0.754l-0.012-0.021
					c0.346,0.275,0.044,0.807,0.367,1.092v-0.001c0.198,0.235,0.17,0.569,0.307,0.831c-0.028,0.106-0.006,0.199,0.065,0.278
					c0.164,0.219,0.115,0.534,0.29,0.749l-0.01-0.019c0.229,0.238,0.214,0.582,0.32,0.873c-0.037,0.088-0.02,0.163,0.051,0.222
					c0.197,0.233,0.156,0.567,0.3,0.823c-0.026,0.109-0.003,0.204,0.069,0.285c0.158,0.219,0.108,0.533,0.289,0.741l-0.007-0.015
					c0.22,0.24,0.204,0.58,0.314,0.866c-0.034,0.092-0.016,0.17,0.057,0.233c0.19,0.229,0.144,0.561,0.298,0.807
					c-0.025,0.113-0.002,0.214,0.07,0.301c0.149,0.22,0.101,0.531,0.286,0.736l-0.005-0.012c0.214,0.238,0.195,0.576,0.312,0.855
					c-0.032,0.097-0.012,0.179,0.059,0.246c0.183,0.23,0.137,0.558,0.295,0.799c-0.024,0.117,0.001,0.22,0.074,0.309
					c0.141,0.221,0.092,0.529,0.282,0.728l-0.003-0.008c0.207,0.236,0.185,0.572,0.31,0.844c-0.029,0.101-0.007,0.188,0.063,0.261
					c0.173,0.229,0.127,0.553,0.291,0.786c-0.024,0.12,0.001,0.227,0.075,0.32c0.138,0.22,0.084,0.527,0.283,0.719v-0.001
					c0.198,0.238,0.174,0.571,0.305,0.838c-0.028,0.104-0.007,0.193,0.065,0.269c0.167,0.218,0.117,0.536,0.292,0.75l-0.01-0.02
					c0.339,0.277,0.039,0.807,0.366,1.089l0.001,0.002c0.193,0.236,0.164,0.568,0.304,0.826c-0.027,0.109-0.004,0.204,0.068,0.285
					c0.159,0.22,0.11,0.533,0.288,0.744l-0.008-0.017c0.224,0.237,0.207,0.579,0.317,0.865c-0.035,0.092-0.017,0.169,0.054,0.232
					c0.193,0.231,0.15,0.564,0.298,0.814c-0.025,0.112-0.001,0.21,0.071,0.293c0.151,0.221,0.103,0.532,0.286,0.737l-0.006-0.013
					c0.215,0.238,0.197,0.577,0.313,0.857c-0.032,0.096-0.012,0.177,0.06,0.244c0.184,0.229,0.138,0.558,0.295,0.8
					c-0.024,0.116,0,0.218,0.072,0.307c0.146,0.22,0.094,0.53,0.285,0.729l-0.002-0.007c0.206,0.239,0.186,0.574,0.308,0.849
					c-0.03,0.099-0.01,0.185,0.061,0.255c0.179,0.229,0.131,0.555,0.294,0.79c-0.022,0.119,0.002,0.225,0.075,0.317
					c0.138,0.221,0.087,0.528,0.282,0.723l-0.001-0.004c0.203,0.236,0.177,0.571,0.308,0.838c-0.029,0.104-0.007,0.193,0.064,0.268
					c0.167,0.219,0.119,0.536,0.291,0.752l-0.012-0.021c0.347,0.274,0.042,0.806,0.37,1.088l0.001,0.003
					c0.193,0.238,0.167,0.569,0.303,0.832c-0.028,0.106-0.006,0.199,0.066,0.278c0.163,0.218,0.113,0.534,0.292,0.745l-0.009-0.017
					c0.223,0.241,0.21,0.582,0.315,0.873c-0.036,0.089-0.019,0.163,0.053,0.223c0.197,0.23,0.152,0.565,0.301,0.815
					c-0.026,0.111-0.002,0.209,0.069,0.293c0.154,0.22,0.105,0.532,0.288,0.739l-0.007-0.014c0.218,0.238,0.2,0.578,0.314,0.86
					c-0.033,0.094-0.015,0.174,0.057,0.24c0.188,0.23,0.143,0.561,0.297,0.806c-0.024,0.114,0,0.215,0.073,0.302
					c0.146,0.22,0.097,0.53,0.285,0.731l-0.004-0.01c0.209,0.239,0.19,0.575,0.31,0.852c-0.03,0.099-0.01,0.182,0.062,0.251
					c0.179,0.229,0.133,0.556,0.292,0.794c-0.023,0.117,0.001,0.222,0.075,0.312c0.141,0.22,0.089,0.529,0.285,0.724l-0.002-0.004
					c0.201,0.239,0.18,0.573,0.306,0.843c-0.029,0.102-0.008,0.189,0.063,0.263c0.171,0.218,0.122,0.537,0.293,0.754l-0.012-0.022
					c0.346,0.276,0.045,0.808,0.368,1.092h0c0.198,0.235,0.17,0.568,0.307,0.831c-0.028,0.106-0.006,0.199,0.066,0.277
					c0.163,0.219,0.115,0.535,0.29,0.749l-0.01-0.019c0.224,0.205,0.187,0.533,0.317,0.781l-0.025-0.021
					c1.678,2.797,2.396,6.033,3.471,9.095c7.874,22.418,15.705,42.853,23.525,65.292c7.861,22.553,15.73,45.103,23.604,67.65
					c7.355,21.064,14.716,42.125,22.088,63.184c7.132,20.373,14.242,40.754,21.34,61.141c0.366,1.053,0.84,1.984,1.619,2.739
					c7.72,7.483,15.333,15.094,22.982,22.662c6.402,6.333,12.814,12.656,19.223,18.982c7.657,7.559,15.317,15.113,22.971,22.674
					c6.365,6.287,12.76,12.538,19.099,18.856c0.87,0.866,1.792,1.67,2.663,2.539c3.79,3.781,5.732,8.514,6.283,13.987
					c-0.006,0.298-0.012,0.598,0.006,0.897c0.01,0.173,0.013,0.348,0.072,0.513c0.07-0.186-0.072-0.345-0.059-0.53
					c0.508-6.217,3.033-11.265,7.426-15.275c3.313-3.025,6.424-6.299,9.645-9.438c4.768-4.647,9.486-9.355,14.232-14.027
					c3.04-2.992,6.062-6.009,9.1-9.004c4.619-4.552,9.216-9.131,13.858-13.656c2.927-2.854,5.84-5.729,8.724-8.633
					c4.328-4.358,8.797-8.55,13.046-12.999c0.508-0.532,1.198-0.656,1.714-1.128l0.037-0.032c0.131-0.078,0.238-0.184,0.318-0.32
					l0.023-0.022c0.125-0.097,0.238-0.209,0.336-0.339l0.008-0.008c0.125-0.106,0.232-0.234,0.35-0.351l-0.006,0.005
					c0.113-0.128,0.226-0.259,0.358-0.365l-0.015,0.015c0.104-0.146,0.219-0.279,0.365-0.375l-0.021,0.022
					c0.096-0.159,0.215-0.291,0.369-0.383l-0.025,0.027c0.088-0.169,0.207-0.303,0.372-0.387l-0.028,0.03
					c0.08-0.181,0.201-0.315,0.376-0.388L805.579,359c0.068-0.193,0.189-0.328,0.374-0.391l-0.027,0.041
					c0.218-0.403,0.685-0.479,0.938-0.835l0.026-0.023c0.127-0.089,0.237-0.2,0.33-0.332l0.012-0.013
					c0.123-0.108,0.237-0.224,0.347-0.347l-0.002,0.001c0.118-0.122,0.228-0.251,0.355-0.361l-0.011,0.011
					c0.106-0.14,0.22-0.272,0.361-0.372l-0.018,0.02c0.098-0.154,0.217-0.286,0.367-0.38l-0.024,0.026
					c0.091-0.167,0.21-0.301,0.372-0.386l-0.026,0.03c0.081-0.178,0.201-0.312,0.372-0.39l-0.029,0.032
					c0.074-0.188,0.195-0.324,0.377-0.39l-0.028,0.04c0.222-0.396,0.687-0.472,0.935-0.833l0.03-0.028
					c0.13-0.083,0.237-0.192,0.321-0.327l0.021-0.02c0.125-0.1,0.238-0.214,0.341-0.339l0.003-0.003
					c0.122-0.115,0.23-0.244,0.354-0.356l-0.009,0.009c0.108-0.135,0.222-0.267,0.36-0.37l-0.017,0.018
					c0.101-0.15,0.218-0.281,0.364-0.378l-0.021,0.023c0.094-0.161,0.213-0.294,0.37-0.383l-0.026,0.028
					c0.086-0.173,0.205-0.308,0.374-0.387l-0.028,0.032c0.076-0.186,0.197-0.321,0.375-0.39l-0.027,0.04
					c0.223-0.392,0.689-0.463,0.929-0.833l0.037-0.033c0.132-0.077,0.238-0.184,0.319-0.32l0.023-0.022
					c0.125-0.097,0.237-0.209,0.334-0.339l0.01-0.008c0.125-0.106,0.232-0.234,0.35-0.351l-0.006,0.005
					c0.113-0.128,0.225-0.259,0.358-0.365l-0.015,0.015c0.104-0.146,0.218-0.279,0.365-0.375l-0.021,0.022
					c0.096-0.158,0.214-0.291,0.367-0.383l-0.023,0.027c0.088-0.169,0.207-0.304,0.371-0.387l-0.027,0.03
					c0.08-0.181,0.2-0.316,0.375-0.388l-0.027,0.033c0.068-0.193,0.188-0.329,0.373-0.392l-0.026,0.041
					c0.218-0.403,0.684-0.479,0.937-0.834l0.026-0.023c0.128-0.09,0.238-0.2,0.33-0.332l0.013-0.013
					c0.123-0.107,0.237-0.223,0.346-0.346l-0.001,0.001c0.114-0.121,0.228-0.243,0.339-0.368l0,0
					c0.205-0.194,0.144-0.532,0.338-0.733v0.001c0.322-0.285,0.021-0.816,0.367-1.092l-0.012,0.021
					c0.172-0.217,0.122-0.536,0.293-0.754c0.072-0.073,0.094-0.161,0.064-0.263c0.127-0.27,0.104-0.604,0.308-0.842l-0.003,0.006
					c0.193-0.197,0.143-0.505,0.283-0.726c0.074-0.091,0.1-0.195,0.074-0.313c0.16-0.238,0.115-0.564,0.294-0.794
					c0.071-0.069,0.093-0.153,0.062-0.251c0.119-0.277,0.1-0.613,0.311-0.851l-0.004,0.009c0.188-0.202,0.138-0.511,0.285-0.732
					c0.072-0.087,0.096-0.188,0.072-0.302c0.152-0.245,0.109-0.576,0.296-0.806c0.071-0.065,0.091-0.146,0.057-0.241
					c0.115-0.282,0.096-0.622,0.316-0.858l-0.007,0.015c0.18-0.208,0.131-0.521,0.285-0.741c0.072-0.084,0.095-0.182,0.069-0.293
					c0.149-0.25,0.104-0.585,0.302-0.815c0.07-0.06,0.088-0.134,0.053-0.223c0.105-0.291,0.092-0.632,0.314-0.873l-0.008,0.017
					c0.18-0.21,0.129-0.527,0.292-0.745c0.071-0.079,0.094-0.171,0.066-0.278c0.136-0.262,0.109-0.594,0.302-0.832l0.002-0.003
					c0.328-0.281,0.023-0.814,0.369-1.088l-0.012,0.021c0.172-0.217,0.123-0.534,0.291-0.753c0.072-0.075,0.094-0.165,0.064-0.268
					c0.131-0.268,0.105-0.603,0.309-0.838l-0.002,0.004c0.195-0.195,0.145-0.501,0.281-0.723c0.073-0.092,0.099-0.198,0.076-0.318
					c0.162-0.234,0.115-0.562,0.293-0.79c0.072-0.071,0.092-0.156,0.062-0.255c0.122-0.274,0.102-0.61,0.312-0.848l-0.004,0.009
					c0.188-0.201,0.139-0.51,0.283-0.731c0.072-0.089,0.097-0.191,0.072-0.307c0.156-0.242,0.111-0.57,0.295-0.8
					c0.072-0.066,0.092-0.147,0.06-0.243c0.116-0.281,0.098-0.62,0.313-0.857l-0.006,0.013c0.184-0.206,0.135-0.516,0.285-0.737
					c0.072-0.084,0.097-0.182,0.072-0.294c0.148-0.25,0.105-0.583,0.298-0.814c0.071-0.063,0.089-0.14,0.054-0.232
					c0.111-0.287,0.094-0.627,0.317-0.865l-0.009,0.016c0.179-0.21,0.131-0.524,0.289-0.744c0.072-0.082,0.094-0.176,0.067-0.285
					c0.14-0.259,0.111-0.59,0.306-0.826v-0.003c0.326-0.282,0.025-0.812,0.365-1.089l-0.01,0.02c0.176-0.214,0.125-0.532,0.293-0.75
					c0.072-0.076,0.094-0.166,0.064-0.269c0.131-0.267,0.106-0.6,0.306-0.838l-0.001,0.001c0.199-0.191,0.146-0.5,0.284-0.719
					c0.073-0.093,0.098-0.201,0.074-0.32c0.164-0.233,0.117-0.558,0.292-0.786c0.072-0.071,0.094-0.156,0.064-0.256
					c0.121-0.274,0.102-0.61,0.309-0.848l-0.004,0.007c0.19-0.199,0.142-0.507,0.282-0.728c0.074-0.09,0.099-0.193,0.075-0.31
					c0.158-0.241,0.112-0.569,0.295-0.798c0.072-0.068,0.092-0.15,0.059-0.247c0.118-0.279,0.1-0.617,0.312-0.855l-0.005,0.012
					c0.185-0.205,0.136-0.515,0.286-0.736c0.072-0.087,0.096-0.187,0.07-0.301c0.154-0.245,0.107-0.578,0.3-0.807
					c0.071-0.062,0.089-0.14,0.054-0.232c0.111-0.286,0.096-0.626,0.314-0.865l-0.006,0.015c0.18-0.208,0.131-0.522,0.288-0.742
					c0.072-0.081,0.096-0.176,0.069-0.285c0.144-0.255,0.102-0.59,0.299-0.823c0.072-0.059,0.089-0.133,0.053-0.223
					c0.105-0.291,0.09-0.634,0.318-0.872l-0.009,0.019c0.175-0.214,0.126-0.529,0.29-0.749c0.07-0.078,0.093-0.17,0.066-0.276
					c0.135-0.263,0.107-0.597,0.305-0.833v0c0.322-0.285,0.021-0.816,0.367-1.092l-0.012,0.022c0.172-0.217,0.123-0.536,0.295-0.754
					c0.07-0.073,0.092-0.161,0.062-0.263c0.127-0.271,0.104-0.605,0.309-0.842l-0.002,0.005c0.191-0.197,0.143-0.504,0.283-0.726
					c0.072-0.09,0.098-0.195,0.074-0.312c0.159-0.238,0.112-0.566,0.295-0.794c0.071-0.068,0.092-0.15,0.06-0.247
					c0.117-0.279,0.101-0.615,0.31-0.855l-0.004,0.009c0.188-0.201,0.138-0.511,0.284-0.731c0.073-0.087,0.098-0.188,0.073-0.302
					c0.153-0.245,0.109-0.575,0.297-0.805c0.07-0.066,0.09-0.146,0.057-0.241c0.115-0.282,0.096-0.622,0.316-0.858l-0.008,0.015
					c0.18-0.208,0.133-0.52,0.286-0.741c0.071-0.084,0.095-0.182,0.069-0.292c0.148-0.251,0.104-0.586,0.302-0.816
					c0.071-0.06,0.089-0.134,0.052-0.223c0.105-0.291,0.093-0.632,0.316-0.873l-0.01,0.016c0.18-0.21,0.129-0.527,0.293-0.745
					c0.071-0.079,0.094-0.171,0.065-0.278c0.136-0.262,0.11-0.593,0.303-0.832l0.001-0.003c0.328-0.281,0.023-0.813,0.369-1.087
					l-0.012,0.021c0.172-0.217,0.124-0.534,0.292-0.753c0.071-0.074,0.093-0.163,0.065-0.266c0.128-0.269,0.105-0.603,0.307-0.84
					l-0.002,0.004c0.195-0.195,0.145-0.501,0.281-0.723c0.074-0.093,0.1-0.199,0.076-0.318c0.163-0.235,0.115-0.562,0.294-0.79
					c0.071-0.071,0.092-0.156,0.062-0.255c0.123-0.274,0.101-0.611,0.311-0.848l-0.004,0.009c0.188-0.202,0.139-0.511,0.283-0.731
					c0.073-0.089,0.098-0.191,0.072-0.307c0.158-0.241,0.111-0.571,0.297-0.8c0.072-0.065,0.092-0.146,0.059-0.241
					c0.114-0.282,0.098-0.621,0.312-0.86l-0.006,0.013c0.184-0.206,0.135-0.517,0.285-0.737c0.074-0.084,0.098-0.182,0.072-0.294
					c0.148-0.25,0.105-0.583,0.299-0.813c0.07-0.063,0.089-0.141,0.054-0.232c0.11-0.286,0.093-0.627,0.317-0.865l-0.009,0.017
					c0.179-0.211,0.13-0.524,0.288-0.744c0.072-0.081,0.094-0.175,0.068-0.284c0.14-0.26,0.111-0.591,0.304-0.827l0.002-0.002
					c0.327-0.283,0.026-0.812,0.365-1.089l-0.01,0.02c0.176-0.214,0.126-0.532,0.293-0.75c0.071-0.076,0.093-0.166,0.065-0.269
					c0.13-0.268,0.105-0.601,0.305-0.839l-0.002,0.001c0.199-0.191,0.146-0.499,0.285-0.719c0.072-0.093,0.098-0.2,0.074-0.32
					c0.164-0.232,0.117-0.558,0.292-0.786c0.071-0.071,0.093-0.156,0.063-0.256c0.122-0.274,0.103-0.61,0.309-0.849l-0.004,0.008
					c0.191-0.199,0.143-0.507,0.283-0.728c0.073-0.089,0.099-0.193,0.074-0.309c0.158-0.241,0.112-0.569,0.295-0.798
					c0.072-0.068,0.092-0.15,0.06-0.247c0.118-0.279,0.099-0.617,0.313-0.854l-0.006,0.012c0.185-0.204,0.136-0.515,0.285-0.736
					c0.072-0.086,0.096-0.187,0.07-0.301c0.154-0.245,0.107-0.579,0.301-0.807c0.071-0.063,0.089-0.14,0.055-0.232
					c0.109-0.286,0.094-0.625,0.314-0.865l-0.008,0.015c0.182-0.208,0.131-0.522,0.289-0.742c0.072-0.081,0.094-0.176,0.068-0.285
					c0.145-0.255,0.102-0.59,0.301-0.823c0.07-0.06,0.088-0.134,0.051-0.223c0.105-0.291,0.092-0.634,0.319-0.872l-0.009,0.019
					c0.174-0.213,0.125-0.529,0.289-0.749c0.072-0.078,0.094-0.17,0.066-0.275c0.135-0.264,0.107-0.597,0.305-0.833v0
					c0.324-0.285,0.021-0.817,0.369-1.092l-0.012,0.022c0.17-0.218,0.121-0.537,0.293-0.754c0.07-0.074,0.092-0.162,0.062-0.263
					c0.127-0.271,0.105-0.605,0.309-0.842l-0.002,0.005c0.193-0.197,0.143-0.504,0.283-0.726c0.073-0.09,0.098-0.195,0.074-0.312
					c0.16-0.238,0.113-0.566,0.295-0.794c0.072-0.068,0.092-0.15,0.061-0.247c0.116-0.279,0.1-0.615,0.309-0.855l-0.004,0.009
					c0.188-0.201,0.139-0.512,0.286-0.732c0.073-0.086,0.097-0.187,0.071-0.301c0.154-0.245,0.109-0.575,0.297-0.806
					c0.071-0.065,0.09-0.146,0.057-0.24c0.115-0.282,0.096-0.622,0.316-0.859l-0.008,0.015c0.181-0.208,0.133-0.521,0.287-0.741
					c0.071-0.083,0.094-0.181,0.068-0.292c0.149-0.25,0.104-0.586,0.303-0.815c0.07-0.06,0.088-0.134,0.051-0.223
					c0.106-0.291,0.092-0.633,0.318-0.872l-0.01,0.017c0.178-0.212,0.128-0.528,0.291-0.746c0.072-0.079,0.094-0.172,0.066-0.278
					c0.135-0.262,0.109-0.594,0.303-0.832l0.001-0.003c0.327-0.281,0.023-0.814,0.37-1.088l-0.012,0.021
					c0.171-0.217,0.123-0.534,0.291-0.752c0.072-0.074,0.094-0.163,0.064-0.266c0.129-0.27,0.105-0.603,0.307-0.841v0.004
					c0.193-0.195,0.143-0.502,0.281-0.723c0.074-0.091,0.1-0.195,0.076-0.313c0.158-0.238,0.115-0.564,0.293-0.793
					c0.07-0.071,0.092-0.156,0.061-0.256c0.123-0.274,0.102-0.61,0.311-0.847l-0.004,0.009c0.188-0.201,0.139-0.51,0.284-0.731
					c0.073-0.089,0.098-0.191,0.072-0.307c0.157-0.242,0.11-0.571,0.297-0.8c0.071-0.065,0.091-0.146,0.059-0.241
					c0.113-0.283,0.097-0.621,0.312-0.86l-0.005,0.013c0.185-0.205,0.134-0.518,0.288-0.737c0.072-0.084,0.094-0.182,0.068-0.293
					c0.149-0.25,0.105-0.583,0.299-0.814c0.07-0.063,0.088-0.14,0.053-0.232c0.111-0.286,0.096-0.627,0.318-0.865l-0.008,0.017
					c0.178-0.21,0.129-0.524,0.288-0.744c0.071-0.081,0.094-0.175,0.067-0.284c0.141-0.259,0.112-0.591,0.305-0.827l0.002-0.003
					c0.326-0.282,0.023-0.813,0.367-1.088l-0.012,0.02c0.174-0.215,0.125-0.533,0.293-0.75c0.072-0.076,0.094-0.165,0.064-0.269
					c0.131-0.267,0.106-0.6,0.305-0.838l-0.001,0.001c0.2-0.192,0.146-0.5,0.284-0.719c0.073-0.094,0.098-0.2,0.074-0.32
					c0.165-0.233,0.117-0.558,0.293-0.786c0.071-0.07,0.093-0.156,0.062-0.256c0.123-0.274,0.104-0.61,0.309-0.848l-0.004,0.007
					c0.191-0.199,0.142-0.508,0.285-0.728c0.074-0.089,0.098-0.191,0.074-0.308c0.155-0.242,0.111-0.57,0.293-0.8
					c0.072-0.068,0.092-0.15,0.061-0.247c0.117-0.279,0.098-0.617,0.312-0.854l-0.006,0.011c0.186-0.204,0.137-0.515,0.285-0.735
					c0.072-0.087,0.096-0.187,0.07-0.301c0.154-0.246,0.108-0.579,0.301-0.807c0.072-0.063,0.09-0.141,0.055-0.233
					c0.11-0.286,0.094-0.626,0.314-0.865l-0.007,0.015c0.181-0.209,0.131-0.523,0.29-0.742c0.07-0.081,0.094-0.176,0.066-0.285
					c0.145-0.255,0.103-0.59,0.301-0.823c0.072-0.06,0.089-0.134,0.052-0.222c0.105-0.291,0.091-0.634,0.319-0.873l-0.01,0.019
					c0.175-0.214,0.126-0.529,0.289-0.749c0.072-0.078,0.094-0.17,0.066-0.276c0.135-0.264,0.109-0.596,0.307-0.833l-0.002,0.001
					c0.324-0.285,0.022-0.818,0.371-1.093l-0.014,0.022c0.171-0.219,0.122-0.537,0.293-0.755c0.072-0.073,0.092-0.161,0.064-0.263
					c0.125-0.27,0.104-0.605,0.308-0.842l-0.003,0.006c0.193-0.197,0.143-0.505,0.283-0.725c0.073-0.091,0.099-0.195,0.074-0.313
					c0.16-0.238,0.113-0.566,0.295-0.794c0.072-0.067,0.092-0.15,0.061-0.247c0.117-0.279,0.1-0.615,0.309-0.855l-0.003,0.009
					c0.188-0.201,0.138-0.512,0.286-0.732c0.072-0.087,0.096-0.188,0.07-0.302C867.979,206.732,867.935,206.402,868.122,206.171z"/>
				<path fill-rule="evenodd" clip-rule="evenodd" fill="#C3D492" d="M942.265,404.763c-0.014-0.529-0.17-1.092,0.307-1.503
					c0,0.488,0,0.978,0,1.466C942.483,404.881,942.382,404.887,942.265,404.763z"/>
			</g>
			<g>
				<path fill="#547837" d="M594.261,394.456c-1.705-5.229-3.592-10.604-4.194-11.944c0,0,0,0-0.64-1.157
					c-0.037-0.067-0.037-0.067-0.037-0.067c-0.038-0.068-2.226,2.049-4.863,4.706c-2.638,2.657-3.928,9.246-2.869,14.643
					l3.332,16.967c1.06,5.397,5.307,7.695,9.438,5.108c4.131-2.587,5.932-8.918,4.001-14.068L594.261,394.456z"/>
			</g>
			<g>
				<path fill="#547837" d="M677.267,421.021c-5.456,0.695-9.92,5.443-9.92,10.551s2.97,5.906,6.601,1.775
					c0,0,7.882-8.972,8.848-11.062S677.267,421.021,677.267,421.021z"/>
			</g>
			<g>
				<path fill="#547837" d="M558.325,173.477c-0.1-0.725-1.069-2.202-2.154-3.283c-1.085-1.081-5.804-0.083-10.486,2.217
					c0,0,0,0,2.897,7.318c1.901,4.805,2.895,3.725,2.895,3.725C555.201,179.406,558.425,174.202,558.325,173.477z"/>
			</g>
			<g>
				<path fill="#547837" d="M538.021,404.482c-1.907-5.159-6.209-5.81-9.559-1.448c0,0-5.952,7.751-3.055,11.933
					s6.933,2.94,6.933,2.94c5.257-1.617,7.997-7.161,6.09-12.32L538.021,404.482z"/>
			</g>
			<g>
				<path fill="#547837" d="M818.457,408.597c-4.65-2.936-9.992-1.108-11.869,4.062l-4.51,12.415
					c-1.877,5.17,0.715,10.99,5.76,12.936s12.432,1.945,16.414,0s7.241-7.507,7.241-12.36s-3.806-11.226-8.456-14.162
					L818.457,408.597z"/>
			</g>
			<g>
				<path fill="#547837" d="M882.551,344.918c-3.774-1.725-10.084,0.005-14.022,3.844l-2.838,2.767
					c-3.938,3.839-5.535,11.177-3.549,16.306l5.33,13.76c1.986,5.129,7.584,7.211,12.439,4.628l4.551-2.422
					c4.855-2.583,8.271-9.163,7.589-14.62l-1.398-11.203C889.971,352.52,886.325,346.643,882.551,344.918z"/>
			</g>
			<g>
				<path fill="#547837" d="M882.222,275.46c0-5.5-2.476-6.242-5.502-1.649l-16.551,25.119c-3.026,4.592-1.329,10.035,3.771,12.094
					l9.01,3.638c5.1,2.059,9.272-0.756,9.272-6.256V275.46z"/>
			</g>
			<g>
				<path fill="#547837" d="M626.327,367.877c-2.097,0-3.812,4.5-3.812,10v30.475c0,5.5,3.824,7.628,8.499,4.729l2.315-1.436
					c4.674-2.899,7.191-9.576,5.593-14.839l-5.878-19.361C631.446,372.184,628.423,367.877,626.327,367.877z"/>
			</g>
			<g>
				<path fill="#547837" d="M899.566,191.166c-1.327-5.21-4.115-5.308-6.195-0.216l-0.176,0.431
					c-2.08,5.092-0.955,9.257,2.501,9.257S900.894,196.376,899.566,191.166z"/>
			</g>
			<g>
				<path fill="#547837" d="M875.911,224.685c0,0,8.244,14.299-0.223,25.446C867.22,261.278,869.151,223.64,875.911,224.685z"/>
			</g>
			<g>
				<path fill="#547837" d="M741.696,480.311c-3.747,0-5.485-2.117-3.862-4.705c1.623-2.587,4.688-2.587,6.812,0
					C746.771,478.193,745.443,480.311,741.696,480.311z"/>
			</g>
			<g>
				<path fill="#547837" d="M751.352,441.546c-2.124,0-3.862,2.959-3.862,6.575c0,3.615,1.738,3.615,3.862,0
					C753.476,444.505,753.476,441.546,751.352,441.546z"/>
			</g>
			<g>
				<path fill="#547837" d="M865.135,416.825c-1.82-2.493-4.051-3.168-4.957-1.502s0.583,3.706,3.31,4.532
					S866.955,419.317,865.135,416.825z"/>
			</g>
			<g>
				<path fill="#547837" d="M836.086,368.026c-2.525-2.798-5.592-2.226-6.813,1.272s0.846,5.787,4.593,5.088
					C837.613,373.687,838.612,370.825,836.086,368.026z"/>
			</g>
			<g>
				<path fill="#547837" d="M911.973,409.128c-1.625-1.741-4.057-0.721-5.404,2.266s-0.019,4.411,2.954,3.165
					S913.598,410.869,911.973,409.128z"/>
			</g>
			<g>
				<path fill="#547837" d="M568.464,344.056c-3.891-3.887-8.201-3.862-9.577,0.055c-1.377,3.918,1.832,7.124,7.13,7.124
					s6.45-3.181,2.559-7.068L568.464,344.056z"/>
			</g>
			<g>
				<path fill="#547837" d="M580.57,228.161c-2.707-1.923-5.579-1.923-6.385,0s1.409,3.497,4.92,3.497
					C582.617,231.658,583.276,230.084,580.57,228.161z"/>
			</g>
			<g>
				<path fill="#547837" d="M556.441,271.083c-3.392-4.33-6.423-3.38-6.736,2.111l-1.155,20.228
					c-0.313,5.491,2.436,6.635,6.109,2.542l4.678-5.213c3.674-4.093,3.904-10.985,0.513-15.315L556.441,271.083z"/>
			</g>
			<g>
				<path fill="#547837" d="M561.413,198.445c-1.369-1.207-2.615-2.172-2.77-2.145c0,0,0,0-0.145,0.001
					c-0.211,0.002-0.211,0.002-0.211,0.002c-0.229,0.021-0.726,0.122-1.103,0.223c0,0,0,0-0.333,0.148
					c-0.063,0.028-0.063,0.028-0.063,0.028c-0.074,0.021-0.572,0.915-1.107,1.987c-0.535,1.072,1.096,1.949,3.624,1.949
					C561.833,200.639,562.782,199.651,561.413,198.445z"/>
			</g>
			<g>
				<path fill="#547837" d="M603.257,300.991c-4.264-2.729-8.804-3.301-10.088-1.272s2.13,4.251,7.587,4.94l0.333,0.042
					C606.546,305.389,607.521,303.719,603.257,300.991z"/>
			</g>
			<g>
				<path fill="#547837" d="M586.796,274.278c-0.718-1.679-1.829-1.679-2.467,0c-0.638,1.679-0.05,3.053,1.307,3.053
					C586.992,277.331,587.515,275.958,586.796,274.278z"/>
			</g>
			<g>
				<path fill="#547837" d="M603.711,339.011c-2.658-3.855-5.647-4.809-6.643-2.12s1.179,5.844,4.833,7.01
					C605.554,345.067,606.369,342.866,603.711,339.011z"/>
			</g>
			<g>
				<path fill="#547837" d="M688.149,462.793c-1.337-1.679-3.08-2.287-3.872-1.352c-0.792,0.937,0.302,2.311,2.432,3.053
					C688.839,465.237,689.487,464.472,688.149,462.793z"/>
			</g>
			<g>
				<path fill="#547837" d="M639.558,448.121c-1.057-0.975-1.057-0.975-1.057-0.975c-3.481,1.889-3.24,4.36,0.536,5.492
					C642.812,453.77,643.047,451.737,639.558,448.121z"/>
			</g>
			<g>
				<path fill="#547837" d="M790.399,457.057c-2.521-3.154-5.296-3.154-6.168,0c-0.872,3.155,1.189,5.736,4.582,5.736
					S792.92,460.212,790.399,457.057z"/>
			</g>
			<g>
				<path fill="#547837" d="M779.474,404.788c-1.744-2.099-4.361-2.099-5.815,0c-1.453,2.099-0.025,3.816,3.172,3.816
					C780.029,408.604,781.218,406.887,779.474,404.788z"/>
			</g>
			<g>
				<path fill="#547837" d="M849.255,438.752c0,0,0,1.46,0,3.244c0,1.783,1.218,0.821,2.706-2.14s1.488-5.537,0-5.727
					s-2.706,0.43-2.706,1.376c0,0.945,0,1.719,0,1.719"/>
			</g>
			<g>
				<path fill="#547837" d="M541.358,143.663c-3.643-1.435-6.645-2.609-6.671-2.608c-0.027,0-0.097,0.471-0.097,1.042
					c0,0.572,0.324,1.745,0.719,2.607c0.396,0.863,3.409,1.568,6.695,1.568S545,145.098,541.358,143.663z"/>
			</g>
			<g>
				<path fill="#547837" d="M539.467,116.894c-1.809-3.358-4.241-4.79-5.404-3.181c-1.163,1.609-1.163,4.357,0,6.106
					s3.595,3.18,5.404,3.18S541.276,120.251,539.467,116.894z"/>
			</g>
			<g>
				<path fill="#547837" d="M534.181,86.492c-1.745-2.588-4.124-3.333-5.287-1.654c-1.163,1.679,0.265,3.797,3.172,4.707
					C534.974,90.454,535.925,89.08,534.181,86.492z"/>
			</g>
			<g>
				<path fill="#547837" d="M522.198,47.568c-0.84-1.33-1.845-1.33-2.232,0c-0.388,1.33,0.299,2.417,1.527,2.417
					C522.721,49.985,523.038,48.897,522.198,47.568z"/>
			</g>
			<g>
				<path fill="#547837" d="M903.001,254.245c-1.453-3.044-3.691-3.881-4.974-1.86c-1.282,2.021-0.093,4.511,2.643,5.534
					C903.405,258.942,904.454,257.289,903.001,254.245z"/>
			</g>
			<g>
				<path fill="#547837" d="M908.288,144.005c-2.036-2.598-5.701-2.856-8.146-0.572c-2.445,2.283-3.445,6.985-2.223,10.448
					c1.223,3.463,4.174,5.867,6.56,5.342s5.051-3.101,5.924-5.724S910.324,146.603,908.288,144.005z"/>
			</g>
			<g>
				<path fill="#547837" d="M912.819,104.524c-0.372,0.009-1.266,2.252-1.986,4.984c-0.721,2.732,0.275,6.342,2.213,8.021
					c1.938,1.679,2.983-0.57,2.324-4.999S913.191,104.515,912.819,104.524z"/>
			</g>
			<g>
				<path fill="#547837" d="M558.555,232.871c-2.941-4.514-7.33-6.633-9.751-4.71s-0.351,5.454,4.602,7.847l1.493,0.721
					C559.851,239.121,561.496,237.385,558.555,232.871z"/>
			</g>
			<g>
				<path fill="#547837" d="M566.428,426.215c-1.26-0.661-3.896,0.772-5.859,3.186c-1.963,2.412-1.54,4.386,0.939,4.386
					c2.48,0,5.117-1.434,5.86-3.186C568.111,428.849,567.688,426.875,566.428,426.215z"/>
			</g>
			<g>
				<path fill="#547837" d="M710.798,447.604c-1.593-1.301-2.897-0.236-2.897,2.363c0,2.601,1.304,3.665,2.897,2.364
					C712.391,451.03,712.391,448.903,710.798,447.604z"/>
			</g>
			<g>
				<path fill="#547837" d="M708.424,475.241c-1.306,0.2-2.638,1.438-2.961,2.751c-0.323,1.312,0.745,2.979,2.374,3.706
					s2.961-0.512,2.961-2.751C710.797,476.709,709.729,475.041,708.424,475.241z"/>
			</g>
			<g>
				<path fill="#547837" d="M928.2,51.034c0-1.521-0.436-1.865-0.969-0.763s-0.533,2.347,0,2.767S928.2,52.555,928.2,51.034z"/>
			</g>
			<g>
				<path fill="#547837" d="M924.191,77.46c-1.672-2.519-4.071-2.519-5.331,0c-1.26,2.519,0.108,4.58,3.04,4.58
					S925.863,79.979,924.191,77.46z"/>
			</g>
			<g>
				<path fill="#547837" d="M526.485,65.344c-1.518-2.571-3.263-2.356-3.876,0.478c-0.614,2.833,0.628,4.937,2.76,4.674
					C527.501,70.233,528.004,67.915,526.485,65.344z"/>
			</g>
			<polygon stroke="#000000" stroke-miterlimit="10" points="516.513,17.672 617.417,303.407 642.751,286.566 			"/>
			<polygon stroke="#000000" stroke-miterlimit="10" points="933.966,19.026 833.062,304.761 807.728,287.919 			"/>
		</g>
	</g>
</g>
<g id="Layer_10">
</g>
</svg>
