<?xml version="1.0" encoding="utf-8"?>
<!-- Generator: Adobe Illustrator 16.0.0, SVG Export Plug-In . SVG Version: 6.00 Build 0)  -->
<!DOCTYPE svg PUBLIC "-//W3C//DTD SVG 1.1//EN" "http://www.w3.org/Graphics/SVG/1.1/DTD/svg11.dtd">
<svg version="1.1" xmlns="http://www.w3.org/2000/svg" xmlns:xlink="http://www.w3.org/1999/xlink" x="0px" y="0px" width="1440px"
	 height="900px" viewBox="0 0 1440 900" enable-background="new 0 0 1440 900" xml:space="preserve">
<g id="Layer_2">
	<rect x="-64.714" y="-29" fill="#D2DE28" width="1598.572" height="970"/>
</g>
<g id="Layer_1">
	<g id="XMLID_2_">
		<g>
			<g>
				<path fill="#FFFFFF" d="M1001.777,587.548c0,0-8.502-0.12-18.205-0.2l-0.083-0.17l13.835-7.84L1001.777,587.548z"/>
			</g>
			<g>
				<path fill="#FFFFFF" d="M579.323,583.808v0.01l2.276,25.801l-8.854-4.79v-20.53
					C574.859,584.128,577.055,583.968,579.323,583.808z"/>
			</g>
			<g>
				<path fill="#FFFFFF" d="M898.793,674.078c-4.111,2.149-8.194,4.27-12.232,6.399l-4.609-10.8l16.237-5.86h0.253
					c0.099,5.771,0.189,9.88,0.189,9.88L898.793,674.078z"/>
			</g>
			<g>
				<path fill="#FFFFFF" d="M983.489,587.178l0.083,0.17c-12.233-0.1-26.384-0.14-27.82,0.18c11.729-4.58,23.89-11.97,34.299-21.59
					l7.273,13.4L983.489,587.178z"/>
			</g>
			<g>
				<path fill="#FFFFFF" d="M953.72,609.618l-12.976,0.359v-17.78l-0.045-0.31c4.78-0.87,9.821-2.32,14.954-4.33
					c-0.805,0.49-1.302,11.59-1.581,22.07L953.72,609.618z"/>
			</g>
			<g>
				<path fill="#FFFFFF" d="M1015.214,528.348c-0.38,6.08-0.38,12.08-0.38,18.08c-0.435,4.57-1.075,8.96-1.924,13.2l-3.497-8.2
					l-19.3,14.45c11.051-10.24,20.122-23,24.567-37.601L1015.214,528.348z"/>
			</g>
			<g>
				<path fill="#FFFFFF" d="M1012.91,559.628c-2.097,10.52-5.412,20.05-9.731,28.77l-1.401-0.85l-4.453-8.21l-7.273-13.4
					c0.018-0.02,0.045-0.04,0.062-0.06l19.3-14.45L1012.91,559.628z"/>
			</g>
			<g>
				<path fill="#FFFFFF" d="M955.733,587.527c0.01,0,0.01,0,0.019,0c1.437-0.319,15.587-0.279,27.82-0.18
					c9.703,0.08,18.205,0.2,18.205,0.2l1.401,0.85c-9.215,18.62-22.977,33.5-39.042,46.181l-10.417-6.301
					c0,0,0.09-9.069,0.353-18.649c0.279-10.48,0.776-21.58,1.581-22.07c0.008,0,0.008-0.01,0.017-0.01
					C955.688,587.538,955.706,587.538,955.733,587.527z"/>
			</g>
			<g>
				<path fill="#FFFFFF" d="M888.981,587.908c14.881,1.279,26.88,2.72,34.858,4.289c4.896,0.961,10.652,0.82,16.859-0.31l0.045,0.31
					v17.78l-34.976,1.23l-16.787,0.59V587.908z"/>
			</g>
			<g>
				<path fill="#FFFFFF" d="M929.18,657.688c-10.012,5.73-20.267,11.11-30.387,16.391l-0.162-0.381c0,0-0.091-4.109-0.189-9.88
					c-0.227-13.59-0.516-36.39,0.189-36.39c0.841,0,11.801,0,15.306,0l15.243,30.25V657.688z"/>
			</g>
			<g>
				<path fill="#FFFFFF" d="M913.937,627.428l-8.168-16.22l19.01-0.42l28.941,17.489l10.417,6.301
					c-10.833,8.55-22.715,16.09-34.957,23.1L913.937,627.428z"/>
			</g>
			<g>
				<path fill="#FFFFFF" d="M888.981,611.798v25.63h-85.186l29.185-53.07c21.043,0.99,40.161,2.181,56.001,3.551V611.798z"/>
			</g>
			<g>
				<path fill="#FFFFFF" d="M854.503,683.728v-21.3h24.35l3.099,7.25l4.609,10.8c-8.096,4.271-16.002,8.54-23.52,12.95
					c-3.895,2.21-6.695-2.77-8.665-9.66L854.503,683.728z"/>
			</g>
			<g>
				<path fill="#FFFFFF" d="M850.266,657.688c0,0,1.038,15.351,4.11,26.08c1.97,6.891,4.771,11.87,8.665,9.66
					c-7.229,5-15.36,8-22.589,14c-0.145,0.08-0.289,0.16-0.442,0.24c-6.253,2.88-9.596-24.83-10.951-40.181L850.266,657.688z"/>
			</g>
			<g>
				<path fill="#FFFFFF" d="M840.01,707.668c-3.533,1.92-7.834,3.84-11.303,5.76c-3.099,2.16-6.163,4.33-9.198,6.53l-13.074-10.19
					l-1.834-36.12l-0.805-15.96h24.522c0,0,0.234,4.03,0.74,9.8C830.414,682.838,833.757,710.548,840.01,707.668z"/>
			</g>
			<g>
				<path fill="#FFFFFF" d="M806.435,709.768l13.074,10.19c-15.794,11.439-30.702,23.54-44.2,37.46l-1.202-1.42l-11.62-38.57
					h-18.793l-5.349-15.16l35.762-17.7L806.435,709.768z"/>
			</g>
			<g>
				<polygon fill="#FFFFFF" points="804.601,673.647 806.435,709.768 774.106,684.567 738.345,702.268 738.218,702.197 
					750.876,674.567 727.963,674.567 727.963,673.697 738.345,653.947 803.796,673.697 				"/>
			</g>
			<g>
				<path fill="#FFFFFF" d="M797.31,582.928c12.306,0.41,24.269,0.88,35.671,1.43l-14.99,26.431l-15.196-0.5l-5.449-26.08
					c-0.027-0.04-0.054-0.061-0.072-0.061L797.31,582.928z"/>
			</g>
			<g>
				<path fill="#FFFFFF" d="M761.06,581.928c12.278,0.27,24.422,0.6,36.25,1l-0.037,1.22c-0.767,0,6.523,35.61,6.523,35.61h-6.713
					h-26.059C766.806,608.838,759.849,589.308,761.06,581.928z"/>
			</g>
			<g>
				<path fill="#FFFFFF" d="M774.106,755.998l1.202,1.42c-4.338,4.47-8.53,9.13-12.56,14.01c-6.324,4-12.65,9-19.878,12
					c-18.441,7.65-37.533,2.29-54.501-8.71l21.196-57.29h21.667h12.46h18.793L774.106,755.998z"/>
			</g>
			<g>
				<path fill="#FFFFFF" d="M720.445,646.158c1.156-15.681,3.217-39.021,6.09-52.99l-4.057,34.26h51.628c0,0-1.293-3.07-3.082-7.67
					h26.059c-6.713,0,9.035,30.8,9.035,30.8L720.445,646.158z"/>
			</g>
			<g>
				<path fill="#FFFFFF" d="M774.106,627.428h-51.628l4.057-34.26c1.383-6.76,2.955-11.33,4.698-11.78
					c9.967,0.13,19.942,0.31,29.826,0.54c-1.211,7.38,5.746,26.91,9.965,37.83C772.813,624.357,774.106,627.428,774.106,627.428z"/>
			</g>
			<g>
				<polygon fill="#FFFFFF" points="738.345,702.268 743.693,717.428 731.233,717.428 738.218,702.197 				"/>
			</g>
			<g>
				<path fill="#FFFFFF" d="M669.233,581.128l-2.213,38.63l-36.187-10.14v-27.95C642.995,581.388,655.888,581.218,669.233,581.128z"
					/>
			</g>
			<g>
				<path fill="#FFFFFF" d="M719.379,662.428l-54.663-2.5l0.126-2.24l2.177-37.93l2.213-38.63c18.93-0.11,38.762-0.04,58.703,0.21
					l-1.4,11.83c-2.873,13.97-4.934,37.31-6.09,52.99C719.741,655.718,719.379,662.428,719.379,662.428z"/>
			</g>
			<g>
				<path fill="#FFFFFF" d="M611.488,669.678l46.261,4.02l3.831,19.5l1.166,0.53c-4.084,6.101-7.951,11.2-9.207,10.8l-0.126-0.069
					c-2.358-1.78-35.012-21.011-40.985-24.53l-0.497-0.29l-0.443-0.26l-0.894-9.601L611.488,669.678z"/>
			</g>
			<g>
				<path fill="#FFFFFF" d="M653.539,704.527c1.256,0.4,5.123-4.699,9.207-10.8c5.765-8.59,11.972-19.16,11.972-19.16h53.246h22.913
					l-12.658,27.63l-6.984,15.23h-21.667l-21.196,57.29c-2.991-1.94-5.909-4.05-8.747-6.29c-8.131-7-14.457-14-21.684-22
					l11.293-32.5L653.539,704.527z"/>
			</g>
			<g>
				<path fill="#FFFFFF" d="M611.931,679.638l0.497,0.29l40.985,24.53l0.126,0.069l15.694,9.4l-11.293,32.5
					c-16.264-16-33.431-28-52.405-39c-1.274-0.68-2.548-1.36-3.822-2.02l3.822-29.591l5.954,3.561L611.931,679.638z"/>
			</g>
			<g>
				<path fill="#FFFFFF" d="M630.833,581.668v27.95l36.187,10.14l-2.177,37.93l-37.244-3.74l3.208-72.279
					C630.815,581.668,630.824,581.668,630.833,581.668z"/>
			</g>
			<g>
				<path fill="#FFFFFF" d="M630.806,581.668l-3.208,72.279l-0.379,8.48l-18.107-8.48l-24.621-11.539l-2.892-32.79l-2.276-25.801
					v-0.01C593.861,582.828,611.407,582.118,630.806,581.668z"/>
			</g>
			<g>
				<path fill="#FFFFFF" d="M610.594,669.777l0.894,9.601l-5.954-3.561l-3.822,29.591c-12.297-6.431-24.711-12.051-37.09-17.931
					v-0.01v-33.521v-19.71l7.996,3.54l36.494,16.17L610.594,669.777z"/>
			</g>
			<g>
				<polygon fill="#FFFFFF" points="570.595,618.328 572.745,637.428 572.618,637.777 564.622,634.237 564.622,653.947 
					532.493,647.147 530.152,627.428 518.533,624.868 521.804,611.798 				"/>
			</g>
			<g>
				<path fill="#FFFFFF" d="M564.622,687.478c-12.36-5.88-24.675-12.01-36.792-19.439v-21.88l4.663,0.989l32.129,6.8v33.521V687.478
					z"/>
			</g>
			<g>
				<path fill="#FFFFFF" d="M513.88,581.218c10.978,5.47,22.335,8.34,33.051,6.21c6.207-1.23,15.007-2.27,25.814-3.13v20.53v5.46
					l-58.865-5.971v-8.569V581.218z"/>
			</g>
			<g>
				<path fill="#FFFFFF" d="M530.152,627.428l2.34,19.72l-4.663-0.989v21.88c-5.773-3.53-11.501-7.37-17.167-11.61
					c-5.746-4.48-10.842-9.39-15.36-14.63v-22.04l23.23,5.11L530.152,627.428z"/>
			</g>
			<g>
				<path fill="#FFFFFF" d="M490.632,565.848c7.273,5.9,15.161,11.34,23.248,15.37v14.53h-0.903l-23.167,8.52l-1.039,0.561
					l-9.053-20.681h22.028C501.429,583.607,491.328,566.688,490.632,565.848z"/>
			</g>
			<g>
				<path fill="#FFFFFF" d="M464.05,577.428h12.731l2.936,6.72l9.053,20.681l6.533,14.93v22.04
					c-15.848-18.351-24.82-40.88-31.263-64.37H464.05z"/>
			</g>
			<g>
				<path fill="#FFFFFF" d="M453.488,527.718c3.849,4.92,18.486,22.99,37.117,38.1c0.009,0.011,0.018,0.011,0.027,0.03
					c0.696,0.84,10.797,17.76,11.114,18.3h-22.028l-2.936-6.72H464.05h-0.01c-4.445-16.22-7.679-32.9-11.122-48.95L453.488,527.718z
					"/>
			</g>
		</g>
		<g>
			<g>
				<path d="M929.925,658.979l-1.49-2.604c14.072-8.058,25.122-15.358,34.772-22.976c17.697-13.968,30.332-28.906,38.627-45.668
					c4.38-8.843,7.611-18.396,9.605-28.397c0.831-4.153,1.468-8.519,1.895-12.979c0-5.9,0.002-12,0.383-18.103l2.9-1.274
					c-0.377,6.033-0.283,13.571-0.283,19.448l-0.007,0.142c-0.436,4.587-1.091,9.079-1.946,13.353
					c-2.045,10.259-5.361,20.063-9.858,29.142c-8.496,17.169-21.403,32.442-39.456,46.692
					C955.296,643.467,944.13,650.846,929.925,658.979z"/>
			</g>
			<g>
				<path d="M724.928,788.478c-11.915,0-24.564-4.197-37.374-12.501c-2.942-1.909-5.923-4.053-8.86-6.371
					c-8.256-7.106-14.564-14.088-21.868-22.172c-14.599-14.358-30.669-26.316-52.044-38.708l-0.197-0.104
					c-1.188-0.633-2.374-1.267-3.562-1.881c-9.296-4.861-18.825-9.336-28.04-13.663c-3.002-1.41-6.004-2.819-9.004-4.245
					c-11.828-5.626-24.488-11.885-36.933-19.516c-6.036-3.69-11.851-7.623-17.282-11.688c-5.663-4.416-10.902-9.406-15.597-14.852
					c-13.755-15.927-23.788-36.566-31.573-64.953c-3.537-12.907-6.325-26.175-9.021-39.005c-0.707-3.362-1.569-8.175-2.281-11.494
					l3.093,0.838c0.712,3.322,1.417,6.673,2.124,10.04c2.687,12.786,5.465,26.008,8.978,38.828
					c7.663,27.939,17.498,48.208,30.951,63.786c4.567,5.298,9.663,10.151,15.147,14.428c5.333,3.99,11.069,7.87,17.027,11.514
					c12.327,7.559,24.901,13.773,36.654,19.364c2.995,1.423,5.994,2.831,8.992,4.238c9.244,4.341,18.802,8.83,28.149,13.718
					c1.193,0.617,2.391,1.256,3.589,1.896l0.244,0.13c21.649,12.549,37.903,24.647,52.751,39.254
					c7.297,8.073,13.546,14.989,21.611,21.933c2.815,2.221,5.72,4.31,8.584,6.168c19.109,12.388,36.979,15.276,53.109,8.583
					c5.088-2.111,9.792-5.293,14.342-8.369c1.674-1.132,3.402-2.301,5.106-3.384c3.906-4.721,8.106-9.401,12.488-13.916
					c12.166-12.546,26.273-24.503,44.396-37.63c2.863-2.075,5.88-4.217,9.221-6.546l0.131-0.082
					c1.836-1.016,3.916-2.039,5.927-3.029c1.828-0.899,3.718-1.829,5.387-2.736c0.114-0.06,0.214-0.114,0.31-0.167
					c4.298-3.545,8.896-6.064,13.345-8.502c3.236-1.773,6.293-3.448,9.239-5.486l0.095-0.061
					c8.124-4.767,16.479-9.237,23.578-12.983c2.812-1.482,5.645-2.961,8.494-4.447l3.743-1.954
					c10.818-5.645,20.566-10.771,30.337-16.363l1.49,2.604c-9.817,5.619-19.593,10.76-30.438,16.419l-3.745,1.955
					c-2.846,1.484-5.675,2.96-8.481,4.441c-7.058,3.722-15.354,8.163-23.413,12.889c-3.062,2.113-6.313,3.895-9.458,5.618
					c-4.362,2.39-8.873,4.861-12.979,8.271l-0.231,0.158c-0.154,0.086-0.31,0.171-0.475,0.257c-1.7,0.925-3.617,1.868-5.472,2.78
					c-1.954,0.962-3.975,1.956-5.731,2.926c-3.301,2.301-6.281,4.418-9.112,6.47c-17.979,13.021-31.961,24.871-44.003,37.289
					c-4.384,4.517-8.582,9.2-12.48,13.921l-0.152,0.185l-0.202,0.128c-1.73,1.095-3.432,2.245-5.232,3.463
					c-4.673,3.16-9.505,6.428-14.872,8.655C737.546,787.261,731.343,788.478,724.928,788.478z"/>
			</g>
			<g>
				<path d="M956.298,588.925l-1.092-2.795c12.024-4.695,24.017-12.239,33.776-21.247l0.111-0.105
					c11.762-10.898,20.113-23.671,24.152-36.937c0.175-0.59,0.354-1.201,0.521-1.812l0.118-0.299
					c0.486-0.928,48.288-93.056,14.834-115.059l1.648-2.507c15.129,9.951,17.338,33.105,6.566,68.82
					c-7.583,25.14-19.267,47.965-20.317,49.995c-0.161,0.578-0.33,1.156-0.498,1.725c-4.191,13.765-12.812,26.979-24.937,38.228
					l-0.113,0.107C981.031,576.315,968.683,584.088,956.298,588.925z"/>
			</g>
			<g>
				<path d="M930.88,594.339c-2.604,0-5.053-0.223-7.329-0.67c-7.691-1.513-19.366-2.948-34.698-4.267
					c-15.384-1.33-34.205-2.523-55.942-3.547c-10.876-0.524-22.537-0.991-35.65-1.429c-11.385-0.386-23.575-0.722-36.233-0.999
					c-9.761-0.228-19.79-0.409-29.812-0.54l-3.305-0.05c-19.932-0.251-39.672-0.322-58.667-0.21
					c-14.218,0.096-26.771,0.272-38.374,0.54c-19.971,0.463-37.271,1.182-51.444,2.137c-2.258,0.159-4.448,0.318-6.558,0.488
					c-11.061,0.881-19.688,1.926-25.643,3.106c-10.098,2.007-21.542-0.126-34.012-6.339c-7.499-3.737-15.414-8.969-23.524-15.548
					l1.89-2.33c7.941,6.441,15.67,11.554,22.972,15.192c11.861,5.911,22.659,7.956,32.09,6.081
					c6.069-1.203,14.812-2.264,25.987-3.153c2.118-0.17,4.318-0.331,6.591-0.491c14.222-0.958,31.565-1.68,51.554-2.144
					c11.647-0.268,24.216-0.444,38.451-0.54c19.014-0.113,38.774-0.041,58.731,0.21l3.306,0.05
					c10.025,0.131,20.065,0.312,29.835,0.54c12.667,0.278,24.87,0.615,36.266,1.001c13.128,0.438,24.804,0.905,35.692,1.431
					c21.774,1.024,40.636,2.221,56.058,3.555c15.439,1.327,27.222,2.777,35.019,4.312c4.656,0.913,10.141,0.808,16.302-0.313
					c4.735-0.862,9.673-2.292,14.676-4.251l1.094,2.793c-5.183,2.029-10.308,3.513-15.232,4.409
					C937.396,594.014,934.023,594.339,930.88,594.339z"/>
			</g>
			<g>
				<path d="M489.66,566.982c-18.678-15.148-33.313-33.176-37.353-38.341c-0.664-0.847-1.015-1.316-1.015-1.316l-0.097-0.147
					c-0.126-0.219-12.736-22.159-21.852-47.492c-12.379-34.402-12.752-58.379-1.111-71.264l2.226,2.012
					c-25.732,28.479,21.573,112.159,23.291,115.167c0.118,0.156,0.43,0.566,0.919,1.192c3.992,5.103,18.447,22.91,36.881,37.859
					L489.66,566.982z"/>
			</g>
			<g>
				<path d="M732.597,718.053l-2.727-1.25l18.669-40.735h-72.966c-1.519,2.561-6.733,11.271-11.582,18.496
					c-7.6,11.352-9.375,11.888-10.908,11.393l0.911-2.857c-0.262-0.084-0.471-0.04-0.529-0.017
					c0.279-0.114,1.978-1.143,8.034-10.188c5.675-8.456,11.863-18.98,11.925-19.086l0.435-0.74h79.354L732.597,718.053z"/>
			</g>
			<g>
				<path d="M652.509,705.655c-0.833-0.629-7.181-4.601-40.339-24.139l-0.503-0.297l1.523-2.584l0.503,0.296
					c25.385,14.958,39.053,23.144,40.624,24.329L652.509,705.655z"/>
			</g>
			<g>
				<polygon points="609.995,679.517 607.701,654.963 566.122,636.542 566.122,653.947 563.122,653.947 563.122,631.933 
					610.524,652.932 612.982,679.239 				"/>
			</g>
			<g>
				<path d="M774.106,628.928h-53.316l5.683-47.997l2.979,0.354l-5.285,44.644h47.698c-0.553-1.355-1.335-3.303-2.239-5.626
					c-5.246-13.581-11.247-31.301-10.047-38.617c0.047-0.334,0.106-0.628,0.183-0.893l2.883,0.832
					c-0.046,0.156-0.074,0.335-0.1,0.513c-0.844,5.147,2.759,18.65,9.879,37.08c1.759,4.521,3.052,7.599,3.065,7.629l0.876,2.082
					H774.106z"/>
			</g>
			<g>
				<polygon points="818.587,721.141 773.928,686.33 740.201,703.022 745.107,716.929 742.279,717.927 738.345,702.268 
					774.285,682.805 820.431,718.775 				"/>
			</g>
			<g>
				<polygon points="689.777,775.238 686.963,774.197 708.522,715.928 763.601,715.928 775.543,755.565 773.5,758.832 
					761.372,718.928 710.611,718.928 				"/>
			</g>
			<g>
				<path d="M805.634,621.258h-35.747v-3h32.071c-6.896-33.789-6.42-34.372-5.869-35.047l0.45-0.552l0.733-0.012
					c0.523,0,1.001,0.261,1.311,0.715l-1.238,0.846l-0.072,1.439c0.867,0,1.425-0.731,1.443-1.256
					c-0.067,1.907,3.981,22.521,6.55,35.065L805.634,621.258z"/>
			</g>
			<g>
				<path d="M806.435,709.777l-1.5-0.01l-2.716-53.58h27.515l0.082,1.413c0.003,0.04,0.239,4.077,0.737,9.756
					c2.342,26.52,5.809,37.495,8.271,38.924c0.208,0.12,0.339,0.125,0.558,0.025c0.115-0.05,0.182-0.089,0.253-0.136l1.635,2.516
					c-0.236,0.153-0.459,0.273-0.681,0.366c-1.065,0.491-2.213,0.437-3.27-0.177c-4.274-2.479-7.557-16.359-9.755-41.256
					c-0.327-3.73-0.543-6.761-0.653-8.432h-21.538l2.56,50.504L806.435,709.777z"/>
			</g>
			<g>
				<path d="M861.218,695.456c-0.682,0-1.266-0.154-1.723-0.341c-2.617-1.07-4.764-4.647-6.562-10.936
					c-2.427-8.477-3.589-19.587-3.993-24.228l-19.253,8.896l-1.258-2.723l23.186-10.715l0.146,2.175
					c0.011,0.152,1.064,15.319,4.057,25.769c1.976,6.912,3.863,8.596,4.812,8.983c0.35,0.143,0.854,0.247,1.67-0.215l1.48,2.609
					C862.835,695.27,861.967,695.456,861.218,695.456z"/>
			</g>
			<g>
				<polygon points="927.84,658.353 903.36,609.761 925.181,609.279 925.554,609.504 964.913,633.295 963.36,635.861 
					924.376,612.297 908.177,612.655 930.68,657.321 930.68,657.678 929.17,657.683 				"/>
			</g>
			<g>
				<polygon points="574.245,611.948 512.38,605.673 512.38,581.218 515.38,581.208 515.38,602.962 571.245,608.628 
					571.245,584.147 574.245,584.147 				"/>
			</g>
			<g>
				<polygon points="666.615,621.202 629.333,610.756 629.333,581.107 632.333,581.107 632.333,608.48 667.424,618.313 				"/>
			</g>
			<g>
				<path d="M503.04,585.647h-2.154l-0.435-0.742c-0.458-0.781-10.082-16.88-10.973-18.098l-0.009-0.01l0.001-0.001
					c-0.003-0.004-0.005-0.007-0.008-0.011l-0.185-0.295l1.216-0.578l1.217-1.051l0.044,0.055l0.033-0.026
					C492.606,565.88,502.941,585.479,503.04,585.647l-1.29-1.503L503.04,585.647z M490.604,565.817l0.921-1.183l0.184,0.228
					L490.604,565.817z"/>
			</g>
			<g>
				<polygon points="503.04,585.647 479.717,585.647 479.672,582.647 500.852,582.647 				"/>
			</g>
			<g>
				<polygon points="531.003,647.324 528.789,628.663 494.981,621.223 495.625,618.293 531.516,626.192 533.982,646.971 				"/>
			</g>
			<g>
				<polygon points="890.481,638.928 801.259,638.928 831.666,583.635 834.295,585.08 806.333,635.928 887.481,635.928 
					887.481,587.908 890.481,587.897 				"/>
			</g>
			<g>
				<polygon points="818.848,612.317 801.566,611.748 795.876,584.515 798.813,583.901 804.021,608.828 817.133,609.259 
					831.788,583.416 834.407,584.879 834.29,585.089 				"/>
			</g>
			<g>
				<polygon points="856.003,683.728 853.003,683.728 853.003,660.928 879.843,660.928 887.94,679.889 885.181,681.066 
					877.862,663.928 856.003,663.928 				"/>
			</g>
			<g>
				<path d="M897.131,673.73c0,0-0.091-4.112-0.189-9.888c-0.604-36.238-0.078-36.773,0.589-37.451l0.44-0.448l0.66-0.016h16.372v3
					h-15.134c-0.172,2.408-0.339,10.192,0.072,34.864c0.099,5.765,0.189,9.87,0.189,9.872L897.131,673.73z"/>
			</g>
			<g>
				<path d="M955.22,628.292l-3-0.029c0.001-0.091,0.093-9.192,0.354-18.676c0.545-20.475,1.258-22.533,2.081-23.165l0.552-0.292
					l0.401-0.103c0.798-0.134,4.103-0.373,27.978-0.18c6.476,0.054,12.416,0.125,15.654,0.166l-10.688-19.695v-1.104l0.663-0.538
					l20.829-15.595l4.247,9.957l-2.76,1.178l-2.747-6.443l-16.801,12.579l12.335,22.731l-2.562-0.036c0,0-8.498-0.12-18.196-0.2
					c-19.116-0.154-25.029-0.027-26.819,0.081c-0.272,1.436-0.776,6.034-1.169,20.739
					C955.312,619.125,955.221,628.201,955.22,628.292z"/>
			</g>
			<g>
				<polygon points="566.122,687.468 563.122,687.468 563.122,655.163 529.33,648.01 529.33,668.038 526.33,668.038 526.33,644.307 
					566.122,652.731 				"/>
			</g>
			<g>
				<polygon points="659.356,746.92 656.522,745.936 667.416,714.588 606.729,678.279 603.2,705.601 600.224,705.216 
					604.34,673.355 671.05,713.268 				"/>
			</g>
			<g>
				<polygon points="496.803,641.798 493.803,641.798 493.803,620.071 475.8,578.928 464.05,578.928 464.05,575.928 
					477.763,575.928 496.803,619.444 				"/>
			</g>
			<g>
				<polygon points="628.618,664.739 583.073,643.4 577.829,583.949 580.817,583.686 585.91,641.416 625.821,660.116 
					629.335,581.035 632.331,581.18 632.304,581.74 				"/>
			</g>
			<g>
				<path d="M720.796,663.994l-57.664-2.638l4.603-80.314l2.998,0.086l-4.434,77.371l51.667,2.362
					c0.146-2.498,0.478-7.945,0.984-14.813c1.229-16.671,3.288-39.431,6.116-53.182c2.171-10.61,4.067-12.485,5.793-12.931
					l0.75,2.904c-0.134,0.07-1.646,1.059-3.604,10.629c-2.797,13.596-4.841,36.217-6.063,52.8
					c-0.695,9.436-1.061,16.173-1.064,16.24L720.796,663.994z"/>
			</g>
			<g>
				
					<rect x="627.504" y="654.318" transform="matrix(0.995 0.0999 -0.0999 0.995 68.7649 -61.2895)" width="37.431" height="2.999"/>
			</g>
			<g>
				<polygon points="660.108,693.486 656.495,675.094 611.358,671.172 611.618,668.184 659.003,672.301 663.052,692.908 				"/>
			</g>
			<g>
				<polygon points="803.362,675.134 739.097,655.741 729.291,674.396 726.635,672.999 737.593,652.153 804.229,672.261 				"/>
			</g>
			<g>
				<path d="M808.637,652.188l-88.269-4.532l0.154-2.996l83.096,4.268c-3.919-7.902-11.768-24.904-9.095-29.272
					c0.551-0.901,1.46-1.397,2.56-1.397v3c-1.402,1.749,3.345,14.875,10.371,28.617L808.637,652.188z"/>
			</g>
			<g>
				<polygon points="889.034,613.297 888.929,610.299 939.244,608.529 939.244,592.197 942.244,592.197 942.244,611.426 				"/>
			</g>
			<g>
				
					<rect x="499.893" y="587.666" transform="matrix(0.345 0.9386 -0.9386 0.345 891.5948 -77.596)" width="3.001" height="24.684"/>
			</g>
			<g>
				<polygon points="571.254,637.596 569.235,619.659 522.934,613.463 519.988,625.232 517.078,624.504 520.674,610.133 
					571.954,616.997 574.236,637.26 				"/>
			</g>
			<g>
				<polygon points="984.073,588.573 982.563,585.981 982.734,585.882 996.585,578.033 998.063,580.643 				"/>
			</g>
			<g>
				
					<rect x="945.732" y="603.308" transform="matrix(0.028 0.9996 -0.9996 0.028 1530.2662 -354.1382)" width="2.999" height="12.981"/>
			</g>
			<g>
				
					<rect x="572.139" y="605.723" transform="matrix(0.8795 0.4758 -0.4758 0.8795 358.4641 -201.4884)" width="10.067" height="3"/>
			</g>
			<g>
				
					<rect x="888.57" y="658.116" transform="matrix(0.3392 0.9407 -0.9407 0.3392 1215.3992 -396.7079)" width="3" height="17.262"/>
			</g>
		</g>
	</g>
	<g>
		<path d="M465.55,424.93c-0.374-17.901-8.299-29.633-17.641-34.994c-16.922-9.709-44.626,2.061-44.889,2.208l0,0
			c0.282-0.157,7.018-3.884,16.078-6.39c12.158-3.361,22.634-2.817,30.297,1.576C459.717,393.25,465.153,405.9,465.55,424.93
			L465.55,424.93z"/>
	</g>
	<g>
		<path d="M995.825,434.59c-0.033-1.237-0.566-30.48,18.921-45.708c12.168-9.507,29.343-11.278,51.048-5.267l0,0
			c-20.739-5.746-37.825-1.26-49.2,7.63C998.285,405.552,995.818,434.302,995.825,434.59L995.825,434.59z"/>
	</g>
	<g>
		<path d="M734.572,452.855c-9.015,0-17.661-5.008-20.104-8.121l-0.014,0.014c-0.055-0.054-5.696-5.549-12.648-5.549
			c-4.026,0-10.703,2.624-14.063,6.274l-1.254,0.331l-0.517,0.082c-0.671,0.105-12.707,1.865-22.02,1.865
			c-4.799,0-6.935-0.606-7.618-2.162c-0.235-0.536-0.453-1.628,0.737-2.92c20.302-22.062,44.492-45.601,74.69-45.601
			c24.159,0,48.707,14.929,75.044,45.64c0.979,1.143,0.756,2.118,0.535,2.597c-0.608,1.324-2.296,1.84-6.02,1.84
			c-6.931,0-18.648-1.9-19.144-1.98l-0.428-0.07l-0.326-0.288c-0.078-0.069-8.151-6.057-16.174-6.057
			c-4.521,0-8.071,1.351-10.975,5.759C750.679,449.969,741.826,452.855,734.572,452.855z M717.002,443.171
			c1.738,1.474,8.239,6.684,17.569,6.684c6.285,0,14.141-2.354,17.198-6.997c3.494-5.304,7.888-7.109,13.48-7.109
			c8.254,0,16.114,5.092,17.822,6.519c2.157,0.339,12.271,1.876,18.249,1.876c1.27,0,2.099-0.072,2.632-0.153
			c-25.513-29.555-49.133-43.924-72.191-43.924c-28.851,0-52.394,22.826-72.208,44.334c0.65,0.163,1.933,0.349,4.399,0.349
			c8.169,0,18.23-1.323,21.047-1.751c3.862-4.036,12.057-6.801,16.806-6.801c8.209,0,14.5,6.159,14.763,6.421l0.43,0.428
			L717.002,443.171z"/>
	</g>
	<g>
		<path stroke="#000000" stroke-width="2" stroke-miterlimit="10" d="M736.637,565.287c-4.847-12.837-9.694-33.292-8.872-62.888
			c0.614-22.165,2.478-38.872,2.681-40.618l0,0C730.364,462.511,725.377,535.465,736.637,565.287L736.637,565.287z"/>
	</g>
	<path fill="#F4ED6B" stroke="#000000" stroke-width="3" stroke-miterlimit="10" d="M1038.404,156.982
		c0,0-67.505,8.276-132.033,40.533c-0.222,0.35-0.493,0.693-0.836,1.021c-18.587,17.794-33.021,41.04-55.381,54.606
		c-3.196,1.939-6.436,3.935-9.635,6.02c-4.487,5.164-9.454,9.831-14.627,14.282c-5.904,6.475-12.087,12.7-18.396,18.797
		c-1.507,1.761-3.075,3.466-4.764,5.069c-5.538,13.125-9.378,27.43-11.062,43.019c-2.967,27.472,90.809,48.676,123.203,44.112
		c31.078-4.378,83.628-36.45,75.792-100.079C984.215,231.971,1003.479,188.988,1038.404,156.982z"/>
	<ellipse fill="#ED1C24" cx="863.101" cy="324.626" rx="31.656" ry="36.887"/>
	<path stroke="#000000" stroke-miterlimit="10" d="M685.895,310.081"/>
</g>
<g id="Layer_4">
	<g>
		<path d="M739.196,367.54c0,0,232.294-280.821,347.918-261.644C1087.114,105.896,1022.229,77.128,739.196,367.54z"/>
		<path d="M739.555,367.889l-0.744-0.668c0.544-0.657,55.112-66.42,123.506-131.335c40.178-38.134,77.196-68.521,110.028-90.316
			c43.658-28.983,80.073-42.771,107.979-40.951c4.872-0.105,6.912,0.786,6.992,0.821l3.598,1.594l-3.882-0.644
			c-2.175-0.361-4.439-0.62-6.729-0.771c-11.273,0.254-38.101,5.989-91.22,41.491C923.688,190.817,839.733,265.098,739.555,367.889z
			 M1072.064,105.521c-26.514,1.042-59.85,14.781-99.163,40.879c-32.783,21.763-69.755,52.112-109.89,90.205
			c-52.006,49.36-96.015,99.213-114.327,120.522c95.896-97.641,176.542-168.542,239.843-210.848
			C1031.767,117.379,1057.723,108.125,1072.064,105.521z"/>
	</g>
	<path d="M72.336,54.939"/>
	<path fill="#F4ED6B" stroke="#000000" stroke-width="3" stroke-miterlimit="10" d="M408.951,156.982
		c0,0,67.505,8.276,132.033,40.533c0.222,0.35,0.493,0.693,0.836,1.021c18.587,17.794,33.021,41.04,55.381,54.606
		c3.196,1.939,6.436,3.935,9.635,6.02c4.487,5.164,9.454,9.831,14.627,14.282c5.904,6.475,12.087,12.7,18.396,18.797
		c1.507,1.762,3.075,3.467,4.764,5.069c5.538,13.126,9.378,27.431,11.062,43.019c2.967,27.473-90.809,48.676-123.203,44.112
		c-31.078-4.378-83.628-36.45-75.792-100.079C463.14,231.971,443.876,188.988,408.951,156.982z"/>
	<ellipse fill="#ED1C24" cx="584.254" cy="324.627" rx="31.656" ry="36.887"/>
	<g>
		<path d="M708.159,367.539c0,0-232.294-280.821-347.918-261.643C360.241,105.896,425.125,77.128,708.159,367.539z"/>
		<path d="M458.272,147.11c-53.119-35.502-79.946-41.237-91.22-41.491c-2.29,0.15-4.555,0.41-6.729,0.771l-3.882,0.644l3.598-1.594
			c0.08-0.036,2.12-0.927,6.992-0.821c27.906-1.82,64.321,11.968,107.979,40.951c32.832,21.795,69.851,52.182,110.028,90.316
			C653.432,300.801,708,366.564,708.544,367.221l-0.744,0.668C607.622,265.098,523.667,190.817,458.272,147.11z M458.828,146.278
			c63.301,42.307,143.947,113.208,239.843,210.849c-18.312-21.31-62.321-71.162-114.327-120.522
			c-40.135-38.093-77.106-68.442-109.89-90.205c-39.313-26.098-72.649-39.837-99.163-40.879
			C389.632,108.125,415.588,117.379,458.828,146.278z"/>
	</g>
</g>
</svg>
