<?xml version="1.0" encoding="utf-8"?>
<!-- Generator: Adobe Illustrator 16.0.0, SVG Export Plug-In . SVG Version: 6.00 Build 0)  -->
<!DOCTYPE svg PUBLIC "-//W3C//DTD SVG 1.1//EN" "http://www.w3.org/Graphics/SVG/1.1/DTD/svg11.dtd">
<svg version="1.1" id="Layer_1" xmlns="http://www.w3.org/2000/svg" xmlns:xlink="http://www.w3.org/1999/xlink" x="0px" y="0px"
	 width="1440px" height="900px" viewBox="0 0 1440 900" enable-background="new 0 0 1440 900" xml:space="preserve">
<g id="Layer_5">
</g>
<g id="Layer_2">
	<rect y="-2.993" fill="#CC3E8E" width="1439.47" height="902.993"/>
</g>
<g id="Layer_1_1_">
	<g>
		<path fill="#5F2D87" d="M898.309-31.489c-0.045-0.448,0.011-0.887,0.163-1.313c3.525,0,7.048,0,10.574,0
			c0.004,0.466,0.049,0.927,0.134,1.386C905.534-28.442,901.909-28.393,898.309-31.489z"/>
		<path fill="#5F2D87" d="M898.309-31.489c3.625,0.024,7.248,0.047,10.871,0.071c16.668,1.079,33.309,2.54,49.419,6.787
			c16.341,4.308,22.673,13.979,19.916,29.277c-3.346,18.575,6.188,30.874,26.104,34.206c18.684,3.127,37.265,6.783,55.956,9.854
			c18.061,2.965,32.138-3.004,42.187-17.039c7.077-9.885,13.567-20.106,19.013-30.815c2.592-5.102,6.333-6.685,11.919-5.605
			c6.856,1.326,13.839,2.295,20.515,4.173c17.093,4.806,23.722,13.247,24.427,29.458c0.762,17.563-1.962,34.943-2.919,52.413
			c-1.893,34.644,2.54,68.685,10.657,102.495c6.238,26.004,8.564,52.119-2.253,77.852c-4.265,10.146-10.015,19.509-17.711,27.66
			c-12.876,13.632-18.821,29.383-19.535,47.225c-0.884,22.069-14.73,39.496-35.408,44.055c-12.752,2.812-25.626,1.719-38.189-1.823
			c-18.688-5.271-37.471-10.279-56.007-15.964c-5.682-1.744-6.548,0.287-6.994,4.373c-0.562,5.162,0.188,10.306,1.688,15.141
			c2.092,6.731,8.651,8.877,19.992,6.992c12.622-2.102,25.021-1.787,37.396,1.442c24.006,6.265,39.07,21.923,50.881,40.846
			c8.433,13.505,14.402,28.157,23.01,41.634c30.966,48.494,75.341,83.912,129.973,107.512
			c31.236,13.492,54.618,33.052,74.791,57.883c38.05,46.83,74.415,94.845,115.163,139.799c18.411,20.312,37.65,39.943,59.418,57.306
			c17.085,13.625,23.881,30.907,22.139,51.15c-0.735,8.526-1.538,17.111-4.442,25.42c-5.502,15.727-15.387,21.077-32.798,16.856
			c-5.903-1.428-11.809-3.207-17.291-5.622c-5.177-2.283-8.347-1.294-12.096,2.478c-7.354,7.396-15.45,14.264-27.077,15.247
			c-13.198,1.116-25.862-7.14-33.273-21.188c-5.623-10.662-3.507-22.609,5.929-32.069c5.368-5.385,11.415-10.073,18.486-13.547
			c4.481-2.202,5.252-4.768,2.141-8.943c-5.452-7.313-10.571-14.876-15.232-22.639c-6.719-11.196-17.894-13.81-30.385-14.261
			c-3.659-0.134-5.255,1.654-4.947,5.063c0.636,7.048,2.103,13.83,6.429,19.881c16.929,23.665,7.83,43.978-22.551,50.396
			c-18.459,3.901-38.388-6.564-41.479-24.573c-3.86-22.508-6.392-45.419-2.411-68.322c1.906-10.97,6.969-20.738,15.941-28.062
			c8.789-7.175,10.158-15.681,4.861-23.922c-35.711-55.566-74.302-109.141-139.736-139.28c-24.338-11.21-48.84-21.891-71.274-36.161
			c-4.759-3.027-9.465-1.808-13.958,0.806c-12.021,6.989-16.374,18.438-11.077,33.422c15.247,43.121,40.05,80.11,79.606,108.698
			c57.372,41.463,94.361,96.076,112.988,160.392c12.537,43.302,2.333,85.473-17.123,125.646
			c-18.565,38.328-44.659,72.063-78.984,99.843c-25.891,20.953-37.873,47.79-43.37,77.963c-2.585,14.18-2.353,28.439-1.052,42.711
			c2.058,22.556,14.688,40.265,30.133,56.981c21.829,23.63,45.292,45.208,77.613,56.523c22.611,7.917,45.834,9.454,69.913,6.679
			c26.289-3.029,51.184,0.224,69.118,21.071c9.545,11.097,9.362,21.631,0.335,33.241c-7.018,9.027-16.046,15.415-27.433,19.32
			c-30.872,10.584-62.761,17.637-95.447,20.245c-40.552,3.235-75.89-10.262-107.344-32.949
			c-10.135-7.312-19.602-15.411-29.302-23.222c-23.339-18.796-48.781-25.158-78.582-13.176
			c-18.104,7.278-35.041,1.745-49.695-14.162c-20.271-22.004-19.395-44.152,2.529-64.717
			c33.375-31.307,49.387-69.729,54.956-112.521c2.822-21.691,1.041-42.904-6.08-63.777c-1.789-5.249-3.949-6.917-10.651-5.401
			c-41.146,9.314-81.923,20.146-123.719,26.893c-20.817,3.361-41.807,5.319-62.975,2.858c-24.752-2.882-42.361,6.104-54.227,26.194
			c-23.14,39.184-46.808,78.102-70.166,117.175c-6.494,10.862-11.848,22.214-14.396,34.443c-4.026,19.318,2.57,36.408,15.507,51.122
			c25.79,29.33,36.361,64.617,47.26,99.688c3.926,12.63-0.827,24.689-11.485,33.857c-18.567,15.975-40.685,21.938-63.895,11.736
			c-37.579-16.516-73.491-12.938-109.922,2.117c-15.661,6.475-30.627,14.769-47.953,17.403
			c-18.654,2.839-35.225-2.334-48.625-13.706c-10.995-9.332-8.697-22.051-5.358-34.122c2.294-8.293,7.976-14.887,13.202-21.682
			c18.803-24.438,39.495-47.543,59.995-70.763c8.779-9.943,15.319-20.887,21.421-32.25c42.115-78.438,84.3-156.844,126.701-235.151
			c2.479-4.577,2.229-6.673-2.952-8.424c-90.812-30.708-151.913-91.073-196.368-167.387
			c-45.679-78.409-83.226-160.225-118.211-243.062c-16.811-39.802-37.337-77.75-69.261-109.458
			c-16.629-16.519-35.354-30.867-58.554-39.051c-28.703-10.125-54.24,2.061-60.553,29.197c-9.97,42.86-14.795,86.185-9.073,129.958
			c8.751,66.948,37.911,125.201,88.659,174.326c28.12,27.225,62.009,47.6,94.596,69.597c37.123,25.062,74.251,50.277,104.533,82.523
			c24.164,25.731,39.269,55.906,45.518,89.402c4.956,26.559-13.672,49.713-42.902,54.664c-29.173,4.942-54.889-4.07-79.172-17.526
			c-24.421-13.53-43.476-32.653-62.336-51.926c-72.861-74.444-131.663-157.062-172.712-250.021
			c-25.703-58.211-44.31-118.312-53.063-180.572c-8.553-60.836,7.718-116.52,49.147-164.971
			c25.443-29.761,60.491-38.961,100.442-34.696c43.105,4.6,77.049,25.782,108.256,51.346
			c47.478,38.894,84.536,85.666,119.234,134.211c24.91,34.854,48.25,70.799,78.834,101.913
			c38.124,38.786,82.518,69.196,137.882,84.288c27.534,7.507,45.894,1.284,59.926-21.826c18.108-29.821,38.725-57.721,66.252-80.964
			c16.242-13.715,33.688-25.977,52.774-36.143c35.979-19.164,47.402-58.344,26.098-91.197
			c-13.229-20.402-30.061-38.482-45.01-57.777c-20.054-25.875-40.188-51.695-60.001-77.725c-3.964-5.206-6.378-6.524-12.63-1.855
			c-29.259,21.853-53.958,22.63-84.936,3.387c-5.768-3.583-11.689-4.528-18.364-3.21c-9.338,1.846-17.899,5.188-25.034,11.065
			c-25.091,20.676-53.43,22.286-83.588,11.797c-10.095-3.51-19.717-8.158-29.572-12.257c-22.648-9.416-44.721-9.023-66.229,3.091
			c-7.734,4.355-15.703,8.419-24.789,9.967c-27.824,4.736-55.213-12.211-63.693-39.355c-7.855-25.15,9.785-48.911,40.843-55.956
			c16.228-3.682,32.171-0.461,48.129,0.572c28.512,1.846,51.438-7.41,70.149-26.666c16.203-16.674,16.184-16.631-2.649-30.642
			c-8.889-6.612-17.881-13.138-26.403-20.133c-20.78-17.056-26.679-36.874-17.94-58.772c9.799-24.555,27.87-36.546,56.4-37.424
			c31.962-0.982,51.415,11.26,61.771,39.118c5.036,13.548,11.353,26.414,21.196,37.688c11.684,13.381,26.791,22.08,44.976,24.662
			c26.706,3.793,51.305,12.41,75.068,23.727c13.6,6.477,13.716,6.317,18.664-6.717c11.904-31.379,23.734-62.78,35.729-94.129
			c1.926-5.029,1.015-8.449-3.115-12.686c-16.274-16.689-31.354-34.139-35.744-57.256c-3.085-16.246,0.205-31.481,6.955-46.406
			c10.507-23.228,26.512-43.555,40.519-64.938c20.062-30.623,26.347-62.831,13.478-97.335c-1.406-3.77-2.17-7.826-2.601-11.806
			C879.093-24.214,883.312-29.015,898.309-31.489z"/>
	</g>
</g>
<g id="Layer_4">
	<g>
		<path fill="#F06BA8" d="M23.988,495.578c0-7.422,0-14.845,0-22.266c10.531-34.883,30.604-63.596,55.711-89.63
			c12.118-12.565,23.208-26.745,31.944-41.827c25.285-43.654,41.47-89.188,20.667-139.983c-4.73-11.556-8.801-23.402-12.747-35.258
			c-9.229-27.731,1.456-67.319,40.392-77.948c20.366-5.563,40.066-6.554,60.304-2.952c23.775,4.231,46.176,2.016,65.984-12.828
			c7.368-5.52,13.701-12.403,20.735-18.396c22.955-19.568,46.312-23.74,68.887-9.374c25.394,16.16,52.667,18.57,80.081,11.698
			c33.562-8.413,69.697,11.851,81.927,43.592c4.828,12.528,8.728,25.453,14.192,37.688c12.83,28.717,32.511,51.332,60.811,66.077
			c15.979,8.323,32.515,16.055,47.144,26.397c27.983,19.784,27.77,53.845,0.826,75.148c-27.353,21.626-35.316,59.819-17.858,89.827
			c8.117,13.956,17.028,27.644,27.122,40.215c20.249,25.217,41.792,49.439,49.626,82.083c0,5.565,0,11.132,0,16.698
			c-0.907,2.04-1.847,4.065-2.714,6.124c-5.143,12.213-7.938,26.293-15.893,36.256c-15.351,19.217-37.373,21.241-60.687,17.016
			c-47.016-8.521-93.875-6.896-140.417,3.922c-37.695,8.763-75.113,19.23-113.217,25.517c-18.996,3.133-40.044,1.623-58.765-3.206
			c-27.994-7.221-55.77-17.113-81.798-29.68c-39.599-19.118-79.354-30.762-124.164-26.372c-28.993,2.838-56.382-8.204-76.767-29.293
			C35.344,524.506,30.921,508.826,23.988,495.578z"/>
	</g>
</g>
<g id="Layer_3">
	<g>
		<path fill="#DE3F96" d="M1089.659,449.932c-0.199,0.812-0.383,1.627-0.599,2.437c-0.989,3.764-2.709,7.205-5.163,10.188
			c-3.414,4.152-6.982,8.185-10.584,12.179c-4.791,5.313-9.921,10.272-15.834,14.354c-0.261,0.18-0.474,0.426-0.709,0.637
			c-1.033,0.914-1.982,1.949-3.109,2.724c-19.035,13.039-39.678,22.535-62.121,28.018c-8.285,2.021-16.672,3.453-25.151,4.392
			c-9.773,1.078-19.566,1.237-29.369,0.784c-12.475-0.577-24.811-2.331-36.963-5.192c-12.963-3.051-26.026-5.551-39.135-7.854
			c-2.987-0.524-5.975-1.069-8.953-1.643c-2.731-0.525-5.34-1.428-7.899-2.844c-0.148,0.393-0.345,0.702-0.375,1.028
			c-0.193,1.965-0.304,3.935,0.207,5.877c1.606,6.127,1.541,12.341,0.901,18.568c-0.571,5.561-1.196,11.119-1.854,16.672
			c-0.951,8.039-2.234,16.021-3.832,23.963c-1.039,5.16-1.752,10.392-2.506,15.605c-0.99,6.846-1.689,13.742-3.5,20.447
			c-2.252,8.346-6.293,15.686-12.359,21.872c-3,3.06-6.471,5.527-9.994,7.941c-5.01,3.436-9.959,6.957-14.912,10.471
			c-0.864,0.613-1.666,1.33-2.434,2.066c-1.787,1.715-2.484,3.873-2.053,6.266c0.641,3.562,1.426,7.095,2.207,10.625
			c2.463,11.123,5.131,22.203,7.354,33.371c1.121,5.633,2.775,11.131,3.744,16.801c0.967,5.662,2.332,11.257,3.529,16.88
			s2.408,11.241,3.604,16.864c1.195,5.625,2.39,11.248,3.562,16.879c0.834,4.011,1.729,8.013,2.424,12.048
			c0.977,5.69-2.678,13.352-8.76,15.815c-0.648,0.26-1.281,0.779-1.705,1.34c-1.51,2-3.457,3.279-5.859,3.918
			c-0.24,0.064-0.457,0.218-0.686,0.33c-1.279,0-2.56,0-3.838,0c-1.361-0.688-2.771-1.295-4.068-2.086
			c-1.199-0.731-1.236-0.817-2.334,0.084c-2.281,1.873-4.016,2.033-6.561,0.486c-1.775-1.078-3.486-2.26-5.24-3.373
			c-3.103-1.967-4.545-4.777-4.547-8.443c0-4.369-0.168-8.735-0.181-13.104c-0.022-9.699-0.237-19.394-1.039-29.062
			c-0.479-5.782-0.979-11.571-1.737-17.323c-0.974-7.382-2.238-14.724-3.845-22c-0.184-0.832-0.331-1.673-0.477-2.513
			c-1.887-10.805-3.777-21.606-5.648-32.416c-0.989-5.717-2.061-11.426-2.879-17.17c-0.612-4.309,0.205-7.26,5.31-9.289
			c0.793-0.313,1.598-0.594,2.387-0.912c2.959-1.192,5.611-2.838,7.639-5.354c1.438-1.785,2.523-3.758,3.162-6.197
			c-0.586,0.125-0.981,0.195-1.373,0.295c-2.162,0.564-4.297,1.301-6.492,1.666c-3.776,0.629-7.581,1.176-11.396,1.484
			c-5.209,0.424-10.439,0.559-15.58-0.728c-1.404-0.352-2.479,0.023-3.414,1.104c-0.975,1.127-1.994,2.221-3.057,3.264
			c-4.131,4.064-8.842,7.365-13.867,10.203c-1.219,0.686-2.672,1.195-4.055,1.301c-4.92,0.369-8.685,2.607-11.564,6.525
			c-2.592,3.523-4.414,7.398-5.451,11.643c-1.43,5.861-1.979,11.865-2.877,17.812c-0.934,6.205-1.567,12.449-2.475,18.66
			c-0.265,1.812-0.51,3.649-0.691,5.471c-0.747,7.471-1.241,14.969-1.895,22.447c-0.598,6.846-1.229,13.686-1.938,20.52
			c-1.03,9.965-2.537,19.859-4.551,29.674c-0.477,2.324-1.256,4.515-2.587,6.486c-2.037,3.019-4.833,5.229-7.808,7.232
			c-0.634,0.428-1.375,0.682-2.1,0.188c-1.479-1.01-2.818-0.584-4.135,0.324c-0.396,0.271-0.79,0.545-1.191,0.807
			c-1.115,0.728-2.318,0.961-3.65,0.783c-1.359-0.182-2.568-0.69-3.683-1.443c-2.082-1.407-3.635-3.243-4.416-5.834
			c-0.576,0.15-1.071,0.291-1.571,0.404c-1.089,0.244-2.169,0.609-3.271,0.689c-3.868,0.276-6.41-1.41-7.751-5.058
			c-1.285-3.495-1.241-7.112-0.831-10.735c0.47-4.162,1.779-8.099,3.442-11.927c3.978-9.159,6.972-18.645,9.226-28.36
			c3.216-13.863,5.387-27.906,7.326-41.994c1.272-9.23,2.658-18.449,4.24-27.629c0.885-5.131,2.123-10.217,3.475-15.25
			c1.596-5.938,5.285-9.945,11.595-10.916c4.585-0.703,7.488-3.281,9.161-7.469c0.592-1.482,1.228-2.947,1.805-4.438
			c0.249-0.641,0.48-1.307,0.581-1.984c0.275-1.879-0.745-2.729-2.521-2.159c-0.252,0.082-0.506,0.172-0.744,0.289
			c-2.753,1.356-5.729,1.959-8.697,2.6c-6.097,1.318-12.252,2.283-18.45,2.922c-6.248,0.646-12.499,1.336-18.768,1.705
			c-6.171,0.365-12.353,0.09-18.521-0.424c-8.569-0.711-17.011-2.14-25.326-4.297c-11.861-3.076-23.219-7.404-33.785-13.695
			c-12.725-7.576-23.632-17.256-33.268-28.447c-7.948-9.229-14.014-19.537-18.052-31.035c-3.592-10.231-5.357-20.803-5.995-31.596
			c-0.103-1.744-0.398-3.475-0.604-5.211c0-5.227,0-10.451,0-15.678c0.072-0.361,0.172-0.72,0.21-1.082
			c0.35-3.336,0.668-6.674,1.036-10.006c1.074-9.728,3.288-19.189,6.537-28.42c3.658-10.394,9.163-19.666,16.6-27.8
			c5.021-5.487,10.738-10.188,16.556-14.785c6.934-5.479,14.745-9.088,23.281-11.217c5.902-1.471,11.884-2.449,17.935-3.062
			c7.848-0.793,15.704-1.439,23.6-0.947c3.133,0.195,6.271,0.455,9.38,0.881c6.779,0.933,13.318,2.863,19.737,5.178
			c5.657,2.041,11.271,4.201,16.888,6.354c14.366,5.502,28.762,10.93,43.075,16.572c13.42,5.293,26.746,10.828,40.121,16.244
			c0.643,0.26,1.338,0.391,2.008,0.581c0.045-0.098,0.088-0.196,0.133-0.297c-0.557-0.479-1.09-0.996-1.678-1.434
			c-1.711-1.271-3.461-2.49-5.164-3.771c-2.738-2.059-5.312-4.303-7.244-7.163c-4.375-6.479-6.836-13.587-6.688-21.464
			c0.051-2.709,0.344-5.418,0.614-8.116c0.488-4.877,1.005-9.757,2.267-14.507c0.373-1.397,0.215-2.572-0.474-3.813
			c-2.272-4.1-4.477-8.236-6.715-12.354c-3.822-7.025-7.381-14.172-9.903-21.785c-0.521-1.562-0.98-3.152-1.326-4.76
			c-0.422-1.975,0.271-3.57,1.992-4.664c0.629-0.4,1.272-0.783,1.944-1.102c7.793-3.699,15.959-6.217,24.453-7.691
			c5.416-0.939,10.871-1.453,16.363-1.625c1.59-0.051,3.008-0.473,4.246-1.559c6.926-6.072,14.936-10.174,23.717-12.805
			c10.729-3.215,21.766-4.52,32.897-5.22c5.017-0.315,10.006-0.093,14.979,0.595c6.043,0.834,11.867,2.529,17.557,4.678
			c2.066,0.781,3.914,0.646,5.81-0.418c1.901-1.068,3.84-2.084,5.799-3.043c6.582-3.222,13.389-5.793,20.652-7.005
			c1.674-0.279,3.354-0.533,5.03-0.8c2.451,0,4.904,0,7.357,0c0.172,0.109,0.332,0.264,0.52,0.322
			c1.621,0.493,2.414,1.662,2.673,3.26c0.118,0.736,0.26,1.477,0.276,2.217c0.166,7.084,0.365,14.168,0.437,21.252
			c0.053,5.395-0.476,10.766-1.771,16.002c-0.912,3.695-0.404,7.031,1.381,10.314c1.601,2.947,3.115,5.941,4.599,8.951
			c3.229,6.555,6.022,13.279,7.737,20.412c2.533,10.541,0.832,20.283-5.403,29.199c-2.521,3.604-5.572,6.717-8.775,9.701
			c-6.846,6.375-14.355,11.895-22.057,17.166c-0.347,0.235-0.738,0.442-1.142,0.555c-4.01,1.104-7.381,3.305-10.307,6.178
			c-3.156,3.099-6.166,6.342-9.308,9.453c-1.547,1.531-3.172,3.006-4.905,4.314c-1.171,0.881-1.82,1.889-1.935,3.303
			c-0.293,3.66-0.582,7.324-0.879,10.984c-0.135,1.655,0.453,2.913,1.969,3.686c0.332,0.168,0.652,0.361,0.982,0.531
			c4.641,2.36,9.57,3.858,14.65,4.885c9.61,1.939,19.309,3.357,29.051,4.383c8.787,0.924,17.602,1.668,26.422,2.189
			c9.115,0.539,18.21,0.069,27.189-1.783c4.279-0.883,8.509-1.969,12.523-3.734c3.232-1.424,6.076-3.385,7.814-6.562
			c2.903-5.312,6.946-9.59,11.948-12.89c4.709-3.104,9.601-5.94,14.438-8.848c6.531-3.922,13.088-7.809,20.1-10.826
			c9.963-4.291,20.379-7.151,30.924-9.569c3.939-0.904,7.963-1.463,11.888-2.435c5.952-1.473,11.918-2.799,18.055-3.219
			c4.701-0.32,9.369-0.055,13.99,0.889c1.549,0.316,2.891,0.996,3.662,2.484C1089.659,447.586,1089.659,448.76,1089.659,449.932z
			 M606.852,425.221c-11.442-0.043-19.955,0.799-28.428,2.293c-7.988,1.41-15.145,4.56-21.579,9.463
			c-4.417,3.367-8.639,6.941-12.478,10.962c-9.932,10.399-16.539,22.52-19.062,36.756c-0.836,4.719-1.566,9.457-2.457,14.164
			c-1.688,8.932-1.909,17.893-0.646,26.879c1.206,8.584,3.628,16.844,6.778,24.908c2.431,6.225,5.255,12.239,9.197,17.666
			c8.903,12.256,20.039,22.047,33.089,29.666c7.709,4.5,15.954,7.817,24.373,10.741c11.543,4.009,23.425,6.347,35.592,7.183
			c4.99,0.344,10.009,0.312,15.016,0.412c5.728,0.112,11.375-0.589,16.963-1.81c8.432-1.84,16.695-4.301,24.965-6.746
			c0.806-0.237,1.714-0.535,2.482-0.373c1.045,0.224,1.684-0.178,2.19-0.864c0.56-0.761,1.181-1.589,1.373-2.474
			c0.315-1.438,0.464-2.955,0.403-4.428c-0.346-8.498,1.277-16.629,4.383-24.504c3.32-8.416,7.834-16.195,12.722-23.771
			c2.868-4.45,6.157-8.569,10.096-12.133c2.529-2.287,5.166-4.457,7.68-6.762c9.504-8.715,18.992-17.447,28.455-26.209
			c3.518-3.258,6.973-6.588,10.406-9.937c2.889-2.813,4.746-6.27,5.869-10.114c0.463-1.59,0.08-2.388-1.357-3.16
			c-0.746-0.4-1.551-0.703-2.344-1.015c-12.25-4.776-24.582-9.354-36.738-14.364c-25.895-10.67-51.695-21.562-77.536-32.361
			c-1.43-0.598-2.672-1.734-4.402-1.486c-0.285,0.041-0.608-0.17-0.911-0.27c-1.416-0.469-2.83-0.939-4.246-1.406
			C632.834,427.557,618.668,424.857,606.852,425.221z"/>
	</g>
</g>
</svg>
