<?xml version="1.0" encoding="utf-8"?>
<!-- Generator: Adobe Illustrator 16.0.0, SVG Export Plug-In . SVG Version: 6.00 Build 0)  -->
<!DOCTYPE svg PUBLIC "-//W3C//DTD SVG 1.1//EN" "http://www.w3.org/Graphics/SVG/1.1/DTD/svg11.dtd">
<svg version="1.1" id="Слой_1" xmlns="http://www.w3.org/2000/svg" xmlns:xlink="http://www.w3.org/1999/xlink" x="0px" y="0px"
	 width="1440px" height="900px" viewBox="-464 -194 1440 900" enable-background="new -464 -194 1440 900" xml:space="preserve">
<rect x="-464" y="-194" fill="#FC0000" width="1440" height="900"/>
<g>
	<path fill="#FEFDFD" d="M223.064,215.555c0.094,1.461-1.271,2.661-0.76,4.205c-0.637,0.2-0.841,0.679-0.953,1.294
		c-2.531,14.148-8.143,27.011-16.15,38.883l-0.032,0.065c-0.229,0.369-0.453,0.734-0.685,1.1l0.076-0.093
		c-3.782,4.153-7.565,8.302-11.348,12.454h0.004c-1.814,0.756-3.238,1.982-4.367,3.572l0.015-0.021
		c-6.431,3.955-12.61,8.371-19.712,11.113c-2.715,1.055-0.764,2.197-0.039,3.156c7.15,9.408,14.276,18.848,21.562,28.146
		c4.03,5.146,7.337,10.902,12.403,15.201c0.029,0.241,0.164,0.391,0.398,0.452c2.737,3.99,5.32,8.095,8.238,11.944
		c11.641,15.354,23.387,30.643,35.097,45.945c6.972,9.113,5.977,15.178-3.497,21.182c0,0,0.091-0.031,0.088-0.031
		c-2.045,0.049-4.086,0.137-6.132,0.137c-64.522,0.008-129.047,0.008-193.577-0.01c-16.713,0-33.434-0.061-50.148-0.096
		c0,0,0.129,0.053,0.125,0.053c-0.707-1.029-1.791-0.773-2.792-0.801l0.059,0.035c-0.514-1.494-1.999-2.004-3.027-2.971
		l-0.094-0.141c-0.416-0.465-0.825-0.939-1.238-1.406l0.07,0.07c-1.09-3.036-1.735-6.13-1.735-9.399
		c0.03-93.661,0.024-187.321,0.024-280.989c0-4.685-0.169-9.369,0.762-14.001l-0.038,0.058c0.854-0.33,0.925-1.055,0.917-1.822
		l-0.045,0.065c0.953-1.037,1.906-2.076,2.86-3.122l0.117-0.113c3.158-1.762,6.545-2.093,10.131-2.089
		c38.087,0.079,76.177,0.04,114.27,0.062c11.313,0.002,22.447,1.523,33.479,3.961c14.759,3.268,28.087,9.684,40.55,18.055
		l-0.018-0.028c1.463,1.832,3.188,3.364,5.307,4.412l-0.02-0.027c1.259,1.879,2.9,3.367,4.713,4.689c0,0,0.29,0.295,0.293,0.295
		c20.338,22.748,26.537,49.893,24.881,79.551C222.969,210.848,220.986,213.241,223.064,215.555z"/>
	<path fill="#FEFDFD" d="M526.94,334.358c-0.391,1.956-0.773,3.92-1.156,5.885c-2.395,8.652-4.842,17.244-9.211,25.229
		c-5.633,10.293-13.68,18.356-22.342,25.95l0.018-0.035c-5.484,3.036-10.577,6.728-16.277,9.417
		c-19.695,9.291-40.641,13.127-62.164,13.334c-37.539,0.369-75.09,0.123-112.633,0.113c-5.919,0-11.9,0.59-17.613-1.635
		c-0.707-0.658-1.41-1.318-2.104-1.969c0.229-1.138-0.128-1.99-1.204-2.509l0.021,0.048c-0.668-2.412-0.962-4.838-0.957-7.365
		c0.03-96.652,0.021-193.304,0.025-289.955c0.005-8.996,4.229-13.234,13.123-13.234c36.522,0,73.045-0.141,109.568,0.046
		c27.137,0.138,52.646,5.521,73.525,24.563l-0.027-0.042c0.304,0.312,0.607,0.622,0.91,0.936l-0.049-0.049
		c0.049,0.567,0.33,0.896,0.919,0.934l-0.053-0.015c16.247,19.114,21.059,41.702,20.364,66.076
		c-0.176,6.144-1.626,12.114-1.727,18.237c-0.062,0.328-0.141,0.65-0.203,0.976c-2.838,7.772-5.457,15.636-9.615,22.856l0.018-0.025
		c-1.529,1.523-2.873,3.169-3.568,5.263l0.01-0.005c-3.508,2.121-3.314,3.632,0.518,5.273c3.199,1.369,6.285,3.142,9.172,5.1
		c19.34,13.151,28.385,32.276,31.768,54.753C527.582,313.116,526.997,323.733,526.94,334.358z"/>
</g>
<path opacity="0.1" enable-background="new    " d="M192.172,170.612"/>
</svg>
