<?xml version="1.0" encoding="utf-8"?>
<!-- Generator: Adobe Illustrator 16.0.0, SVG Export Plug-In . SVG Version: 6.00 Build 0)  -->
<!DOCTYPE svg PUBLIC "-//W3C//DTD SVG 1.1//EN" "http://www.w3.org/Graphics/SVG/1.1/DTD/svg11.dtd">
<svg version="1.1" id="Layer_1" xmlns="http://www.w3.org/2000/svg" xmlns:xlink="http://www.w3.org/1999/xlink" x="0px" y="0px"
	 width="400px" height="400px" viewBox="0 0 400 400" enable-background="new 0 0 400 400" xml:space="preserve">
<polygon opacity="0.1" fill="none" stroke="#000000" stroke-width="2.1074" stroke-miterlimit="10" points="80.69,128.473 
	83.228,117.371 85.767,106.271 94.112,114.019 102.456,121.768 91.574,125.121 "/>
<polygon opacity="0.1" fill="none" stroke="#000000" stroke-width="3.4" stroke-miterlimit="10" points="59.667,331 54.738,323.536 
	58.738,315.536 67.667,315 72.595,322.464 68.595,330.464 "/>
<g opacity="0.1">
	<g>
		<g>
			<path d="M280.2,110.821c-1.231,0.652-2.672,0.536-3.2-0.259s0.23-2.08,1.686-2.856c0,0,0.127-0.067,1.331-0.545
				c2.935-1.165,4.032-1.6,3.269-6.564c-1.469-9.548,3.641-13.721,3.641-13.721c1.277-1.043,2.811-1.288,3.407-0.543
				s0.84,1.05,0.542,0.677s-0.297-0.373,0.002-0.002c0.3,0.372-0.495,1.537-1.766,2.589c0,0-3.555,2.944-2.396,10.472
				c1.099,7.145-1.553,8.783-5.418,10.316C280.2,110.821,280.2,110.821,280.2,110.821z"/>
		</g>
	</g>
</g>
<g opacity="0.1">
	<g>
		<path d="M222.333,314.667c0,0.936-1.348,1.626-2.995,1.535c0,0-0.502-0.027-2.165-0.393c-8.812-1.936-15.828-8.722-18.097-17.405
			c-0.506-1.939-0.581-3.077-0.581-3.077c-0.108-1.646,0.569-2.993,1.504-2.993s1.796,1.347,1.913,2.992
			c0,0,0.061,0.855,0.571,2.649c2.042,7.175,7.879,12.769,15.192,14.462c1.497,0.347,1.661,0.356,1.661,0.356
			C220.985,312.889,222.333,313.731,222.333,314.667z"/>
	</g>
</g>
<circle opacity="0.1" cx="343.595" cy="195" r="1.928"/>
<circle opacity="0.1" cx="103.595" cy="271.406" r="1.928"/>
<g opacity="0.1">
	<g>
		<g>
			<path d="M188.641,68.782c-0.34,0.23-0.845-0.174-1.123-0.899l-6.194-16.166c-0.278-0.725-0.227-1.506,0.113-1.737
				c0.34-0.231,0.845,0.174,1.123,0.898l6.194,16.166C189.031,67.77,188.98,68.551,188.641,68.782z"/>
		</g>
	</g>
</g>
<rect fill="none" width="400" height="400"/>
</svg>
