<?xml version="1.0" encoding="utf-8"?>
<!-- Generator: Adobe Illustrator 16.0.0, SVG Export Plug-In . SVG Version: 6.00 Build 0)  -->
<!DOCTYPE svg PUBLIC "-//W3C//DTD SVG 1.1//EN" "http://www.w3.org/Graphics/SVG/1.1/DTD/svg11.dtd">
<svg version="1.1" xmlns="http://www.w3.org/2000/svg" xmlns:xlink="http://www.w3.org/1999/xlink" x="0px" y="0px" width="1730px"
	 height="973px" viewBox="0 0 1730 973" enable-background="new 0 0 1730 973" xml:space="preserve">
<g id="Layer_3">
	<rect fill="#F15A46" width="1730" height="973"/>
</g>
<g id="Layer_2" display="none">
	<rect display="inline" fill="#DF1B50" width="1730" height="973"/>
</g>
<g id="Layer_4">
	<polygon opacity="0.2" fill="#DF1B50" points="96.111,973 0,973 96.111,0 192.223,0 	"/>
	<polygon opacity="0.2" fill="#DF1B50" points="288.333,973 192.222,973 288.333,0 384.445,0 	"/>
	<polygon opacity="0.2" fill="#DF1B50" points="480.556,973 384.444,973 480.556,0 576.667,0 	"/>
	<polygon opacity="0.2" fill="#DF1B50" points="672.778,973 576.667,973 672.778,0 768.889,0 	"/>
	<polygon opacity="0.2" fill="#DF1B50" points="865,973 768.889,973 865,0 961.111,0 	"/>
	<polygon opacity="0.2" fill="#DF1B50" points="1057.223,973 961.111,973 1057.223,0 1153.334,0 	"/>
	<polygon opacity="0.2" fill="#DF1B50" points="1249.444,973 1153.333,973 1249.444,0 1345.556,0 	"/>
	<polygon opacity="0.2" fill="#DF1B50" points="1441.667,973 1345.556,973 1441.667,0 1537.778,0 	"/>
	<polygon opacity="0.2" fill="#DF1B50" points="1633.889,973 1537.777,973 1633.889,0 1730,0 	"/>
</g>
<g id="Layer_1">
	<path fill="#F8C22D" d="M709.454,685.575l-22.679,22.674c-3.032,3.063-6.517,4.538-10.458,4.538s-7.426-1.475-10.458-4.538
		L454.511,496.907c-3.032-3.007-4.533-6.465-4.533-10.433c0-3.939,1.5-7.426,4.533-10.461l211.347-211.344
		c3.032-3.032,6.517-4.535,10.458-4.535s7.426,1.503,10.458,4.535l22.679,22.676c3.032,3.035,4.533,6.521,4.533,10.461
		s-1.501,7.426-4.533,10.461l-178.21,178.207l178.21,178.236c3.032,3.006,4.533,6.465,4.533,10.432
		C713.986,679.11,712.485,682.568,709.454,685.575z M977.517,201.658l-169.14,585.508c-1.188,3.967-3.541,6.914-7.03,8.842
		c-3.484,1.927-7.025,2.325-10.685,1.133l-28.09-7.709c-3.942-1.189-6.886-3.515-8.814-7.029c-1.927-3.459-2.328-7.145-1.161-11.055
		L921.73,185.814c1.249-3.941,3.572-6.889,7.031-8.816c3.515-1.927,7.029-2.325,10.715-1.161l28.06,7.737
		c3.973,1.19,6.917,3.515,8.845,7.002C978.308,194.063,978.709,197.776,977.517,201.658z M1275.483,496.907l-211.342,211.342
		c-3.063,3.063-6.578,4.538-10.489,4.538c-3.91,0-7.426-1.475-10.488-4.538l-22.674-22.674c-3.007-3.007-4.538-6.465-4.538-10.433
		c0-3.967,1.531-7.426,4.538-10.432l178.235-178.236L1020.49,308.268c-3.007-3.035-4.538-6.521-4.538-10.461
		s1.531-7.426,4.538-10.461l22.674-22.676c3.062-3.032,6.578-4.535,10.488-4.535c3.911,0,7.426,1.503,10.489,4.535l211.342,211.344
		c3.007,3.035,4.538,6.521,4.538,10.461C1280.021,490.442,1278.49,493.9,1275.483,496.907z"/>
</g>
</svg>
