<?xml version="1.0" encoding="utf-8"?>
<!-- Generator: Adobe Illustrator 16.0.0, SVG Export Plug-In . SVG Version: 6.00 Build 0)  -->
<!DOCTYPE svg PUBLIC "-//W3C//DTD SVG 1.1//EN" "http://www.w3.org/Graphics/SVG/1.1/DTD/svg11.dtd">
<svg version="1.1" xmlns="http://www.w3.org/2000/svg" xmlns:xlink="http://www.w3.org/1999/xlink" x="0px" y="0px" width="100px"
	 height="100px" viewBox="0 0 100 100" enable-background="new 0 0 100 100" xml:space="preserve">
<g id="Layer_1">
	<circle fill="#F15A46" cx="50.049" cy="52.433" r="41.688"/>
	<g>
		
			<ellipse transform="matrix(-0.7071 -0.7071 0.7071 -0.7071 15.7973 66.5423)" fill="#DD5345" cx="21.681" cy="29.999" rx="15.399" ry="22.753"/>
		<path fill="#F15A46" d="M20.652,56.009c-5.488,0-10.505-1.994-14.128-5.618c-8.378-8.379-7.219-23.168,2.581-32.968
			c5.212-5.212,12.081-8.201,18.844-8.201c5.487,0,10.504,1.996,14.126,5.617c8.377,8.378,7.219,23.168-2.583,32.972
			C34.282,53.021,27.415,56.009,20.652,56.009z M27.948,13.996c-5.507,0-11.145,2.479-15.468,6.802
			c-7.939,7.94-9.097,19.7-2.581,26.217c2.721,2.721,6.54,4.218,10.752,4.218c5.505,0,11.142-2.479,15.463-6.799
			c7.94-7.941,9.098-19.704,2.583-26.22C35.978,15.495,32.16,13.996,27.948,13.996z"/>
	</g>
	<g>
		<path fill="#DD5345" d="M89.205,18.644c8.885,8.886,11.084,21.093,4.913,27.266c-6.174,6.173-18.38,3.974-27.267-4.913
			c-8.883-8.884-11.083-21.091-4.91-27.263C68.115,7.56,80.32,9.758,89.205,18.644z"/>
		<path fill="#F15A46" d="M79.349,55.544c-6.764,0-13.635-2.99-18.846-8.201c-4.693-4.692-7.572-10.663-8.108-16.811
			c-0.55-6.305,1.415-12.042,5.53-16.158c3.623-3.623,8.641-5.617,14.129-5.617c6.763,0,13.63,2.988,18.84,8.199
			c9.801,9.803,10.96,24.593,2.583,32.97C89.854,53.549,84.837,55.544,79.349,55.544z M72.054,13.532
			c-4.213,0-8.032,1.498-10.753,4.219c-3.102,3.101-4.574,7.492-4.15,12.367c0.438,5.031,2.828,9.949,6.729,13.849
			c4.323,4.324,9.962,6.802,15.47,6.802c4.213,0,8.032-1.498,10.752-4.218c6.517-6.515,5.357-18.278-2.583-26.219
			C83.195,16.011,77.56,13.532,72.054,13.532z"/>
	</g>
</g>
<g id="Layer_5">
	<g>
		<path fill="#DD5345" d="M52.461,76.547c-0.526,0.575-1.388,0.575-1.914,0s-1.388-1.516-1.915-2.09
			c-0.527-0.575-0.097-1.045,0.957-1.045c1.053,0,2.776,0,3.829,0s1.483,0.47,0.957,1.045
			C53.849,75.031,52.987,75.972,52.461,76.547z"/>
	</g>
</g>
<g id="Layer_2">
	<circle fill="#FFFFFF" stroke="#DD5345" stroke-width="3.683" stroke-miterlimit="10" cx="67.473" cy="63.52" r="9.898"/>
	<circle fill="#FFFFFF" stroke="#DD5345" stroke-width="3.683" stroke-miterlimit="10" cx="34.196" cy="63.52" r="9.898"/>
</g>
</svg>
